<?xml version="1.0" encoding="UTF-8" standalone="no"?>
<!-- Created with Inkscape (http://www.inkscape.org/) -->

<svg
   xmlns:dc="http://purl.org/dc/elements/1.1/"
   xmlns:cc="http://creativecommons.org/ns#"
   xmlns:rdf="http://www.w3.org/1999/02/22-rdf-syntax-ns#"
   xmlns:svg="http://www.w3.org/2000/svg"
   xmlns="http://www.w3.org/2000/svg"
   xmlns:sodipodi="http://sodipodi.sourceforge.net/DTD/sodipodi-0.dtd"
   xmlns:inkscape="http://www.inkscape.org/namespaces/inkscape"
   version="1.1"
   id="svg2"
   xml:space="preserve"
   width="936.14935"
   height="302.936"
   viewBox="0 0 936.14935 302.936"
   sodipodi:docname="Logo_icon_bonusbasmati.svg"
   inkscape:version="0.92.3 (2405546, 2018-03-11)"><metadata
     id="metadata8"><rdf:RDF><cc:Work
         rdf:about=""><dc:format>image/svg+xml</dc:format><dc:type
           rdf:resource="http://purl.org/dc/dcmitype/StillImage" /><dc:title></dc:title></cc:Work></rdf:RDF></metadata><defs
     id="defs6"><clipPath
       clipPathUnits="userSpaceOnUse"
       id="clipPath18"><path
         d="M 0,227.202 H 702.112 V 0 H 0 Z"
         id="path16"
         inkscape:connector-curvature="0" /></clipPath></defs><sodipodi:namedview
     pagecolor="#ffffff"
     bordercolor="#666666"
     borderopacity="1"
     objecttolerance="10"
     gridtolerance="10"
     guidetolerance="10"
     inkscape:pageopacity="0"
     inkscape:pageshadow="2"
     inkscape:window-width="732"
     inkscape:window-height="480"
     id="namedview4"
     showgrid="false"
     inkscape:zoom="0.40912275"
     inkscape:cx="468.07468"
     inkscape:cy="151.468"
     inkscape:window-x="0"
     inkscape:window-y="0"
     inkscape:window-maximized="0"
     inkscape:current-layer="g10" /><g
     id="g10"
     inkscape:groupmode="layer"
     inkscape:label="Logo_icon_bonusbasmati"
     transform="matrix(1.3333333,0,0,-1.3333333,0,302.936)"><g
       id="g12"><g
         id="g14"
         clip-path="url(#clipPath18)"><g
           id="g20"
           transform="translate(262.1648,79.2603)"><path
             d="M 0,0 H 1.662 C 4.759,0 4.985,1.888 4.985,4.532 4.985,7.215 4.494,8.611 1.7,8.611 H 0 Z m 0,12.012 h 1.737 c 2.568,0 3.248,1.322 3.248,3.778 0,2.379 -0.868,3.626 -3.399,3.626 H 0 Z m -3.853,11.03 h 5.628 c 4.985,0 6.836,-3.287 6.836,-6.799 V 15.26 C 8.611,12.389 7.668,11.332 5.968,10.274 7.781,9.405 8.611,7.781 8.611,4.985 v -1.51 c 0,-4.684 -2.228,-7.328 -7.214,-7.328 h -5.25 z"
             style="fill:#577796;fill-opacity:1;fill-rule:nonzero;stroke:none"
             id="path22"
             inkscape:connector-curvature="0" /></g><g
           id="g24"
           transform="translate(281.467,83.6411)"><path
             d="m 0,0 c -0.415,0.076 -0.717,0.114 -1.057,0.114 -1.662,0 -3.022,-0.681 -3.022,-2.72 0,-1.473 0.756,-2.455 2.002,-2.455 1.285,0 2.077,0.906 2.077,2.455 z m 0,-6.27 h -0.076 c -1.019,-1.398 -1.849,-2.191 -3.7,-2.191 -1.776,0 -4.157,0.869 -4.157,5.1 0,4.382 1.247,6.496 6.082,6.496 0.529,0 1.059,-0.075 1.851,-0.113 V 5.024 C 0,6.309 -0.491,7.29 -1.925,7.29 -2.908,7.29 -3.89,6.61 -4.117,5.365 h -3.74 c 0.114,1.7 0.718,3.134 1.738,4.155 1.02,1.019 2.455,1.624 4.194,1.624 3.209,0 5.778,-2.04 5.778,-6.044 V -8.234 H 0 Z"
             style="fill:#577796;fill-opacity:1;fill-rule:nonzero;stroke:none"
             id="path26"
             inkscape:connector-curvature="0" /></g><g
           id="g28"
           transform="translate(287.9284,102.3024)"><path
             d="m 0,0 h 3.852 v -21.494 c 0,-1.436 0.416,-1.851 1.889,-2.002 v -3.627 C 2.19,-27.123 0,-26.215 0,-21.758 Z"
             style="fill:#577796;fill-opacity:1;fill-rule:nonzero;stroke:none"
             id="path30"
             inkscape:connector-curvature="0" /></g><g
           id="g32"
           transform="translate(295.1797,100.3757)"><path
             d="m 0,0 h 3.853 v -5.818 h 2.38 V -8.84 h -2.38 v -10.614 c 0,-1.775 0.68,-1.888 2.38,-1.888 v -3.627 H 4.647 C 1.171,-24.969 0,-22.513 0,-20.473 V -8.84 h -1.925 v 3.022 H 0 Z"
             style="fill:#577796;fill-opacity:1;fill-rule:nonzero;stroke:none"
             id="path34"
             inkscape:connector-curvature="0" /></g><path
           d="m 302.885,94.558 h 3.853 V 75.407 h -3.853 z m 0,7.744 h 3.853 v -3.853 h -3.853 z"
           style="fill:#577796;fill-opacity:1;fill-rule:nonzero;stroke:none"
           id="path36"
           inkscape:connector-curvature="0" /><g
           id="g38"
           transform="translate(313.9923,80.9221)"><path
             d="m 0,0 c 0,-1.209 0.717,-1.889 1.888,-1.889 1.473,0 1.814,1.095 1.888,1.927 H 7.63 C 7.63,-1.549 7.063,-3.022 6.082,-4.041 5.061,-5.1 3.664,-5.742 1.888,-5.742 c -2.342,0 -4.117,1.096 -5.023,2.758 -0.529,0.982 -0.718,2.342 -0.718,3.89 v 6.309 c 0,1.548 0.189,2.908 0.718,3.89 0.906,1.663 2.681,2.758 5.023,2.758 3.551,0 5.742,-2.569 5.742,-6.12 H 3.776 c 0,1.55 -0.716,2.266 -1.888,2.266 C 0.717,10.009 0,9.255 0,7.819 Z"
             style="fill:#577796;fill-opacity:1;fill-rule:nonzero;stroke:none"
             id="path40"
             inkscape:connector-curvature="0" /></g><g
           id="g42"
           transform="translate(343.6069,94.5578)"><path
             d="m 0,0 h -3.852 v 0.869 c 0,1.776 -0.756,3.249 -2.72,3.249 -2.115,0 -2.606,-1.7 -2.606,-3.476 0,-2.077 0.188,-2.795 2.19,-3.588 l 2.947,-1.171 C -0.642,-5.402 0,-7.554 0,-11.483 c 0,-4.532 -1.662,-7.895 -6.648,-7.895 -3.739,0 -6.573,2.758 -6.573,6.384 v 1.435 h 3.854 v -1.209 c 0,-1.396 0.756,-2.757 2.719,-2.757 2.607,0 2.796,1.549 2.796,4.004 0,2.872 -0.341,3.325 -2.23,4.08 l -2.757,1.133 c -3.323,1.359 -4.192,3.551 -4.192,6.912 0,4.081 2.19,7.366 6.61,7.366 C -2.568,7.97 0,4.873 0,1.889 Z"
             style="fill:#577796;fill-opacity:1;fill-rule:nonzero;stroke:none"
             id="path44"
             inkscape:connector-curvature="0" /></g><g
           id="g46"
           transform="translate(349.7654,86.5507)"><path
             d="M 0,0 H 3.776 V 2.19 C 3.776,3.626 3.059,4.381 1.888,4.381 0.717,4.381 0,3.626 0,2.19 Z m 0,-3.022 v -2.607 c 0,-1.208 0.717,-1.888 1.888,-1.888 1.473,0 1.813,1.095 1.888,1.926 H 7.63 c 0,-1.587 -0.567,-3.06 -1.548,-4.079 -1.021,-1.059 -2.418,-1.701 -4.194,-1.701 -2.342,0 -4.117,1.097 -5.023,2.758 -0.529,0.982 -0.718,2.342 -0.718,3.89 v 6.309 c 0,1.548 0.189,2.908 0.718,3.89 0.906,1.663 2.681,2.758 5.023,2.758 3.551,0 5.742,-2.607 5.742,-5.968 v -5.288 z"
             style="fill:#577796;fill-opacity:1;fill-rule:nonzero;stroke:none"
             id="path48"
             inkscape:connector-curvature="0" /></g><g
           id="g50"
           transform="translate(367.5183,83.6411)"><path
             d="m 0,0 c -0.415,0.076 -0.717,0.114 -1.057,0.114 -1.662,0 -3.022,-0.681 -3.022,-2.72 0,-1.473 0.756,-2.455 2.002,-2.455 1.285,0 2.077,0.906 2.077,2.455 z m 0,-6.27 h -0.076 c -1.019,-1.398 -1.849,-2.191 -3.7,-2.191 -1.776,0 -4.157,0.869 -4.157,5.1 0,4.382 1.247,6.496 6.082,6.496 0.529,0 1.059,-0.075 1.851,-0.113 V 5.024 C 0,6.309 -0.491,7.29 -1.925,7.29 -2.908,7.29 -3.89,6.61 -4.117,5.365 h -3.74 c 0.114,1.7 0.718,3.134 1.737,4.155 1.021,1.019 2.456,1.624 4.195,1.624 3.209,0 5.778,-2.04 5.778,-6.044 V -8.234 H 0 Z"
             style="fill:#577796;fill-opacity:1;fill-rule:nonzero;stroke:none"
             id="path52"
             inkscape:connector-curvature="0" /></g><g
           id="g54"
           transform="translate(381.458,102.3024)"><path
             d="M 0,0 H 3.702 L 8.651,-14.241 H 8.726 L 13.636,0 h 3.74 v -26.895 h -3.853 v 16.356 H 13.448 L 9.632,-22.098 H 7.706 L 3.929,-10.539 H 3.853 V -26.895 H 0 Z"
             style="fill:#577796;fill-opacity:1;fill-rule:nonzero;stroke:none"
             id="path56"
             inkscape:connector-curvature="0" /></g><g
           id="g58"
           transform="translate(409.5256,83.6411)"><path
             d="m 0,0 c -0.415,0.076 -0.718,0.114 -1.057,0.114 -1.662,0 -3.022,-0.681 -3.022,-2.72 0,-1.473 0.756,-2.455 2.002,-2.455 1.285,0 2.077,0.906 2.077,2.455 z m 0,-6.27 h -0.076 c -1.019,-1.398 -1.851,-2.191 -3.7,-2.191 -1.777,0 -4.157,0.869 -4.157,5.1 0,4.382 1.247,6.496 6.082,6.496 0.53,0 1.059,-0.075 1.851,-0.113 V 5.024 C 0,6.309 -0.491,7.29 -1.927,7.29 -2.908,7.29 -3.89,6.61 -4.117,5.365 h -3.74 c 0.114,1.7 0.718,3.134 1.737,4.155 1.021,1.019 2.456,1.624 4.193,1.624 3.211,0 5.78,-2.04 5.78,-6.044 V -8.234 H 0 Z"
             style="fill:#577796;fill-opacity:1;fill-rule:nonzero;stroke:none"
             id="path60"
             inkscape:connector-curvature="0" /></g><g
           id="g62"
           transform="translate(416.2116,94.5578)"><path
             d="m 0,0 h 3.853 v -2.039 c 1.586,1.397 2.871,2.266 5.1,2.266 v -4.079 c -0.378,0.15 -0.755,0.226 -1.171,0.226 -1.625,0 -3.929,-1.02 -3.929,-4.155 v -11.37 H 0 Z"
             style="fill:#577796;fill-opacity:1;fill-rule:nonzero;stroke:none"
             id="path64"
             inkscape:connector-curvature="0" /></g><path
           d="m 426.713,94.558 h 3.853 V 75.407 h -3.853 z m 0,7.744 h 3.853 v -3.853 h -3.853 z"
           style="fill:#577796;fill-opacity:1;fill-rule:nonzero;stroke:none"
           id="path66"
           inkscape:connector-curvature="0" /><g
           id="g68"
           transform="translate(433.7398,100.3757)"><path
             d="m 0,0 h 3.853 v -5.818 h 2.38 V -8.84 h -2.38 v -10.614 c 0,-1.775 0.68,-1.888 2.38,-1.888 v -3.627 H 4.647 C 1.171,-24.969 0,-22.513 0,-20.473 V -8.84 h -1.925 v 3.022 H 0 Z"
             style="fill:#577796;fill-opacity:1;fill-rule:nonzero;stroke:none"
             id="path70"
             inkscape:connector-curvature="0" /></g><path
           d="m 441.445,94.558 h 3.853 V 75.407 h -3.853 z m 0,7.744 h 3.853 v -3.853 h -3.853 z"
           style="fill:#577796;fill-opacity:1;fill-rule:nonzero;stroke:none"
           id="path72"
           inkscape:connector-curvature="0" /><g
           id="g74"
           transform="translate(448.4707,94.5578)"><path
             d="m 0,0 h 3.853 v -1.851 h 0.076 c 0.794,1.209 1.851,2.078 3.626,2.078 1.662,0 2.757,-0.982 3.437,-1.927 0.945,1.058 1.965,1.927 4.005,1.927 1.926,0 4.193,-1.247 4.193,-4.684 v -14.694 h -3.853 v 13.259 c 0,1.398 -0.681,2.266 -1.889,2.266 -1.435,0 -1.927,-0.944 -1.927,-2.644 V -19.151 H 7.669 v 13.259 c 0,1.398 -0.68,2.266 -1.889,2.266 -1.436,0 -1.927,-0.944 -1.927,-2.644 V -19.151 H 0 Z"
             style="fill:#577796;fill-opacity:1;fill-rule:nonzero;stroke:none"
             id="path76"
             inkscape:connector-curvature="0" /></g><g
           id="g78"
           transform="translate(474.3491,86.5507)"><path
             d="M 0,0 H 3.776 V 2.19 C 3.776,3.626 3.06,4.381 1.888,4.381 0.717,4.381 0,3.626 0,2.19 Z m 0,-3.022 v -2.607 c 0,-1.208 0.717,-1.888 1.888,-1.888 1.473,0 1.813,1.095 1.888,1.926 h 3.853 c 0,-1.587 -0.566,-3.06 -1.549,-4.079 -1.019,-1.059 -2.417,-1.701 -4.192,-1.701 -2.342,0 -4.117,1.097 -5.023,2.758 -0.529,0.982 -0.718,2.342 -0.718,3.89 v 6.309 c 0,1.548 0.189,2.908 0.718,3.89 0.906,1.663 2.681,2.758 5.023,2.758 3.551,0 5.741,-2.607 5.741,-5.968 v -5.288 z"
             style="fill:#577796;fill-opacity:1;fill-rule:nonzero;stroke:none"
             id="path80"
             inkscape:connector-curvature="0" /></g><g
           id="g82"
           transform="translate(504.5295,94.5578)"><path
             d="m 0,0 h -3.853 v 0.869 c 0,1.776 -0.755,3.249 -2.721,3.249 -2.114,0 -2.605,-1.7 -2.605,-3.476 0,-2.077 0.188,-2.795 2.19,-3.588 l 2.948,-1.171 C -0.642,-5.402 0,-7.554 0,-11.483 c 0,-4.532 -1.663,-7.895 -6.649,-7.895 -3.739,0 -6.572,2.758 -6.572,6.384 v 1.435 h 3.854 v -1.209 c 0,-1.396 0.754,-2.757 2.718,-2.757 2.608,0 2.796,1.549 2.796,4.004 0,2.872 -0.34,3.325 -2.23,4.08 l -2.757,1.133 c -3.323,1.359 -4.193,3.551 -4.193,6.912 0,4.081 2.191,7.366 6.611,7.366 C -2.569,7.97 0,4.873 0,1.889 Z"
             style="fill:#577796;fill-opacity:1;fill-rule:nonzero;stroke:none"
             id="path84"
             inkscape:connector-curvature="0" /></g><g
           id="g86"
           transform="translate(514.8442,88.326)"><path
             d="m 0,0 c 0,1.548 -0.567,2.606 -1.89,2.606 -1.17,0 -1.927,-0.982 -1.927,-2.38 v -7.441 c 0,-1.208 0.833,-2.078 1.927,-2.078 1.472,0 1.89,1.058 1.89,2.266 z m -7.67,6.232 h 3.853 V 4.494 c 0.982,1.096 1.739,1.965 3.666,1.965 1.548,0 2.681,-0.567 3.36,-1.813 C 3.663,3.814 3.851,2.643 3.851,0.529 v -7.291 c 0,-2.758 -0.112,-3.853 -0.603,-4.645 -0.642,-1.021 -1.587,-1.739 -3.438,-1.739 -1.51,0 -2.718,0.718 -3.551,1.964 h -0.076 v -9.48 H -7.67 Z"
             style="fill:#577796;fill-opacity:1;fill-rule:nonzero;stroke:none"
             id="path88"
             inkscape:connector-curvature="0" /></g><g
           id="g90"
           transform="translate(529.1589,83.6411)"><path
             d="m 0,0 c -0.415,0.076 -0.716,0.114 -1.057,0.114 -1.661,0 -3.021,-0.681 -3.021,-2.72 0,-1.473 0.755,-2.455 2.002,-2.455 1.285,0 2.076,0.906 2.076,2.455 z m 0,-6.27 h -0.076 c -1.018,-1.398 -1.848,-2.191 -3.699,-2.191 -1.776,0 -4.156,0.869 -4.156,5.1 0,4.382 1.245,6.496 6.08,6.496 0.53,0 1.06,-0.075 1.851,-0.113 L 0,5.024 C 0,6.309 -0.491,7.29 -1.924,7.29 -2.908,7.29 -3.89,6.61 -4.117,5.365 h -3.739 c 0.113,1.7 0.718,3.134 1.736,4.155 1.021,1.019 2.457,1.624 4.196,1.624 3.208,0 5.777,-2.04 5.777,-6.044 V -8.234 H 0 Z"
             style="fill:#577796;fill-opacity:1;fill-rule:nonzero;stroke:none"
             id="path92"
             inkscape:connector-curvature="0" /></g><g
           id="g94"
           transform="translate(535.8448,100.3757)"><path
             d="M 0,0 H 3.853 V -5.818 H 6.234 V -8.84 H 3.853 v -10.614 c 0,-1.775 0.682,-1.888 2.381,-1.888 v -3.627 H 4.647 C 1.172,-24.969 0,-22.513 0,-20.473 V -8.84 h -1.924 v 3.022 H 0 Z"
             style="fill:#577796;fill-opacity:1;fill-rule:nonzero;stroke:none"
             id="path96"
             inkscape:connector-curvature="0" /></g><path
           d="m 543.552,94.558 h 3.853 V 75.407 h -3.853 z m 0,7.744 h 3.853 v -3.853 h -3.853 z"
           style="fill:#577796;fill-opacity:1;fill-rule:nonzero;stroke:none"
           id="path98"
           inkscape:connector-curvature="0" /><g
           id="g100"
           transform="translate(557.8687,83.6411)"><path
             d="m 0,0 c -0.415,0.076 -0.718,0.114 -1.057,0.114 -1.663,0 -3.024,-0.681 -3.024,-2.72 0,-1.473 0.758,-2.455 2.003,-2.455 1.284,0 2.078,0.906 2.078,2.455 z m 0,-6.27 h -0.076 c -1.02,-1.398 -1.851,-2.191 -3.702,-2.191 -1.775,0 -4.156,0.869 -4.156,5.1 0,4.382 1.248,6.496 6.083,6.496 0.53,0 1.057,-0.075 1.851,-0.113 L 0,5.024 C 0,6.309 -0.491,7.29 -1.927,7.29 -2.908,7.29 -3.89,6.61 -4.117,5.365 h -3.741 c 0.115,1.7 0.718,3.134 1.738,4.155 1.021,1.019 2.455,1.624 4.193,1.624 3.211,0 5.78,-2.04 5.78,-6.044 V -8.234 H 0 Z"
             style="fill:#577796;fill-opacity:1;fill-rule:nonzero;stroke:none"
             id="path102"
             inkscape:connector-curvature="0" /></g><g
           id="g104"
           transform="translate(564.33,102.3024)"><path
             d="m 0,0 h 3.851 v -21.494 c 0,-1.436 0.417,-1.851 1.89,-2.002 v -3.627 C 2.19,-27.123 0,-26.215 0,-21.758 Z"
             style="fill:#577796;fill-opacity:1;fill-rule:nonzero;stroke:none"
             id="path106"
             inkscape:connector-curvature="0" /></g><g
           id="g108"
           transform="translate(582.686,89.5347)"><path
             d="m 0,0 h 1.851 c 3.135,0 3.172,1.851 3.172,4.532 0,2.531 0,4.609 -3.021,4.609 H 0 Z m -3.853,12.768 h 5.78 c 2.114,0 3.663,-0.492 4.986,-1.889 C 8.234,9.481 8.649,7.781 8.649,4.57 8.649,2.228 8.461,0.642 7.555,-0.831 6.498,-2.569 4.798,-3.626 1.963,-3.626 H 0 v -10.502 h -3.853 z"
             style="fill:#577796;fill-opacity:1;fill-rule:nonzero;stroke:none"
             id="path110"
             inkscape:connector-curvature="0" /></g><g
           id="g112"
           transform="translate(593.7552,102.3024)"><path
             d="m 0,0 h 3.853 v -21.494 c 0,-1.436 0.415,-1.851 1.888,-2.002 v -3.627 C 2.19,-27.123 0,-26.215 0,-21.758 Z"
             style="fill:#577796;fill-opacity:1;fill-rule:nonzero;stroke:none"
             id="path114"
             inkscape:connector-curvature="0" /></g><g
           id="g116"
           transform="translate(608.2969,83.6411)"><path
             d="m 0,0 c -0.415,0.076 -0.715,0.114 -1.057,0.114 -1.661,0 -3.021,-0.681 -3.021,-2.72 0,-1.473 0.755,-2.455 2.002,-2.455 1.285,0 2.076,0.906 2.076,2.455 z m 0,-6.27 h -0.076 c -1.018,-1.398 -1.848,-2.191 -3.699,-2.191 -1.775,0 -4.156,0.869 -4.156,5.1 0,4.382 1.245,6.496 6.08,6.496 0.53,0 1.06,-0.075 1.851,-0.113 L 0,5.024 C 0,6.309 -0.491,7.29 -1.924,7.29 -2.908,7.29 -3.89,6.61 -4.117,5.365 h -3.739 c 0.113,1.7 0.718,3.134 1.737,4.155 1.02,1.019 2.456,1.624 4.195,1.624 3.208,0 5.777,-2.04 5.777,-6.044 V -8.234 H 0 Z"
             style="fill:#577796;fill-opacity:1;fill-rule:nonzero;stroke:none"
             id="path118"
             inkscape:connector-curvature="0" /></g><g
           id="g120"
           transform="translate(614.9854,94.5578)"><path
             d="m 0,0 h 3.853 v -1.851 h 0.076 c 0.794,1.209 1.851,2.078 3.626,2.078 1.927,0 3.966,-1.247 3.966,-4.684 V -19.151 H 7.668 v 13.259 c 0,1.398 -0.679,2.266 -1.888,2.266 -1.436,0 -1.927,-0.944 -1.927,-2.644 V -19.151 H 0 Z"
             style="fill:#577796;fill-opacity:1;fill-rule:nonzero;stroke:none"
             id="path122"
             inkscape:connector-curvature="0" /></g><g
           id="g124"
           transform="translate(629.6785,94.5578)"><path
             d="m 0,0 h 3.853 v -1.851 h 0.076 c 0.794,1.209 1.851,2.078 3.626,2.078 1.927,0 3.966,-1.247 3.966,-4.684 V -19.151 H 7.67 v 13.259 c 0,1.398 -0.681,2.266 -1.89,2.266 -1.436,0 -1.927,-0.944 -1.927,-2.644 V -19.151 H 0 Z"
             style="fill:#577796;fill-opacity:1;fill-rule:nonzero;stroke:none"
             id="path126"
             inkscape:connector-curvature="0" /></g><path
           d="m 644.374,94.558 h 3.853 V 75.407 h -3.853 z m 0,7.744 h 3.853 v -3.853 h -3.853 z"
           style="fill:#577796;fill-opacity:1;fill-rule:nonzero;stroke:none"
           id="path128"
           inkscape:connector-curvature="0" /><g
           id="g130"
           transform="translate(651.3995,94.5578)"><path
             d="m 0,0 h 3.853 v -1.851 h 0.076 c 0.794,1.209 1.851,2.078 3.626,2.078 1.927,0 3.966,-1.247 3.966,-4.684 V -19.151 H 7.668 v 13.259 c 0,1.398 -0.679,2.266 -1.888,2.266 -1.436,0 -1.927,-0.944 -1.927,-2.644 V -19.151 H 0 Z"
             style="fill:#577796;fill-opacity:1;fill-rule:nonzero;stroke:none"
             id="path132"
             inkscape:connector-curvature="0" /></g><g
           id="g134"
           transform="translate(669.9484,81.2993)"><path
             d="m 0,0 c 0,-1.209 0.415,-2.266 1.888,-2.266 1.096,0 1.926,0.869 1.926,2.078 V 7.253 C 3.814,8.651 3.06,9.632 1.888,9.632 0.567,9.632 0,8.575 0,7.027 Z m 0,-8.121 c 0.037,-0.907 0.718,-1.888 2.039,-1.888 1.248,0 1.775,0.868 1.775,2.076 v 3.778 H 3.739 C 2.908,-5.402 1.7,-6.119 0.151,-6.119 c -1.55,0 -2.683,0.566 -3.362,1.813 -0.454,0.831 -0.642,2.002 -0.642,4.118 v 7.289 c 0,2.758 0.112,3.853 0.603,4.647 0.642,1.02 1.587,1.738 3.438,1.738 1.89,0 2.645,-0.87 3.626,-1.965 v 1.737 H 7.668 V -8.234 c 0,-2.607 -1.7,-5.629 -5.78,-5.629 -2.342,0 -5.251,1.36 -5.741,5.742 z"
             style="fill:#577796;fill-opacity:1;fill-rule:nonzero;stroke:none"
             id="path136"
             inkscape:connector-curvature="0" /></g><g
           id="g138"
           transform="translate(258.5764,55.2781)"><path
             d="M 0,0 H -1.889 V 3.022 H 0 v 2.607 c 0,3.702 2.455,5.137 4.947,5.137 H 6.723 V 7.14 H 4.985 C 4.267,7.14 3.852,6.648 3.852,5.818 V 3.022 H 6.723 V 0 H 3.852 V -16.129 H 0 Z"
             style="fill:#577796;fill-opacity:1;fill-rule:nonzero;stroke:none"
             id="path140"
             inkscape:connector-curvature="0" /></g><g
           id="g142"
           transform="translate(269.9839,44.9658)"><path
             d="m 0,0 c 0,-1.435 0.717,-2.19 1.888,-2.19 1.172,0 1.888,0.755 1.888,2.19 V 7.517 C 3.776,8.953 3.06,9.708 1.888,9.708 0.717,9.708 0,8.953 0,7.517 Z m -3.853,6.913 c 0,1.548 0.189,2.908 0.718,3.89 0.906,1.663 2.681,2.758 5.023,2.758 2.343,0 4.118,-1.095 5.024,-2.758 C 7.441,9.821 7.63,8.461 7.63,6.913 V 0.604 c 0,-1.548 -0.189,-2.908 -0.718,-3.89 -0.906,-1.661 -2.681,-2.758 -5.024,-2.758 -2.342,0 -4.117,1.097 -5.023,2.758 -0.529,0.982 -0.718,2.342 -0.718,3.89 z"
             style="fill:#577796;fill-opacity:1;fill-rule:nonzero;stroke:none"
             id="path144"
             inkscape:connector-curvature="0" /></g><g
           id="g146"
           transform="translate(280.4475,58.3)"><path
             d="m 0,0 h 3.853 v -2.039 c 1.586,1.397 2.871,2.266 5.1,2.266 v -4.079 c -0.378,0.15 -0.755,0.226 -1.171,0.226 -1.625,0 -3.929,-1.02 -3.929,-4.155 v -11.37 H 0 Z"
             style="fill:#577796;fill-opacity:1;fill-rule:nonzero;stroke:none"
             id="path148"
             inkscape:connector-curvature="0" /></g><g
           id="g150"
           transform="translate(311.4222,58.3)"><path
             d="m 0,0 h -3.852 v 0.869 c 0,1.776 -0.756,3.249 -2.72,3.249 -2.115,0 -2.606,-1.7 -2.606,-3.476 0,-2.077 0.188,-2.795 2.19,-3.588 l 2.947,-1.171 C -0.642,-5.402 0,-7.554 0,-11.483 c 0,-4.532 -1.662,-7.895 -6.648,-7.895 -3.739,0 -6.573,2.758 -6.573,6.384 v 1.435 h 3.854 v -1.209 c 0,-1.396 0.756,-2.757 2.719,-2.757 2.607,0 2.796,1.549 2.796,4.004 0,2.872 -0.341,3.325 -2.23,4.08 l -2.757,1.133 c -3.323,1.359 -4.192,3.551 -4.192,6.912 0,4.081 2.19,7.366 6.61,7.366 C -2.568,7.97 0,4.873 0,1.889 Z"
             style="fill:#577796;fill-opacity:1;fill-rule:nonzero;stroke:none"
             id="path152"
             inkscape:connector-curvature="0" /></g><g
           id="g154"
           transform="translate(325.5879,39.1492)"><path
             d="m 0,0 h -3.852 v 1.851 h -0.076 c -0.793,-1.209 -1.851,-2.078 -3.626,-2.078 -1.927,0 -3.967,1.247 -3.967,4.685 v 14.693 h 3.853 V 5.892 c 0,-1.396 0.68,-2.266 1.889,-2.266 1.436,0 1.927,0.944 1.927,2.645 v 12.88 H 0 Z"
             style="fill:#577796;fill-opacity:1;fill-rule:nonzero;stroke:none"
             id="path156"
             inkscape:connector-curvature="0" /></g><g
           id="g158"
           transform="translate(335.75,52.9363)"><path
             d="m 0,0 c -0.038,1.284 -0.945,1.965 -1.965,1.965 -1.208,0 -1.888,-0.944 -1.888,-1.927 0,-0.718 0.189,-1.398 1.624,-1.965 l 2.267,-0.906 c 2.87,-1.095 3.776,-3.135 3.776,-5.401 0,-3.173 -2.417,-5.78 -5.741,-5.78 -3.022,0 -5.59,2.002 -5.741,5.78 h 3.627 c 0.15,-1.058 0.641,-2.154 2.076,-2.154 1.096,0 2.153,0.794 2.153,2.078 0,1.057 -0.453,1.775 -1.925,2.342 l -1.851,0.68 C -6.006,-4.382 -7.48,-2.569 -7.48,0 c 0,3.249 2.569,5.591 5.667,5.591 3.135,0 5.401,-2.418 5.439,-5.591 z"
             style="fill:#577796;fill-opacity:1;fill-rule:nonzero;stroke:none"
             id="path160"
             inkscape:connector-curvature="0" /></g><g
           id="g162"
           transform="translate(342.0587,64.1179)"><path
             d="m 0,0 h 3.853 v -5.818 h 2.38 V -8.84 h -2.38 v -10.614 c 0,-1.775 0.68,-1.888 2.38,-1.888 v -3.627 H 4.647 C 1.171,-24.969 0,-22.513 0,-20.473 V -8.84 h -1.925 v 3.022 H 0 Z"
             style="fill:#577796;fill-opacity:1;fill-rule:nonzero;stroke:none"
             id="path164"
             inkscape:connector-curvature="0" /></g><g
           id="g166"
           transform="translate(357.0546,47.3833)"><path
             d="m 0,0 c -0.415,0.076 -0.717,0.114 -1.057,0.114 -1.662,0 -3.022,-0.681 -3.022,-2.72 0,-1.473 0.756,-2.455 2.002,-2.455 1.285,0 2.077,0.906 2.077,2.455 z m 0,-6.27 h -0.076 c -1.019,-1.398 -1.849,-2.191 -3.7,-2.191 -1.776,0 -4.157,0.869 -4.157,5.1 0,4.382 1.247,6.496 6.082,6.496 0.529,0 1.059,-0.075 1.851,-0.113 V 5.024 C 0,6.309 -0.491,7.29 -1.925,7.29 -2.908,7.29 -3.89,6.61 -4.117,5.365 h -3.74 c 0.114,1.7 0.718,3.134 1.738,4.155 1.02,1.019 2.455,1.624 4.194,1.624 3.209,0 5.778,-2.04 5.778,-6.044 V -8.234 H 0 Z"
             style="fill:#577796;fill-opacity:1;fill-rule:nonzero;stroke:none"
             id="path168"
             inkscape:connector-curvature="0" /></g><path
           d="m 363.742,58.3 h 3.853 V 39.149 h -3.853 z m 0,7.745 h 3.853 v -3.853 h -3.853 z"
           style="fill:#577796;fill-opacity:1;fill-rule:nonzero;stroke:none"
           id="path170"
           inkscape:connector-curvature="0" /><g
           id="g172"
           transform="translate(370.7672,58.3)"><path
             d="m 0,0 h 3.853 v -1.851 h 0.076 c 0.794,1.209 1.851,2.078 3.626,2.078 1.927,0 3.966,-1.247 3.966,-4.684 V -19.151 H 7.669 v 13.259 c 0,1.398 -0.68,2.266 -1.889,2.266 -1.436,0 -1.927,-0.944 -1.927,-2.644 V -19.151 H 0 Z"
             style="fill:#577796;fill-opacity:1;fill-rule:nonzero;stroke:none"
             id="path174"
             inkscape:connector-curvature="0" /></g><g
           id="g176"
           transform="translate(392.752,47.3833)"><path
             d="m 0,0 c -0.415,0.076 -0.718,0.114 -1.057,0.114 -1.662,0 -3.022,-0.681 -3.022,-2.72 0,-1.473 0.756,-2.455 2.002,-2.455 1.285,0 2.077,0.906 2.077,2.455 z m 0,-6.27 h -0.076 c -1.019,-1.398 -1.851,-2.191 -3.7,-2.191 -1.777,0 -4.157,0.869 -4.157,5.1 0,4.382 1.247,6.496 6.082,6.496 0.53,0 1.059,-0.075 1.851,-0.113 V 5.024 C 0,6.309 -0.491,7.29 -1.927,7.29 -2.908,7.29 -3.89,6.61 -4.117,5.365 h -3.74 c 0.114,1.7 0.718,3.134 1.738,4.155 1.02,1.019 2.455,1.624 4.192,1.624 3.211,0 5.78,-2.04 5.78,-6.044 V -8.234 H 0 Z"
             style="fill:#577796;fill-opacity:1;fill-rule:nonzero;stroke:none"
             id="path178"
             inkscape:connector-curvature="0" /></g><g
           id="g180"
           transform="translate(407.1081,52.4076)"><path
             d="m 0,0 c 0,1.209 -0.416,2.266 -1.889,2.266 -1.095,0 -1.926,-0.868 -1.926,-2.077 v -7.442 c 0,-1.398 0.755,-2.379 1.926,-2.379 1.322,0 1.889,1.057 1.889,2.607 z m -7.669,13.637 h 3.854 V 4.155 h 0.075 c 0.832,1.247 2.04,1.964 3.551,1.964 1.851,0 2.795,-0.717 3.437,-1.737 0.491,-0.794 0.604,-1.889 0.604,-4.647 v -7.289 c 0,-2.116 -0.188,-3.287 -0.642,-4.118 -0.68,-1.247 -1.813,-1.814 -3.361,-1.814 -1.927,0 -2.683,0.87 -3.664,1.965 v -1.737 h -3.854 z"
             style="fill:#577796;fill-opacity:1;fill-rule:nonzero;stroke:none"
             id="path182"
             inkscape:connector-curvature="0" /></g><g
           id="g184"
           transform="translate(413.9076,66.0446)"><path
             d="m 0,0 h 3.852 v -21.494 c 0,-1.436 0.416,-1.851 1.889,-2.002 v -3.627 C 2.19,-27.123 0,-26.215 0,-21.758 Z"
             style="fill:#577796;fill-opacity:1;fill-rule:nonzero;stroke:none"
             id="path186"
             inkscape:connector-curvature="0" /></g><g
           id="g188"
           transform="translate(424.6729,50.2929)"><path
             d="M 0,0 H 3.776 V 2.19 C 3.776,3.626 3.06,4.381 1.888,4.381 0.717,4.381 0,3.626 0,2.19 Z m 0,-3.022 v -2.607 c 0,-1.208 0.717,-1.888 1.888,-1.888 1.473,0 1.813,1.095 1.888,1.926 H 7.63 c 0,-1.587 -0.567,-3.06 -1.55,-4.079 -1.019,-1.059 -2.417,-1.701 -4.192,-1.701 -2.342,0 -4.117,1.097 -5.023,2.758 -0.529,0.982 -0.718,2.342 -0.718,3.89 v 6.309 c 0,1.548 0.189,2.908 0.718,3.89 0.906,1.663 2.681,2.758 5.023,2.758 3.551,0 5.742,-2.607 5.742,-5.968 v -5.288 z"
             style="fill:#577796;fill-opacity:1;fill-rule:nonzero;stroke:none"
             id="path190"
             inkscape:connector-curvature="0" /></g><g
           id="g192"
           transform="translate(443.9007,66.0446)"><path
             d="m 0,0 h 11.483 v -3.626 h -7.63 v -7.895 h 6.649 v -3.626 H 3.853 v -7.895 h 7.63 v -3.853 H 0 Z"
             style="fill:#577796;fill-opacity:1;fill-rule:nonzero;stroke:none"
             id="path194"
             inkscape:connector-curvature="0" /></g><g
           id="g196"
           transform="translate(461.7304,44.6643)"><path
             d="m 0,0 c 0,-1.209 0.717,-1.889 1.889,-1.889 1.472,0 1.812,1.095 1.887,1.927 H 7.63 C 7.63,-1.549 7.063,-3.022 6.082,-4.041 5.061,-5.1 3.664,-5.742 1.889,-5.742 c -2.343,0 -4.118,1.096 -5.024,2.758 -0.529,0.982 -0.718,2.342 -0.718,3.89 v 6.309 c 0,1.548 0.189,2.908 0.718,3.89 0.906,1.663 2.681,2.758 5.024,2.758 3.55,0 5.741,-2.569 5.741,-6.12 H 3.776 c 0,1.55 -0.716,2.266 -1.887,2.266 C 0.717,10.009 0,9.255 0,7.819 Z"
             style="fill:#577796;fill-opacity:1;fill-rule:nonzero;stroke:none"
             id="path198"
             inkscape:connector-curvature="0" /></g><g
           id="g200"
           transform="translate(475.1415,44.9658)"><path
             d="m 0,0 c 0,-1.435 0.717,-2.19 1.888,-2.19 1.171,0 1.888,0.755 1.888,2.19 V 7.517 C 3.776,8.953 3.059,9.708 1.888,9.708 0.717,9.708 0,8.953 0,7.517 Z m -3.853,6.913 c 0,1.548 0.189,2.908 0.718,3.89 0.906,1.663 2.681,2.758 5.023,2.758 2.343,0 4.118,-1.095 5.024,-2.758 C 7.44,9.821 7.63,8.461 7.63,6.913 V 0.604 c 0,-1.548 -0.19,-2.908 -0.718,-3.89 -0.906,-1.661 -2.681,-2.758 -5.024,-2.758 -2.342,0 -4.117,1.097 -5.023,2.758 -0.529,0.982 -0.718,2.342 -0.718,3.89 z"
             style="fill:#577796;fill-opacity:1;fill-rule:nonzero;stroke:none"
             id="path202"
             inkscape:connector-curvature="0" /></g><g
           id="g204"
           transform="translate(492.5934,52.9363)"><path
             d="m 0,0 c -0.039,1.284 -0.945,1.965 -1.966,1.965 -1.209,0 -1.887,-0.944 -1.887,-1.927 0,-0.718 0.188,-1.398 1.624,-1.965 l 2.266,-0.906 c 2.871,-1.095 3.777,-3.135 3.777,-5.401 0,-3.173 -2.417,-5.78 -5.741,-5.78 -3.023,0 -5.592,2.002 -5.741,5.78 h 3.627 c 0.149,-1.058 0.639,-2.154 2.075,-2.154 1.097,0 2.154,0.794 2.154,2.078 0,1.057 -0.454,1.775 -1.927,2.342 l -1.851,0.68 c -2.417,0.906 -3.89,2.719 -3.89,5.288 0,3.249 2.569,5.591 5.666,5.591 3.135,0 5.401,-2.418 5.44,-5.591 z"
             style="fill:#577796;fill-opacity:1;fill-rule:nonzero;stroke:none"
             id="path206"
             inkscape:connector-curvature="0" /></g><g
           id="g208"
           transform="translate(501.3575,58.3)"><path
             d="M 0,0 2.645,-11.936 H 2.72 L 5.326,0 H 9.292 L 3.778,-22.474 c -0.833,-3.439 -3.023,-4.42 -5.326,-4.42 h -1.058 v 3.626 h 0.867 c 1.551,0 2.042,0.529 2.909,4.986 L -4.08,0 Z"
             style="fill:#577796;fill-opacity:1;fill-rule:nonzero;stroke:none"
             id="path210"
             inkscape:connector-curvature="0" /></g><g
           id="g212"
           transform="translate(519.186,52.9363)"><path
             d="m 0,0 c -0.037,1.284 -0.945,1.965 -1.963,1.965 -1.209,0 -1.89,-0.944 -1.89,-1.927 0,-0.718 0.19,-1.398 1.626,-1.965 l 2.266,-0.906 c 2.869,-1.095 3.778,-3.135 3.778,-5.401 0,-3.173 -2.418,-5.78 -5.744,-5.78 -3.02,0 -5.589,2.002 -5.741,5.78 h 3.627 c 0.151,-1.058 0.642,-2.154 2.078,-2.154 1.094,0 2.153,0.794 2.153,2.078 0,1.057 -0.454,1.775 -1.926,2.342 l -1.851,0.68 C -6.005,-4.382 -7.48,-2.569 -7.48,0 c 0,3.249 2.569,5.591 5.668,5.591 C 1.323,5.591 3.59,3.173 3.626,0 Z"
             style="fill:#577796;fill-opacity:1;fill-rule:nonzero;stroke:none"
             id="path214"
             inkscape:connector-curvature="0" /></g><g
           id="g216"
           transform="translate(525.4935,64.1179)"><path
             d="M 0,0 H 3.853 V -5.818 H 6.234 V -8.84 H 3.853 v -10.614 c 0,-1.775 0.682,-1.888 2.381,-1.888 v -3.627 H 4.647 C 1.172,-24.969 0,-22.513 0,-20.473 V -8.84 h -1.924 v 3.022 H 0 Z"
             style="fill:#577796;fill-opacity:1;fill-rule:nonzero;stroke:none"
             id="path218"
             inkscape:connector-curvature="0" /></g><g
           id="g220"
           transform="translate(536.7142,50.2929)"><path
             d="M 0,0 H 3.778 V 2.19 C 3.778,3.626 3.06,4.381 1.888,4.381 0.718,4.381 0,3.626 0,2.19 Z m 0,-3.022 v -2.607 c 0,-1.208 0.718,-1.888 1.888,-1.888 1.475,0 1.814,1.095 1.89,1.926 h 3.853 c 0,-1.587 -0.566,-3.06 -1.548,-4.079 -1.021,-1.059 -2.418,-1.701 -4.195,-1.701 -2.342,0 -4.117,1.097 -5.023,2.758 -0.528,0.982 -0.718,2.342 -0.718,3.89 v 6.309 c 0,1.548 0.19,2.908 0.718,3.89 0.906,1.663 2.681,2.758 5.023,2.758 3.553,0 5.743,-2.607 5.743,-5.968 v -5.288 z"
             style="fill:#577796;fill-opacity:1;fill-rule:nonzero;stroke:none"
             id="path222"
             inkscape:connector-curvature="0" /></g><g
           id="g224"
           transform="translate(547.1779,58.3)"><path
             d="m 0,0 h 3.853 v -1.851 h 0.076 c 0.794,1.209 1.851,2.078 3.626,2.078 1.661,0 2.757,-0.982 3.436,-1.927 0.945,1.058 1.966,1.927 4.005,1.927 1.927,0 4.193,-1.247 4.193,-4.684 v -14.694 h -3.854 v 13.259 c 0,1.398 -0.679,2.266 -1.887,2.266 -1.436,0 -1.927,-0.944 -1.927,-2.644 V -19.151 H 7.668 v 13.259 c 0,1.398 -0.679,2.266 -1.888,2.266 -1.436,0 -1.927,-0.944 -1.927,-2.644 V -19.151 H 0 Z"
             style="fill:#577796;fill-opacity:1;fill-rule:nonzero;stroke:none"
             id="path226"
             inkscape:connector-curvature="0" /></g><g
           id="g228"
           transform="translate(590.7688,58.3)"><path
             d="m 0,0 h -3.851 v 0.869 c 0,1.776 -0.757,3.249 -2.72,3.249 -2.115,0 -2.606,-1.7 -2.606,-3.476 0,-2.077 0.188,-2.795 2.191,-3.588 l 2.945,-1.171 C -0.642,-5.402 0,-7.554 0,-11.483 c 0,-4.532 -1.661,-7.895 -6.647,-7.895 -3.739,0 -6.574,2.758 -6.574,6.384 v 1.435 h 3.854 v -1.209 c 0,-1.396 0.757,-2.757 2.72,-2.757 2.606,0 2.796,1.549 2.796,4.004 0,2.872 -0.342,3.325 -2.229,4.08 l -2.757,1.133 c -3.324,1.359 -4.193,3.551 -4.193,6.912 0,4.081 2.19,7.366 6.61,7.366 C -2.566,7.97 0,4.873 0,1.889 Z"
             style="fill:#577796;fill-opacity:1;fill-rule:nonzero;stroke:none"
             id="path230"
             inkscape:connector-curvature="0" /></g><g
           id="g232"
           transform="translate(596.9273,50.2929)"><path
             d="M 0,0 H 3.778 V 2.19 C 3.778,3.626 3.06,4.381 1.888,4.381 0.718,4.381 0,3.626 0,2.19 Z m 0,-3.022 v -2.607 c 0,-1.208 0.718,-1.888 1.888,-1.888 1.475,0 1.814,1.095 1.89,1.926 h 3.853 c 0,-1.587 -0.566,-3.06 -1.548,-4.079 -1.021,-1.059 -2.418,-1.701 -4.195,-1.701 -2.342,0 -4.117,1.097 -5.023,2.758 -0.528,0.982 -0.718,2.342 -0.718,3.89 v 6.309 c 0,1.548 0.19,2.908 0.718,3.89 0.906,1.663 2.681,2.758 5.023,2.758 3.553,0 5.743,-2.607 5.743,-5.968 v -5.288 z"
             style="fill:#577796;fill-opacity:1;fill-rule:nonzero;stroke:none"
             id="path234"
             inkscape:connector-curvature="0" /></g><g
           id="g236"
           transform="translate(607.391,58.3)"><path
             d="m 0,0 h 3.853 v -2.039 c 1.588,1.397 2.872,2.266 5.102,2.266 v -4.079 c -0.379,0.15 -0.757,0.226 -1.173,0.226 -1.623,0 -3.929,-1.02 -3.929,-4.155 v -11.37 H 0 Z"
             style="fill:#577796;fill-opacity:1;fill-rule:nonzero;stroke:none"
             id="path238"
             inkscape:connector-curvature="0" /></g><g
           id="g240"
           transform="translate(625.3343,39.1492)"><path
             d="m 0,0 h -3.399 l -4.987,19.151 h 4.081 L -1.736,6.913 h 0.076 l 2.568,12.238 h 4.078 z"
             style="fill:#577796;fill-opacity:1;fill-rule:nonzero;stroke:none"
             id="path242"
             inkscape:connector-curvature="0" /></g><path
           d="m 631.869,58.3 h 3.853 V 39.149 h -3.853 z m 0,7.745 h 3.853 v -3.853 h -3.853 z"
           style="fill:#577796;fill-opacity:1;fill-rule:nonzero;stroke:none"
           id="path244"
           inkscape:connector-curvature="0" /><g
           id="g246"
           transform="translate(642.9749,44.6643)"><path
             d="m 0,0 c 0,-1.209 0.718,-1.889 1.89,-1.889 1.472,0 1.812,1.095 1.888,1.927 h 3.853 c 0,-1.587 -0.567,-3.06 -1.548,-4.079 C 5.062,-5.1 3.665,-5.742 1.89,-5.742 c -2.344,0 -4.119,1.096 -5.025,2.758 -0.528,0.982 -0.718,2.342 -0.718,3.89 v 6.309 c 0,1.548 0.19,2.908 0.718,3.89 0.906,1.663 2.681,2.758 5.025,2.758 3.551,0 5.741,-2.569 5.741,-6.12 H 3.778 c 0,1.55 -0.718,2.266 -1.888,2.266 C 0.718,10.009 0,9.255 0,7.819 Z"
             style="fill:#577796;fill-opacity:1;fill-rule:nonzero;stroke:none"
             id="path248"
             inkscape:connector-curvature="0" /></g><g
           id="g250"
           transform="translate(656.3859,50.2929)"><path
             d="M 0,0 H 3.778 V 2.19 C 3.778,3.626 3.06,4.381 1.888,4.381 0.718,4.381 0,3.626 0,2.19 Z m 0,-3.022 v -2.607 c 0,-1.208 0.718,-1.888 1.888,-1.888 1.475,0 1.814,1.095 1.89,1.926 h 3.853 c 0,-1.587 -0.566,-3.06 -1.548,-4.079 -1.021,-1.059 -2.418,-1.701 -4.195,-1.701 -2.342,0 -4.117,1.097 -5.023,2.758 -0.528,0.982 -0.718,2.342 -0.718,3.89 v 6.309 c 0,1.548 0.19,2.908 0.718,3.89 0.906,1.663 2.681,2.758 5.023,2.758 3.553,0 5.743,-2.607 5.743,-5.968 v -5.288 z"
             style="fill:#577796;fill-opacity:1;fill-rule:nonzero;stroke:none"
             id="path252"
             inkscape:connector-curvature="0" /></g><g
           id="g254"
           transform="translate(673.8384,52.9363)"><path
             d="m 0,0 c -0.039,1.284 -0.945,1.965 -1.966,1.965 -1.208,0 -1.887,-0.944 -1.887,-1.927 0,-0.718 0.188,-1.398 1.624,-1.965 l 2.266,-0.906 c 2.871,-1.095 3.777,-3.135 3.777,-5.401 0,-3.173 -2.417,-5.78 -5.741,-5.78 -3.023,0 -5.592,2.002 -5.741,5.78 h 3.627 c 0.149,-1.058 0.639,-2.154 2.075,-2.154 1.097,0 2.154,0.794 2.154,2.078 0,1.057 -0.454,1.775 -1.927,2.342 l -1.851,0.68 c -2.417,0.906 -3.89,2.719 -3.89,5.288 0,3.249 2.569,5.591 5.666,5.591 3.135,0 5.401,-2.418 5.44,-5.591 z"
             style="fill:#577796;fill-opacity:1;fill-rule:nonzero;stroke:none"
             id="path256"
             inkscape:connector-curvature="0" /></g><g
           id="g258"
           transform="translate(266.8725,129.7656)"><path
             d="m 0,0 h 3.982 c 7.421,0 7.964,4.525 7.964,10.858 0,6.426 -1.176,9.775 -7.874,9.775 l -4.072,0 z m 0,28.778 h 4.163 c 6.154,0 7.783,3.168 7.783,9.049 0,5.703 -2.082,8.69 -8.145,8.69 L 0,46.517 Z M -9.231,55.205 H 4.253 c 11.946,0 16.381,-7.874 16.381,-16.29 v -2.354 c 0,-6.879 -2.262,-9.411 -6.335,-11.946 4.344,-2.082 6.335,-5.974 6.335,-12.669 v -3.62 c 0,-11.223 -5.339,-17.559 -17.285,-17.559 h -12.58 z"
             style="fill:#577796;fill-opacity:1;fill-rule:nonzero;stroke:none"
             id="path260"
             inkscape:connector-curvature="0" /></g><g
           id="g262"
           transform="translate(303.0693,135.7373)"><path
             d="m 0,0 c 0,-4.434 2.895,-6.517 6.244,-6.517 3.349,0 6.244,2.083 6.244,6.517 v 34.029 c 0,4.434 -2.895,6.516 -6.244,6.516 C 2.895,40.545 0,38.463 0,34.029 Z m -9.231,34.029 c 0,10.498 7.964,15.746 15.475,15.746 7.512,0 15.476,-5.248 15.476,-15.746 V 0 c 0,-10.499 -7.964,-15.747 -15.476,-15.747 -7.511,0 -15.475,5.248 -15.475,15.747 z"
             style="fill:#577796;fill-opacity:1;fill-rule:nonzero;stroke:none"
             id="path264"
             inkscape:connector-curvature="0" /></g><g
           id="g266"
           transform="translate(330.7571,184.9701)"><path
             d="m 0,0 h 8.87 l 13.936,-38.825 h 0.181 V 0 h 9.232 V -64.437 H 23.53 L 9.412,-25.703 H 9.231 V -64.437 H 0 Z"
             style="fill:#577796;fill-opacity:1;fill-rule:nonzero;stroke:none"
             id="path268"
             inkscape:connector-curvature="0" /></g><g
           id="g270"
           transform="translate(399.3521,135.0137)"><path
             d="m 0,0 c 0,-8.416 -6.698,-15.023 -14.933,-15.023 -8.235,0 -14.933,6.607 -14.933,15.023 v 49.956 h 9.232 V 0.904 c 0,-4.524 2.443,-6.697 5.701,-6.697 3.259,0 5.702,2.173 5.702,6.697 V 49.956 H 0 Z"
             style="fill:#577796;fill-opacity:1;fill-rule:nonzero;stroke:none"
             id="path272"
             inkscape:connector-curvature="0" /></g><g
           id="g274"
           transform="translate(436.0915,166.417)"><path
             d="m 0,0 h -9.231 v 2.083 c 0,4.253 -1.81,7.783 -6.516,7.783 -5.068,0 -6.245,-4.073 -6.245,-8.326 0,-4.979 0.453,-6.698 5.249,-8.599 l 7.059,-2.804 C -1.539,-12.941 0,-18.101 0,-27.512 c 0,-10.86 -3.982,-18.915 -15.929,-18.915 -8.959,0 -15.747,6.608 -15.747,15.295 v 3.439 h 9.231 v -2.896 c 0,-3.349 1.811,-6.608 6.516,-6.608 6.245,0 6.698,3.711 6.698,9.595 0,6.878 -0.814,7.964 -5.34,9.775 l -6.606,2.713 c -7.964,3.259 -10.045,8.507 -10.045,16.564 0,9.772 5.248,17.646 15.837,17.646 C -6.154,19.096 0,11.674 0,4.525 Z"
             style="fill:#577796;fill-opacity:1;fill-rule:nonzero;stroke:none"
             id="path276"
             inkscape:connector-curvature="0" /></g><g
           id="g278"
           transform="translate(465.4061,129.7656)"><path
             d="m 0,0 h 3.982 c 7.421,0 7.964,4.525 7.964,10.858 0,6.426 -1.176,9.775 -7.874,9.775 l -4.072,0 z m 0,28.778 h 4.163 c 6.154,0 7.783,3.168 7.783,9.049 0,5.703 -2.082,8.69 -8.145,8.69 L 0,46.517 Z M -9.231,55.205 H 4.253 c 11.946,0 16.381,-7.874 16.381,-16.29 v -2.354 c 0,-6.879 -2.262,-9.411 -6.335,-11.946 4.344,-2.082 6.335,-5.974 6.335,-12.669 v -3.62 c 0,-11.223 -5.339,-17.559 -17.285,-17.559 h -12.58 z"
             style="fill:#577796;fill-opacity:1;fill-rule:nonzero;stroke:none"
             id="path280"
             inkscape:connector-curvature="0" /></g><g
           id="g282"
           transform="translate(505.9478,166.417)"><path
             d="M 0,0 H -0.182 L -4.707,-23.349 H 4.525 Z M -3.892,18.553 H 3.801 L 18.19,-45.884 H 8.959 L 6.244,-32.036 H -6.336 L -9.05,-45.884 h -9.232 z"
             style="fill:#577796;fill-opacity:1;fill-rule:nonzero;stroke:none"
             id="path284"
             inkscape:connector-curvature="0" /></g><g
           id="g286"
           transform="translate(556.7145,166.417)"><path
             d="m 0,0 h -9.231 v 2.083 c 0,4.253 -1.81,7.783 -6.516,7.783 -5.068,0 -6.245,-4.073 -6.245,-8.326 0,-4.979 0.453,-6.698 5.249,-8.599 l 7.059,-2.804 C -1.539,-12.941 0,-18.101 0,-27.512 c 0,-10.86 -3.982,-18.915 -15.929,-18.915 -8.959,0 -15.747,6.608 -15.747,15.295 v 3.439 h 9.231 v -2.896 c 0,-3.349 1.811,-6.608 6.516,-6.608 6.245,0 6.698,3.711 6.698,9.595 0,6.878 -0.814,7.964 -5.34,9.775 l -6.606,2.713 c -7.964,3.259 -10.045,8.507 -10.045,16.564 0,9.772 5.248,17.646 15.837,17.646 C -6.154,19.096 0,11.674 0,4.525 Z"
             style="fill:#577796;fill-opacity:1;fill-rule:nonzero;stroke:none"
             id="path288"
             inkscape:connector-curvature="0" /></g><g
           id="g290"
           transform="translate(561.7769,184.9701)"><path
             d="m 0,0 h 8.87 l 11.855,-34.119 h 0.181 L 32.671,0 h 8.96 v -64.437 h -9.232 v 39.186 h -0.18 L 23.078,-52.943 H 18.463 L 9.412,-25.251 H 9.231 V -64.437 H 0 Z"
             style="fill:#577796;fill-opacity:1;fill-rule:nonzero;stroke:none"
             id="path292"
             inkscape:connector-curvature="0" /></g><g
           id="g294"
           transform="translate(624.3989,166.417)"><path
             d="M 0,0 H -0.182 L -4.707,-23.349 H 4.525 Z M -3.892,18.553 H 3.801 L 18.19,-45.884 H 8.959 L 6.244,-32.036 H -6.336 L -9.05,-45.884 h -9.232 z"
             style="fill:#577796;fill-opacity:1;fill-rule:nonzero;stroke:none"
             id="path296"
             inkscape:connector-curvature="0" /></g><g
           id="g298"
           transform="translate(646.3876,176.2827)"><path
             d="M 0,0 H -10.678 V 8.687 H 19.911 V 0 H 9.231 V -55.75 H 0 Z"
             style="fill:#577796;fill-opacity:1;fill-rule:nonzero;stroke:none"
             id="path300"
             inkscape:connector-curvature="0" /></g><path
           d="m 668.827,184.97 h 9.231 v -64.437 h -9.231 z"
           style="fill:#577796;fill-opacity:1;fill-rule:nonzero;stroke:none"
           id="path302"
           inkscape:connector-curvature="0" /><g
           id="g304"
           transform="translate(136.0794,108.7397)"><path
             d="m 0,0 c 32.387,-10.632 63.392,-27.134 89.048,-49.577 -16.637,-1.105 -35.536,-17.879 -48.34,-25.221 -2.636,-1.512 -6.516,-2.952 -7.205,-3.189 -20.935,-7.198 -35.965,-5.83 -53.798,-5.687 -16.325,0.131 -29.4,-0.226 -42.238,-10.311 -19.797,27.508 -28.63,33.508 -58.464,45.842 26.08,20.414 64.903,26.668 102.296,41.421 C -11.563,-3.907 0,0 0,0"
             style="fill:#e2c68c;fill-opacity:1;fill-rule:nonzero;stroke:none"
             id="path306"
             inkscape:connector-curvature="0" /></g><g
           id="g308"
           transform="translate(121.2231,177.242)"><path
             d="m 0,0 c -9.938,0 -18.023,8.085 -18.023,18.023 0,9.939 8.085,18.024 18.023,18.024 9.938,0 18.023,-8.085 18.023,-18.024 C 18.023,8.085 9.938,0 0,0"
             style="fill:#ffffff;fill-opacity:1;fill-rule:nonzero;stroke:none"
             id="path310"
             inkscape:connector-curvature="0" /></g><g
           id="g312"
           transform="translate(121.2231,215.0392)"><path
             d="m 0,0 c -10.903,0 -19.774,-8.87 -19.774,-19.774 0,-10.903 8.871,-19.773 19.774,-19.773 10.903,0 19.774,8.87 19.774,19.773 C 19.774,-8.87 10.903,0 0,0 m 0,-3.5 c 8.988,0 16.274,-7.286 16.274,-16.274 0,-8.987 -7.286,-16.273 -16.274,-16.273 -8.988,0 -16.274,7.286 -16.274,16.273 0,8.988 7.286,16.274 16.274,16.274"
             style="fill:#ffffff;fill-opacity:1;fill-rule:nonzero;stroke:none"
             id="path314"
             inkscape:connector-curvature="0" /></g><g
           id="g316"
           transform="translate(81.1078,166.5716)"><path
             d="m 0,0 c -9.938,0 -18.024,8.085 -18.024,18.023 0,9.939 8.086,18.024 18.024,18.024 9.938,0 18.023,-8.085 18.023,-18.024 C 18.023,8.085 9.938,0 0,0"
             style="fill:#ffffff;fill-opacity:1;fill-rule:nonzero;stroke:none"
             id="path318"
             inkscape:connector-curvature="0" /></g><g
           id="g320"
           transform="translate(81.1078,204.3688)"><path
             d="m 0,0 c -10.903,0 -19.774,-8.87 -19.774,-19.774 0,-10.903 8.871,-19.773 19.774,-19.773 10.903,0 19.774,8.87 19.774,19.773 C 19.774,-8.87 10.903,0 0,0 m 0,-3.5 c 8.988,0 16.274,-7.286 16.274,-16.274 0,-8.987 -7.286,-16.273 -16.274,-16.273 -8.988,0 -16.274,7.286 -16.274,16.273 0,8.988 7.286,16.274 16.274,16.274"
             style="fill:#ffffff;fill-opacity:1;fill-rule:nonzero;stroke:none"
             id="path322"
             inkscape:connector-curvature="0" /></g><g
           id="g324"
           transform="translate(166.3544,167.5716)"><path
             d="m 0,0 c -9.938,0 -18.023,8.085 -18.023,18.023 0,9.939 8.085,18.024 18.023,18.024 9.938,0 18.024,-8.085 18.024,-18.024 C 18.024,8.085 9.938,0 0,0"
             style="fill:#ffffff;fill-opacity:1;fill-rule:nonzero;stroke:none"
             id="path326"
             inkscape:connector-curvature="0" /></g><g
           id="g328"
           transform="translate(166.3545,205.3688)"><path
             d="m 0,0 c -10.903,0 -19.774,-8.87 -19.774,-19.774 0,-10.903 8.871,-19.773 19.774,-19.773 10.903,0 19.774,8.87 19.774,19.773 C 19.774,-8.87 10.903,0 0,0 m 0,-3.5 c 8.988,0 16.274,-7.286 16.274,-16.274 0,-8.987 -7.286,-16.273 -16.274,-16.273 -8.988,0 -16.274,7.286 -16.274,16.273 0,8.988 7.286,16.274 16.274,16.274"
             style="fill:#ffffff;fill-opacity:1;fill-rule:nonzero;stroke:none"
             id="path330"
             inkscape:connector-curvature="0" /></g><g
           id="g332"
           transform="translate(94.6764,149.0795)"><path
             d="m 0,0 c 0,-3.916 1.569,-12.414 2.705,-15.87 l 49.426,3.674 c 1.373,3.748 2.133,7.87 2.133,12.196 0,17.305 -12.148,31.333 -27.132,31.333 C 12.147,31.333 0,17.305 0,0"
             style="fill:#9bafbf;fill-opacity:1;fill-rule:nonzero;stroke:none"
             id="path334"
             inkscape:connector-curvature="0" /></g><g
           id="g336"
           transform="translate(94.6764,149.0795)"><path
             d="m 0,0 c 0,-3.916 1.569,-12.414 2.705,-15.87 l 49.426,3.674 c 1.373,3.748 2.133,7.87 2.133,12.196 0,17.305 -12.148,31.333 -27.132,31.333 C 12.147,31.333 0,17.305 0,0 Z"
             style="fill:none;stroke:#ffffff;stroke-width:3;stroke-linecap:butt;stroke-linejoin:miter;stroke-miterlimit:10;stroke-dasharray:none;stroke-opacity:1"
             id="path338"
             inkscape:connector-curvature="0" /></g><g
           id="g340"
           transform="translate(104.9494,195.2656)"><path
             d="m 0,0 c 0,-8.988 7.286,-16.274 16.274,-16.274 8.987,0 16.273,7.286 16.273,16.274 0,8.988 -7.286,16.274 -16.273,16.274 C 7.286,16.274 0,8.988 0,0"
             style="fill:#9bafbf;fill-opacity:1;fill-rule:nonzero;stroke:none"
             id="path342"
             inkscape:connector-curvature="0" /></g><path
           d="m 113.907,164.563 h 14.632 v 19.701 h -14.632 z"
           style="fill:#9bafbf;fill-opacity:1;fill-rule:nonzero;stroke:none"
           id="path344"
           inkscape:connector-curvature="0" /><g
           id="g346"
           transform="translate(55.2265,124.8109)"><path
             d="m 0,0 -0.332,1.009 c -1.216,3.701 -1.834,7.6 -1.834,11.589 0,18.105 12.845,32.834 28.632,32.834 15.788,0 28.632,-14.729 28.632,-32.834 0,-4.407 -0.748,-8.683 -2.223,-12.712 l -0.37,-1.007 z"
             style="fill:#9bafbf;fill-opacity:1;fill-rule:nonzero;stroke:none"
             id="path348"
             inkscape:connector-curvature="0" /></g><g
           id="g350"
           transform="translate(81.6929,171.7424)"><path
             d="m 0,0 c -16.615,0 -30.132,-15.402 -30.132,-34.333 0,-4.15 0.642,-8.207 1.909,-12.059 l 0.663,-2.016 2.123,-0.046 50.373,-1.075 2.143,-0.046 0.738,2.014 c 1.536,4.194 2.315,8.645 2.315,13.228 C 30.132,-15.402 16.615,0 0,0 m 0,-3 c 14.984,0 27.132,-14.028 27.132,-31.333 0,-4.327 -0.759,-8.448 -2.132,-12.197 l -50.373,1.076 c -1.137,3.456 -1.759,7.204 -1.759,11.121 C -27.132,-17.028 -14.984,-3 0,-3"
             style="fill:#ffffff;fill-opacity:1;fill-rule:nonzero;stroke:none"
             id="path352"
             inkscape:connector-curvature="0" /></g><path
           d="m 73.792,153.892 h 14.632 v 19.701 H 73.792 Z"
           style="fill:#9bafbf;fill-opacity:1;fill-rule:nonzero;stroke:none"
           id="path354"
           inkscape:connector-curvature="0" /><g
           id="g356"
           transform="translate(140.4731,125.8109)"><path
             d="m 0,0 -0.332,1.009 c -1.216,3.7 -1.833,7.599 -1.833,11.589 0,18.105 12.844,32.834 28.632,32.834 15.787,0 28.631,-14.729 28.631,-32.834 0,-4.408 -0.748,-8.684 -2.223,-12.712 l -0.369,-1.007 z"
             style="fill:#9bafbf;fill-opacity:1;fill-rule:nonzero;stroke:none"
             id="path358"
             inkscape:connector-curvature="0" /></g><g
           id="g360"
           transform="translate(166.9397,172.7424)"><path
             d="m 0,0 c -16.615,0 -30.132,-15.402 -30.132,-34.333 0,-4.15 0.642,-8.207 1.909,-12.059 l 0.663,-2.016 2.123,-0.046 50.373,-1.075 2.143,-0.046 0.738,2.014 c 1.536,4.194 2.315,8.645 2.315,13.228 C 30.132,-15.402 16.615,0 0,0 m 0,-3 c 14.984,0 27.132,-14.028 27.132,-31.333 0,-4.327 -0.759,-8.448 -2.132,-12.197 l -50.373,1.076 c -1.137,3.456 -1.759,7.204 -1.759,11.121 C -27.132,-17.028 -14.984,-3 0,-3"
             style="fill:#ffffff;fill-opacity:1;fill-rule:nonzero;stroke:none"
             id="path362"
             inkscape:connector-curvature="0" /></g><path
           d="m 159.039,154.892 h 14.632 v 19.701 h -14.632 z"
           style="fill:#9bafbf;fill-opacity:1;fill-rule:nonzero;stroke:none"
           id="path364"
           inkscape:connector-curvature="0" /><g
           id="g366"
           transform="translate(64.8341,184.5951)"><path
             d="m 0,0 c 0,-8.988 7.286,-16.274 16.274,-16.274 8.987,0 16.273,7.286 16.273,16.274 0,8.988 -7.286,16.274 -16.273,16.274 C 7.286,16.274 0,8.988 0,0"
             style="fill:#9bafbf;fill-opacity:1;fill-rule:nonzero;stroke:none"
             id="path368"
             inkscape:connector-curvature="0" /></g><g
           id="g370"
           transform="translate(150.0808,185.5951)"><path
             d="m 0,0 c 0,-8.988 7.286,-16.274 16.274,-16.274 8.987,0 16.273,7.286 16.273,16.274 0,8.988 -7.286,16.274 -16.273,16.274 C 7.286,16.274 0,8.988 0,0"
             style="fill:#9bafbf;fill-opacity:1;fill-rule:nonzero;stroke:none"
             id="path372"
             inkscape:connector-curvature="0" /></g><g
           id="g374"
           transform="translate(124.9838,38.0028)"><path
             d="m 0,0 c -4.21,0 -11.299,0.389 -18.565,1.482 -0.983,0.149 -5.862,1.073 -7.219,1.394 l -1.226,0.292 c -1.978,0.474 -4.023,0.964 -6.082,1.308 -3.7,0.624 -6.983,0.926 -10.034,0.926 -4.544,0 -8.515,-0.666 -12.079,-2.032 -7.533,15.804 -21.986,26.889 -32.962,33.475 -13.769,8.26 -18.627,17.737 -20.334,23.129 1.197,-0.113 2.489,-0.17 3.865,-0.17 18.065,0 49.049,9.55 73.945,17.222 12.129,3.738 22.604,6.966 28.709,8.167 8.73,1.723 26.045,1.987 28.336,2.015 16.03,-4.621 29.693,-14.822 42.909,-24.689 0.512,-0.384 1.067,-0.581 1.646,-0.581 0.541,0 0.968,0.174 1.255,0.309 C 83.786,55.657 94.439,47.3 102.466,38.504 90.037,35.286 78.154,30.377 67.104,23.89 64.558,22.397 62.012,20.823 59.549,19.302 54.28,16.045 48.832,12.678 43.188,9.99 29.274,3.371 20.229,1.479 10.143,0.573 7.187,0.307 3.739,0.021 0.239,0 Z"
             style="fill:#577796;fill-opacity:1;fill-rule:nonzero;stroke:none"
             id="path376"
             inkscape:connector-curvature="0" /></g><g
           id="g378"
           transform="translate(151.5735,126.9632)"><path
             d="m 0,0 c 0,0 -19.33,-0.16 -28.91,-2.05 -18.561,-3.653 -75.597,-25.357 -102.316,-25.357 -2.316,0 -4.405,0.164 -6.221,0.516 1.21,-5.92 5.956,-17.226 21.79,-26.726 13.678,-8.207 26.567,-19.633 32.977,-34.243 4.059,1.865 8.483,2.552 12.965,2.552 3.258,0 6.546,-0.363 9.745,-0.902 2.412,-0.404 4.797,-1.011 7.193,-1.578 1.4,-0.331 6.304,-1.261 7.362,-1.42 6.871,-1.034 14.011,-1.502 18.815,-1.502 0.087,0 0.174,0 0.26,0 3.43,0.02 6.83,0.29 10.05,0.58 9.46,0.85 18.8,2.52 33.64,9.58 8.38,3.99 16.05,9.28 24.05,13.97 11.72,6.88 24.48,11.99 37.7,15.12 -9.1,10.62 -21.23,19.82 -32.93,26.42 -0.213,0.118 -0.398,0.162 -0.565,0.162 -0.498,0 -0.837,-0.394 -1.286,-0.394 -0.177,0 -0.371,0.061 -0.599,0.232 C 30.18,-14.93 16.25,-4.62 0,0 m -0.474,-3.506 c 15.621,-4.567 29.08,-14.617 42.094,-24.334 1.027,-0.771 2.035,-0.932 2.699,-0.932 0.408,0 0.773,0.058 1.088,0.139 10.269,-5.907 19.726,-13.186 27.194,-20.895 -11.558,-3.251 -22.625,-7.959 -32.971,-14.033 -2.565,-1.503 -5.12,-3.083 -7.592,-4.61 -5.229,-3.231 -10.635,-6.573 -16.192,-9.218 -15.158,-7.212 -24.342,-8.527 -32.45,-9.255 -2.924,-0.263 -6.33,-0.546 -9.749,-0.566 H -26.6 c -4.143,0 -11.124,0.384 -18.294,1.463 -0.965,0.145 -5.748,1.051 -7.077,1.365 l -1.223,0.292 c -2.006,0.48 -4.08,0.977 -6.195,1.331 -3.798,0.64 -7.176,0.951 -10.326,0.951 -4.137,0 -7.833,-0.531 -11.2,-1.617 -4.723,9.216 -14.156,21.538 -32.942,32.809 -11.398,6.84 -16.441,14.466 -18.668,19.726 0.425,-0.011 0.858,-0.017 1.299,-0.017 18.328,0 49.451,9.592 74.46,17.299 12.082,3.724 22.516,6.94 28.533,8.124 8.308,1.639 24.682,1.936 27.759,1.978"
             style="fill:#ffffff;fill-opacity:1;fill-rule:nonzero;stroke:none"
             id="path380"
             inkscape:connector-curvature="0" /></g><g
           id="g382"
           transform="translate(124.436,58.0662)"><path
             d="m 0,0 c -24.768,0 -44.945,5.95 -45.146,6.01 l -0.952,0.285 -0.243,0.963 c -4.845,19.157 -26.927,39.292 -38.789,50.109 -5.429,4.95 -8.837,9.775 -10.13,14.341 -1.032,3.643 -0.296,5.822 -0.208,6.059 l 0.533,1.443 1.5,-0.344 c 0.123,-0.029 12.472,-2.812 30.905,-2.812 16.468,0 32.528,2.152 47.733,6.395 11.844,3.305 22.61,5.381 32,6.17 2.43,0.204 4.836,0.308 7.151,0.308 8.931,0 14.828,-1.523 17.548,-2.43 1.056,-0.353 2.406,-0.875 2.894,-1.077 3.19,-1.313 6.627,-2.951 10.508,-5.008 24.663,-13.076 49.951,-35.619 50.203,-35.846 l 3.006,-2.692 -4.019,-0.354 C 104.364,41.507 90.819,40.087 71.33,24.964 48.456,7.214 33.561,4.075 32.254,3.826 22.439,1.287 11.589,0 0.002,0 Z"
             style="fill:#769c49;fill-opacity:1;fill-rule:nonzero;stroke:none"
             id="path384"
             inkscape:connector-curvature="0" /></g><g
           id="g386"
           transform="translate(148.7905,148.7427)"><path
             d="m 0,0 c -2.364,0 -4.819,-0.106 -7.298,-0.314 -9.5,-0.798 -20.375,-2.894 -32.324,-6.228 -15.052,-4.201 -30.953,-6.331 -47.261,-6.331 -18.206,0 -30.394,2.74 -30.515,2.768 l -2.998,0.686 -1.068,-2.884 c -0.352,-0.953 -3.042,-9.678 10.8,-22.3 11.727,-10.692 33.556,-30.595 38.272,-49.245 l 0.487,-1.926 1.903,-0.57 c 0.83,-0.248 20.624,-6.082 45.647,-6.082 11.717,0 22.698,1.301 32.643,3.869 1.785,0.353 16.952,3.763 39.76,21.462 15.194,11.79 27.748,15.75 32.263,16.197 l 7.917,0.783 -5.908,5.309 c -1.037,0.929 -25.7,22.912 -50.551,36.087 -3.93,2.084 -7.417,3.746 -10.662,5.082 -0.458,0.188 -1.85,0.732 -3.005,1.117 C 15.282,-1.579 9.18,0 0,0 m 0,-3.5 c 8.721,0 14.416,-1.48 16.994,-2.34 1.038,-0.347 2.363,-0.861 2.78,-1.034 3.418,-1.407 6.847,-3.077 10.356,-4.937 24.759,-13.127 49.856,-35.602 49.856,-35.602 0,0 -13.859,-1.223 -34.084,-16.917 C 22.52,-82.474 7.52,-85.14 7.52,-85.14 c -10.775,-2.795 -21.738,-3.786 -31.875,-3.786 -24.798,0 -44.644,5.936 -44.644,5.936 -4.943,19.548 -26.807,39.577 -39.307,50.974 -12.5,11.397 -9.875,18.5 -9.875,18.5 0,0 12.413,-2.857 31.298,-2.857 13.49,0 30.284,1.459 48.202,6.46 13.129,3.664 23.543,5.428 31.676,6.111 C -4.487,-3.59 -2.151,-3.5 0,-3.5"
             style="fill:#ffffff;fill-opacity:1;fill-rule:nonzero;stroke:none"
             id="path388"
             inkscape:connector-curvature="0" /></g></g></g></g></svg>