<?xml version="1.0" encoding="UTF-8" standalone="no"?>
<!-- Created with Inkscape (http://www.inkscape.org/) -->

<svg
   xmlns:dc="http://purl.org/dc/elements/1.1/"
   xmlns:cc="http://creativecommons.org/ns#"
   xmlns:rdf="http://www.w3.org/1999/02/22-rdf-syntax-ns#"
   xmlns:svg="http://www.w3.org/2000/svg"
   xmlns="http://www.w3.org/2000/svg"
   xmlns:sodipodi="http://sodipodi.sourceforge.net/DTD/sodipodi-0.dtd"
   xmlns:inkscape="http://www.inkscape.org/namespaces/inkscape"
   version="1.1"
   id="svg2"
   xml:space="preserve"
   width="602.52429"
   height="158.28992"
   viewBox="0 0 602.52429 158.28992"
   sodipodi:docname="Logo_bonus_cmyk_editable-01.svg"
   inkscape:version="0.92.3 (2405546, 2018-03-11)"><metadata
     id="metadata8"><rdf:RDF><cc:Work
         rdf:about=""><dc:format>image/svg+xml</dc:format><dc:type
           rdf:resource="http://purl.org/dc/dcmitype/StillImage" /><dc:title></dc:title></cc:Work></rdf:RDF></metadata><defs
     id="defs6"><clipPath
       clipPathUnits="userSpaceOnUse"
       id="clipPath20"><path
         d="M 0,0 H 2550 V 1262.6 H 0 Z"
         id="path18"
         inkscape:connector-curvature="0" /></clipPath></defs><sodipodi:namedview
     pagecolor="#ffffff"
     bordercolor="#666666"
     borderopacity="1"
     objecttolerance="10"
     gridtolerance="10"
     guidetolerance="10"
     inkscape:pageopacity="0"
     inkscape:pageshadow="2"
     inkscape:window-width="1920"
     inkscape:window-height="1001"
     id="namedview4"
     showgrid="false"
     inkscape:zoom="1.2642212"
     inkscape:cx="310.23083"
     inkscape:cy="32.230816"
     inkscape:window-x="-9"
     inkscape:window-y="-9"
     inkscape:window-maximized="1"
     inkscape:current-layer="g10"
     fit-margin-top="0"
     fit-margin-left="0"
     fit-margin-right="0"
     fit-margin-bottom="0" /><g
     id="g10"
     inkscape:groupmode="layer"
     inkscape:label="Logo_bonus_cmyk_editable-01"
     transform="matrix(1.3333333,0,0,-1.3333333,-86.773248,318.70058)"><g
       id="g12"
       transform="matrix(0.24,0,0,0.24,-14.238015,22.543524)"><g
         id="g14"><g
           id="g16"
           clip-path="url(#clipPath20)"><path
             d="m 448.746,777.496 c 82.375,77.301 215.543,101.449 313.059,53.805 C 873.016,776.965 909.676,644.879 821.551,534.684 724.41,413.215 539.973,392.57 435.742,485.367 c -89.406,79.61 -75.804,208.781 13.004,292.129 z m 5.293,-1.422 C 367.953,694.527 354.77,568.137 441.43,490.25 c 101.027,-90.797 279.804,-70.598 373.957,48.25 85.422,107.82 49.89,237.059 -57.907,290.223 -94.523,46.613 -223.601,22.984 -303.441,-52.649 v 0"
             style="fill:#231f20;fill-opacity:1;fill-rule:evenodd;stroke:none"
             id="path22"
             inkscape:connector-curvature="0" /><path
             d="m 469.375,764.059 c 66.715,63.582 175.246,82.808 252.672,42.777 C 808.098,762.352 831.539,658.5 760.82,574.234 684.605,483.422 544.285,466.18 462.809,534.105 c -72.305,60.278 -64.352,162.372 6.566,229.954 z m 4.66,-1.129 c -68.742,-66.129 -76.453,-166.02 -6.371,-225 78.973,-66.453 214.981,-49.582 288.859,39.265 68.547,82.45 45.825,184.059 -37.585,227.59 -75.043,39.16 -180.239,20.348 -244.903,-41.855 v 0"
             style="fill:#231f20;fill-opacity:1;fill-rule:evenodd;stroke:none"
             id="path24"
             inkscape:connector-curvature="0" /><path
             d="m 494.723,747.555 c 45.277,43.984 119.445,56.707 170.375,28.312 54.668,-30.488 65.304,-98.07 18.062,-151.047 -49.543,-55.55 -137.293,-67.527 -189.851,-27.261 -48.668,37.277 -45.793,104.148 1.414,149.996 z m 3.875,-0.778 c -45.75,-44.855 -48.539,-110.285 -1.368,-146.761 50.942,-39.395 136,-27.68 184.02,26.675 45.793,51.829 35.48,117.957 -17.512,147.789 -49.359,27.782 -121.25,15.329 -165.14,-27.703 v 0"
             style="fill:#231f20;fill-opacity:1;fill-rule:evenodd;stroke:none"
             id="path26"
             inkscape:connector-curvature="0" /><path
             d="M 446.59,778.039 C 528.961,855.336 662.133,879.484 759.645,831.84 870.863,777.508 907.516,645.426 819.391,535.223 722.25,413.754 537.813,393.105 433.582,485.914 344.176,565.516 357.781,694.691 446.59,778.039 Z m 5.289,-1.426 C 365.797,695.066 352.613,568.684 439.27,490.789 c 101.031,-90.797 279.804,-70.601 373.96,48.25 85.418,107.82 49.887,237.059 -57.91,290.219 -94.519,46.617 -223.597,22.988 -303.441,-52.645 v 0"
             style="fill:#b2db18;fill-opacity:1;fill-rule:evenodd;stroke:none"
             id="path28"
             inkscape:connector-curvature="0" /><path
             d="m 467.215,764.602 c 66.719,63.578 175.25,82.804 252.668,42.777 86.055,-44.488 109.5,-148.336 38.785,-232.609 -76.223,-90.813 -216.543,-108.059 -298.02,-40.129 -72.3,60.281 -64.347,162.371 6.567,229.961 z m 4.66,-1.137 c -68.738,-66.125 -76.449,-166.016 -6.367,-225 78.972,-66.453 214.984,-49.582 288.859,39.277 68.547,82.446 45.824,184.051 -37.59,227.582 -75.039,39.164 -180.234,20.352 -244.902,-41.859 v 0"
             style="fill:#b2db18;fill-opacity:1;fill-rule:evenodd;stroke:none"
             id="path30"
             inkscape:connector-curvature="0" /><path
             d="m 492.563,748.09 c 45.285,43.984 119.445,56.715 170.375,28.312 54.671,-30.484 65.308,-98.07 18.066,-151.043 -49.547,-55.55 -137.297,-67.531 -189.856,-27.261 -48.66,37.277 -45.789,104.148 1.415,149.992 z m 3.878,-0.774 c -45.753,-44.855 -48.539,-110.281 -1.371,-146.761 50.942,-39.391 136.004,-27.68 184.02,26.675 45.797,51.833 35.484,117.958 -17.512,147.786 -49.355,27.789 -121.25,15.332 -165.137,-27.7 v 0"
             style="fill:#b2db18;fill-opacity:1;fill-rule:evenodd;stroke:none"
             id="path32"
             inkscape:connector-curvature="0" /><path
             d="m 1045.71,663.879 h 26.26 c 36.6,0 65.87,-12.934 65.87,-44.441 0,-33.54 -30.14,-45.653 -64.14,-45.653 -12.06,0 -21.1,0 -27.99,1.211 z m 0,110.703 c 5.59,1.215 14.64,2.023 30.14,2.023 33.58,0 54.24,-11.718 54.24,-37.171 0,-23.036 -20.66,-39.192 -57.26,-39.192 h -27.12 z M 993.191,539.836 c 13.349,-1.606 35.739,-3.637 65.009,-3.637 52.94,0 86.95,8.489 107.62,25.461 16.79,12.926 27.98,31.914 27.98,56.164 0,37.567 -27.98,60.192 -58.55,67.469 v 0.809 c 31.43,10.91 48.22,33.937 48.22,58.984 0,23.035 -12.05,40.809 -30.14,50.914 -19.79,12.926 -43.9,17.371 -83.08,17.371 -29.7,0 -60.27,-2.422 -77.059,-5.66 v -267.875 0"
             style="fill:#173e7d;fill-opacity:1;fill-rule:evenodd;stroke:none"
             id="path34"
             inkscape:connector-curvature="0" /><path
             d="m 1342.93,778.02 c 52.95,0 80.07,-48.891 80.07,-100.2 0,-56.972 -28.84,-101.816 -80.07,-101.816 -50.8,0 -80.5,44.441 -80.5,99.793 0,56.164 27.98,102.223 80.5,102.223 z m 1.3,39.593 c -81.8,0 -137.77,-58.988 -137.77,-142.625 0,-79.996 51.67,-138.586 133.45,-138.586 80.08,0 139.05,52.118 139.05,143.43 0,77.582 -49.94,137.781 -134.73,137.781 v 0"
             style="fill:#173e7d;fill-opacity:1;fill-rule:evenodd;stroke:none"
             id="path36"
             inkscape:connector-curvature="0" /><path
             d="m 1551.72,540.848 v 97.375 c 0,44.847 -0.43,80.8 -2.59,115.957 l 1.3,0.406 c 14.21,-30.707 33.57,-64.246 52.09,-93.738 l 75.77,-120 h 54.66 v 272.32 h -49.07 v -94.953 c 0,-41.61 1.29,-76.766 4.73,-113.129 h -0.85 c -13.36,29.496 -30.15,61.016 -49.51,91.312 l -74.91,116.77 h -60.27 v -272.32 h 48.65 v 0"
             style="fill:#173e7d;fill-opacity:1;fill-rule:evenodd;stroke:none"
             id="path38"
             inkscape:connector-curvature="0" /><path
             d="M 1772.13,813.168 V 657.207 c 0,-85.652 43.48,-120.805 110.63,-120.805 69.74,0 115.8,37.168 115.8,121.211 v 155.555 h -52.94 V 654.383 c 0,-53.328 -22.82,-77.981 -61.14,-77.981 -35.73,0 -59.41,24.653 -59.41,77.981 v 158.785 h -52.94 v 0"
             style="fill:#173e7d;fill-opacity:1;fill-rule:nonzero;stroke:none"
             id="path40"
             inkscape:connector-curvature="0" /><path
             d="m 2024.82,553.777 c 15.92,-8.894 47.79,-17.375 78.35,-17.375 74.9,0 110.21,38.383 110.21,82.028 0,39.183 -24.55,63.027 -74.92,80.8 -38.74,14.141 -55.53,23.84 -55.53,44.848 0,15.758 14.64,32.727 48.22,32.727 27.12,0 47.35,-7.676 57.68,-12.93 l 12.92,39.598 c -15.07,7.675 -38.31,14.14 -69.74,14.14 -62.86,0 -102.46,-33.937 -102.46,-78.383 0,-39.191 30.57,-63.027 78.35,-79.191 37.03,-12.519 51.67,-24.652 51.67,-45.246 0,-22.227 -18.95,-37.176 -52.96,-37.176 -27.12,0 -52.95,8.078 -70.17,17.375 l -11.62,-41.215 v 0"
             style="fill:#173e7d;fill-opacity:1;fill-rule:nonzero;stroke:none"
             id="path42"
             inkscape:connector-curvature="0" /><path
             d="m 662.848,413.492 c 1.879,-1.117 6.398,-2.304 11.004,-2.304 11.257,0 19.019,6.914 19.019,17.398 0,6.055 -2.816,11.852 -10.41,16.457 -6.223,3.754 -7.934,5.539 -7.934,8.961 0,3.066 2.305,5.961 7.082,5.961 3.243,0 5.715,-0.93 7.336,-1.957 l 1.789,9.633 c -1.707,1.027 -5.285,2.05 -9.039,2.05 -12.023,0 -18.168,-7.671 -18.168,-16.882 0,-5.2 2.985,-11.258 10.836,-16.036 4.86,-3.156 7.414,-5.207 7.414,-9.382 0,-3.75 -2.554,-6.477 -7.839,-6.477 -3.247,0 -7.168,0.938 -9.473,2.215 l -1.617,-9.637 v 0"
             style="fill:#173e7d;fill-opacity:1;fill-rule:nonzero;stroke:none"
             id="path44"
             inkscape:connector-curvature="0" /><path
             d="m 722.973,419.734 c -1.075,-0.336 -2.746,-0.668 -4.219,-0.668 -5.359,0 -9.445,4.219 -9.445,15 0,11.188 4.492,15.469 9.445,15.469 1.941,0 3.078,-0.398 4.082,-0.863 l 1.477,7.367 c -0.872,0.602 -3.012,1.203 -6.098,1.203 -8.77,0 -18.215,-6.633 -18.215,-23.64 0,-12.793 5.492,-22.305 17.012,-22.305 3.078,0 5.558,0.469 6.828,1.074 l -0.867,7.363 v 0"
             style="fill:#173e7d;fill-opacity:1;fill-rule:nonzero;stroke:none"
             id="path46"
             inkscape:connector-curvature="0" /><path
             d="m 733.082,456.832 v -45.133 h 8.777 v 45.133 h -8.777 v 0"
             style="fill:#173e7d;fill-opacity:1;fill-rule:nonzero;stroke:none"
             id="path48"
             inkscape:connector-curvature="0" /><path
             d="m 773.199,438.824 h -10.312 v 10.375 h 10.847 v 7.633 h -19.621 v -45.133 h 20.43 v 7.633 h -11.656 v 12.191 h 10.312 v 7.301 0"
             style="fill:#173e7d;fill-opacity:1;fill-rule:nonzero;stroke:none"
             id="path50"
             inkscape:connector-curvature="0" /><path
             d="m 792.621,411.699 v 10.11 c 0,9.117 -0.332,16.082 -0.535,20.629 h 0.137 c 1.004,-4.083 3.078,-9.77 4.55,-13.586 l 6.899,-17.153 h 8.035 v 45.133 h -7.703 v -9.973 c 0,-8.3 0.605,-16.136 0.871,-20.894 h -0.129 c -1.273,3.949 -3.484,9.711 -4.824,13.195 l -6.965,17.672 h -8.035 v -45.133 h 7.699 v 0"
             style="fill:#173e7d;fill-opacity:1;fill-rule:evenodd;stroke:none"
             id="path52"
             inkscape:connector-curvature="0" /><path
             d="m 844.66,419.734 c -1.074,-0.336 -2.746,-0.668 -4.219,-0.668 -5.363,0 -9.445,4.219 -9.445,15 0,11.188 4.488,15.469 9.445,15.469 1.938,0 3.079,-0.398 4.082,-0.863 l 1.477,7.367 c -0.871,0.602 -3.016,1.203 -6.098,1.203 -8.773,0 -18.214,-6.633 -18.214,-23.64 0,-12.793 5.492,-22.305 17.011,-22.305 3.078,0 5.559,0.469 6.828,1.074 l -0.867,7.363 v 0"
             style="fill:#173e7d;fill-opacity:1;fill-rule:nonzero;stroke:none"
             id="path54"
             inkscape:connector-curvature="0" /><path
             d="m 873.859,438.824 h -10.316 v 10.375 h 10.848 v 7.633 H 854.77 v -45.133 h 20.425 v 7.633 h -11.652 v 12.191 h 10.316 v 7.301 0"
             style="fill:#173e7d;fill-opacity:1;fill-rule:nonzero;stroke:none"
             id="path56"
             inkscape:connector-curvature="0" /><path
             d="m 900.645,411.699 h 8.777 v 18.621 h 10.18 v 7.293 h -10.18 v 11.586 h 10.848 v 7.633 h -19.625 v -45.133 0"
             style="fill:#173e7d;fill-opacity:1;fill-rule:nonzero;stroke:none"
             id="path58"
             inkscape:connector-curvature="0" /><path
             d="m 943.641,449.738 c 3.949,0 5.16,-7.16 5.16,-15.07 0,-9.172 -1.406,-15.871 -5.094,-15.871 -3.547,0 -5.492,5.223 -5.492,15.469 0,9.711 1.945,15.472 5.426,15.472 z m 0.339,7.633 c -9.98,0 -14.871,-10.641 -14.871,-22.961 0,-12.398 4.02,-23.246 14.266,-23.246 8.57,0 14.602,6.895 14.602,23.91 0,10.309 -3.086,22.297 -13.997,22.297 v 0"
             style="fill:#173e7d;fill-opacity:1;fill-rule:evenodd;stroke:none"
             id="path60"
             inkscape:connector-curvature="0" /><path
             d="m 976.727,449.941 c 0.468,0.204 1.336,0.27 2.078,0.27 3.949,-0.141 5.488,-2.883 5.488,-6.699 0,-3.953 -2.211,-7.028 -6.027,-7.028 h -1.539 z m -8.774,-38.242 h 8.774 v 18.012 h 1.269 c 2.949,0 4.359,-1.602 5.164,-7.227 0.664,-4.957 1.668,-9.511 2.203,-10.785 h 9.18 c -0.805,1.672 -2.008,7.239 -2.879,12.258 -0.871,4.816 -2.414,7.695 -5.492,8.902 V 433 c 4.621,2.137 6.961,6.492 6.961,11.316 0,3.883 -0.805,6.895 -3.551,9.375 -2.945,2.68 -7.227,3.348 -12.055,3.348 -3.347,0 -6.828,-0.336 -9.574,-0.871 v -44.469 0"
             style="fill:#173e7d;fill-opacity:1;fill-rule:evenodd;stroke:none"
             id="path62"
             inkscape:connector-curvature="0" /><path
             d="m 1026.95,428.852 1.68,9.375 c 0.47,2.609 1.14,7.296 1.6,10.308 h 0.21 c 0.4,-3.012 1,-7.508 1.47,-10.246 l 1.47,-9.437 z m 7.24,-6.84 1.94,-10.313 h 8.5 l -8.77,45.133 h -10.51 l -9.78,-45.133 h 8.5 l 2.01,10.313 h 8.11 v 0"
             style="fill:#173e7d;fill-opacity:1;fill-rule:evenodd;stroke:none"
             id="path64"
             inkscape:connector-curvature="0" /><path
             d="m 1077.85,431.797 h 1.88 c 3.48,-0.074 6.56,-2.418 6.56,-6.906 0,-4.621 -2.95,-6.762 -6.49,-6.762 -0.81,0 -1.41,0 -1.95,0.133 z m 0,18.414 c 0.54,0.191 1.34,0.269 2.28,0.269 3.62,0 5.16,-2.546 5.16,-5.828 0,-3.687 -2.41,-6.363 -5.56,-6.363 h -1.88 z m -8.77,-38.379 c 2.01,-0.269 4.82,-0.465 8.17,-0.465 7.57,0 12.12,1.606 14.8,4.551 2.14,2.211 3.35,5.094 3.35,8.844 0,4.949 -2.81,9.304 -8.04,10.777 v 0.27 c 4.49,1.941 6.57,5.824 6.57,9.843 0,3.153 -1.01,6.161 -3.42,8.172 -3.15,2.676 -7.24,3.215 -11.45,3.215 -3.82,0 -7.3,-0.269 -9.98,-0.871 v -44.336 0"
             style="fill:#173e7d;fill-opacity:1;fill-rule:evenodd;stroke:none"
             id="path66"
             inkscape:connector-curvature="0" /><path
             d="m 1124.93,438.824 h -10.31 v 10.375 h 10.85 v 7.633 h -19.62 v -45.133 h 20.42 v 7.633 h -11.65 v 12.191 h 10.31 v 7.301 0"
             style="fill:#173e7d;fill-opacity:1;fill-rule:nonzero;stroke:none"
             id="path68"
             inkscape:connector-curvature="0" /><path
             d="m 1141.54,411.699 h 8.78 v 37.039 h 8.04 v 8.094 h -24.79 v -8.094 h 7.97 v -37.039 0"
             style="fill:#173e7d;fill-opacity:1;fill-rule:nonzero;stroke:none"
             id="path70"
             inkscape:connector-curvature="0" /><path
             d="m 1173.21,411.699 h 8.78 v 37.039 h 8.04 v 8.094 h -24.78 v -8.094 h 7.96 v -37.039 0"
             style="fill:#173e7d;fill-opacity:1;fill-rule:nonzero;stroke:none"
             id="path72"
             inkscape:connector-curvature="0" /><path
             d="m 1218.15,438.824 h -10.31 v 10.375 h 10.85 v 7.633 h -19.62 v -45.133 h 20.43 v 7.633 h -11.66 v 12.191 h 10.31 v 7.301 0"
             style="fill:#173e7d;fill-opacity:1;fill-rule:nonzero;stroke:none"
             id="path74"
             inkscape:connector-curvature="0" /><path
             d="m 1238.65,449.941 c 0.47,0.204 1.34,0.27 2.08,0.27 3.95,-0.141 5.48,-2.883 5.48,-6.699 0,-3.953 -2.2,-7.028 -6.02,-7.028 h -1.54 z m -8.77,-38.242 h 8.77 v 18.012 h 1.27 c 2.95,0 4.35,-1.602 5.16,-7.227 0.67,-4.957 1.67,-9.511 2.21,-10.785 h 9.17 c -0.8,1.672 -2.01,7.239 -2.88,12.258 -0.87,4.816 -2.4,7.695 -5.49,8.902 V 433 c 4.62,2.137 6.97,6.492 6.97,11.316 0,3.883 -0.81,6.895 -3.55,9.375 -2.95,2.68 -7.24,3.348 -12.06,3.348 -3.34,0 -6.83,-0.336 -9.57,-0.871 v -44.469 0"
             style="fill:#173e7d;fill-opacity:1;fill-rule:evenodd;stroke:none"
             id="path76"
             inkscape:connector-curvature="0" /><path
             d="m 1280.84,411.699 h 8.78 v 18.621 h 10.18 v 7.293 h -10.18 v 11.586 h 10.84 v 7.633 h -19.62 v -45.133 0"
             style="fill:#173e7d;fill-opacity:1;fill-rule:nonzero;stroke:none"
             id="path78"
             inkscape:connector-curvature="0" /><path
             d="M 1311.25,456.832 V 428.98 c 0,-11.32 3.68,-17.816 13.13,-17.816 8.7,0 13.05,6.289 13.05,17.879 v 27.789 h -8.77 v -29.328 c 0,-6.832 -1.81,-8.641 -4.35,-8.641 -2.28,0 -4.29,2.012 -4.29,8.641 v 29.328 h -8.77 v 0"
             style="fill:#173e7d;fill-opacity:1;fill-rule:nonzero;stroke:none"
             id="path80"
             inkscape:connector-curvature="0" /><path
             d="m 1354.31,411.699 h 8.78 v 37.039 h 8.03 v 8.094 h -24.78 v -8.094 h 7.97 v -37.039 0"
             style="fill:#173e7d;fill-opacity:1;fill-rule:nonzero;stroke:none"
             id="path82"
             inkscape:connector-curvature="0" /><path
             d="M 1379.89,456.832 V 428.98 c 0,-11.32 3.69,-17.816 13.13,-17.816 8.71,0 13.06,6.289 13.06,17.879 v 27.789 h -8.77 v -29.328 c 0,-6.832 -1.81,-8.641 -4.36,-8.641 -2.27,0 -4.29,2.012 -4.29,8.641 v 29.328 h -8.77 v 0"
             style="fill:#173e7d;fill-opacity:1;fill-rule:nonzero;stroke:none"
             id="path84"
             inkscape:connector-curvature="0" /><path
             d="m 1426.84,449.941 c 0.47,0.204 1.34,0.27 2.07,0.27 3.96,-0.141 5.5,-2.883 5.5,-6.699 0,-3.953 -2.21,-7.028 -6.03,-7.028 h -1.54 z m -8.77,-38.242 h 8.77 v 18.012 h 1.27 c 2.95,0 4.35,-1.602 5.16,-7.227 0.67,-4.957 1.68,-9.511 2.21,-10.785 h 9.17 c -0.8,1.672 -2.01,7.239 -2.88,12.258 -0.87,4.816 -2.41,7.695 -5.48,8.902 V 433 c 4.61,2.137 6.96,6.492 6.96,11.316 0,3.883 -0.8,6.895 -3.55,9.375 -2.95,2.68 -7.24,3.348 -12.06,3.348 -3.35,0 -6.83,-0.336 -9.57,-0.871 v -44.469 0"
             style="fill:#173e7d;fill-opacity:1;fill-rule:evenodd;stroke:none"
             id="path86"
             inkscape:connector-curvature="0" /><path
             d="m 1473.05,438.824 h -10.31 v 10.375 h 10.84 v 7.633 h -19.62 v -45.133 h 20.43 v 7.633 h -11.65 v 12.191 h 10.31 v 7.301 0"
             style="fill:#173e7d;fill-opacity:1;fill-rule:nonzero;stroke:none"
             id="path88"
             inkscape:connector-curvature="0" /><path
             d="m 1512.16,449.738 c 3.95,0 5.16,-7.16 5.16,-15.07 0,-9.172 -1.41,-15.871 -5.09,-15.871 -3.55,0 -5.49,5.223 -5.49,15.469 0,9.711 1.94,15.472 5.42,15.472 z m 0.34,7.633 c -9.98,0 -14.87,-10.641 -14.87,-22.961 0,-12.398 4.01,-23.246 14.26,-23.246 8.57,0 14.61,6.895 14.61,23.91 0,10.309 -3.09,22.297 -14,22.297 v 0"
             style="fill:#173e7d;fill-opacity:1;fill-rule:evenodd;stroke:none"
             id="path90"
             inkscape:connector-curvature="0" /><path
             d="m 1536.48,411.699 h 8.77 v 18.621 h 10.18 v 7.293 h -10.18 v 11.586 h 10.85 v 7.633 h -19.62 v -45.133 0"
             style="fill:#173e7d;fill-opacity:1;fill-rule:nonzero;stroke:none"
             id="path92"
             inkscape:connector-curvature="0" /><path
             d="m 1586.37,411.699 h 8.77 v 37.039 h 8.04 v 8.094 h -24.79 v -8.094 h 7.98 v -37.039 0"
             style="fill:#173e7d;fill-opacity:1;fill-rule:nonzero;stroke:none"
             id="path94"
             inkscape:connector-curvature="0" /><path
             d="m 1612.21,456.832 v -45.133 h 8.78 v 18.883 h 9.18 v -18.883 h 8.77 v 45.133 h -8.77 v -18.074 h -9.18 v 18.074 h -8.78 v 0"
             style="fill:#173e7d;fill-opacity:1;fill-rule:nonzero;stroke:none"
             id="path96"
             inkscape:connector-curvature="0" /><path
             d="m 1670.21,438.824 h -10.31 v 10.375 h 10.85 v 7.633 h -19.62 v -45.133 h 20.43 v 7.633 h -11.66 v 12.191 h 10.31 v 7.301 0"
             style="fill:#173e7d;fill-opacity:1;fill-rule:nonzero;stroke:none"
             id="path98"
             inkscape:connector-curvature="0" /><path
             d="m 1709.24,437.289 h 2.38 c 4.44,-0.094 8.37,-3.078 8.37,-8.789 0,-5.887 -3.76,-8.613 -8.28,-8.613 -1.03,0 -1.79,0 -2.47,0.172 z m 0,23.445 c 0.68,0.258 1.71,0.34 2.9,0.34 4.6,0 6.56,-3.238 6.56,-7.41 0,-4.699 -3.07,-8.109 -7.08,-8.109 h -2.38 z m -11.18,-48.863 c 2.57,-0.344 6.15,-0.601 10.41,-0.601 9.64,0 15.44,2.05 18.85,5.8 2.73,2.817 4.26,6.481 4.26,11.258 0,6.313 -3.58,11.856 -10.23,13.731 v 0.339 c 5.71,2.473 8.35,7.422 8.35,12.54 0,4.003 -1.27,7.847 -4.34,10.398 -4.01,3.422 -9.22,4.098 -14.59,4.098 -4.86,0 -9.29,-0.332 -12.71,-1.11 v -56.453 0"
             style="fill:#173e7d;fill-opacity:1;fill-rule:evenodd;stroke:none"
             id="path100"
             inkscape:connector-curvature="0" /><path
             d="m 1749.3,428.852 1.68,9.375 c 0.47,2.609 1.14,7.296 1.6,10.308 h 0.21 c 0.39,-3.012 1,-7.508 1.46,-10.246 l 1.48,-9.437 z m 7.24,-6.84 1.94,-10.313 h 8.5 l -8.77,45.133 h -10.51 l -9.78,-45.133 h 8.5 l 2.01,10.313 h 8.11 v 0"
             style="fill:#173e7d;fill-opacity:1;fill-rule:evenodd;stroke:none"
             id="path102"
             inkscape:connector-curvature="0" /><path
             d="m 1776.36,411.699 h 20.36 v 7.434 h -11.59 v 37.699 h -8.77 v -45.133 0"
             style="fill:#173e7d;fill-opacity:1;fill-rule:nonzero;stroke:none"
             id="path104"
             inkscape:connector-curvature="0" /><path
             d="m 1807.43,411.699 h 8.77 v 37.039 h 8.04 v 8.094 h -24.78 v -8.094 h 7.97 v -37.039 0"
             style="fill:#173e7d;fill-opacity:1;fill-rule:nonzero;stroke:none"
             id="path106"
             inkscape:connector-curvature="0" /><path
             d="m 1833.29,456.832 v -45.133 h 8.77 v 45.133 h -8.77 v 0"
             style="fill:#173e7d;fill-opacity:1;fill-rule:nonzero;stroke:none"
             id="path108"
             inkscape:connector-curvature="0" /><path
             d="m 1875.07,419.734 c -1.07,-0.336 -2.74,-0.668 -4.22,-0.668 -5.35,0 -9.44,4.219 -9.44,15 0,11.188 4.49,15.469 9.44,15.469 1.95,0 3.08,-0.398 4.08,-0.863 l 1.49,7.367 c -0.87,0.602 -3.03,1.203 -6.1,1.203 -8.77,0 -18.22,-6.633 -18.22,-23.64 0,-12.793 5.49,-22.305 17.02,-22.305 3.07,0 5.56,0.469 6.83,1.074 l -0.88,7.363 v 0"
             style="fill:#173e7d;fill-opacity:1;fill-rule:nonzero;stroke:none"
             id="path110"
             inkscape:connector-curvature="0" /><path
             d="m 1898.41,413.492 c 1.88,-1.117 6.4,-2.304 11.01,-2.304 11.26,0 19.01,6.914 19.01,17.398 0,6.055 -2.81,11.852 -10.41,16.457 -6.21,3.754 -7.92,5.539 -7.92,8.961 0,3.066 2.3,5.961 7.08,5.961 3.24,0 5.71,-0.93 7.33,-1.957 l 1.79,9.633 c -1.71,1.027 -5.29,2.05 -9.04,2.05 -12.02,0 -18.16,-7.671 -18.16,-16.882 0,-5.2 2.98,-11.258 10.83,-16.036 4.86,-3.156 7.42,-5.207 7.42,-9.382 0,-3.75 -2.56,-6.477 -7.85,-6.477 -3.24,0 -7.16,0.938 -9.46,2.215 l -1.63,-9.637 v 0"
             style="fill:#173e7d;fill-opacity:1;fill-rule:nonzero;stroke:none"
             id="path112"
             inkscape:connector-curvature="0" /><path
             d="m 1956.87,438.824 h -10.32 v 10.375 h 10.85 v 7.633 h -19.63 v -45.133 h 20.43 v 7.633 h -11.65 v 12.191 h 10.32 v 7.301 0"
             style="fill:#173e7d;fill-opacity:1;fill-rule:nonzero;stroke:none"
             id="path114"
             inkscape:connector-curvature="0" /><path
             d="m 1976.62,428.852 1.68,9.375 c 0.47,2.609 1.13,7.296 1.61,10.308 h 0.2 c 0.4,-3.012 1,-7.508 1.46,-10.246 l 1.48,-9.437 z m 7.24,-6.84 1.94,-10.313 h 8.5 l -8.77,45.133 h -10.51 l -9.79,-45.133 h 8.51 l 2.01,10.313 h 8.11 v 0"
             style="fill:#173e7d;fill-opacity:1;fill-rule:evenodd;stroke:none"
             id="path116"
             inkscape:connector-curvature="0" /><path
             d="m 2027.52,449.941 c 0.47,0.204 1.34,0.27 2.08,0.27 3.95,-0.141 5.49,-2.883 5.49,-6.699 0,-3.953 -2.21,-7.028 -6.03,-7.028 h -1.54 z m -8.77,-38.242 h 8.77 v 18.012 h 1.27 c 2.95,0 4.35,-1.602 5.16,-7.227 0.67,-4.957 1.67,-9.511 2.21,-10.785 h 9.18 c -0.8,1.672 -2.02,7.239 -2.89,12.258 -0.87,4.816 -2.4,7.695 -5.49,8.902 V 433 c 4.62,2.137 6.97,6.492 6.97,11.316 0,3.883 -0.8,6.895 -3.55,9.375 -2.95,2.68 -7.24,3.348 -12.05,3.348 -3.35,0 -6.84,-0.336 -9.58,-0.871 v -44.469 0"
             style="fill:#173e7d;fill-opacity:1;fill-rule:evenodd;stroke:none"
             id="path118"
             inkscape:connector-curvature="0" /><path
             d="m 2073.73,438.824 h -10.31 v 10.375 h 10.85 v 7.633 h -19.63 v -45.133 h 20.43 v 7.633 h -11.65 v 12.191 h 10.31 v 7.301 0"
             style="fill:#173e7d;fill-opacity:1;fill-rule:nonzero;stroke:none"
             id="path120"
             inkscape:connector-curvature="0" /><path
             d="m 2110.5,437.02 h -12.12 v -7.168 h 4.01 v -10.914 c -0.33,-0.141 -0.93,-0.204 -1.74,-0.204 -4.08,0 -8.3,3.879 -8.3,14.727 0,11.793 4.76,15.879 10.72,15.879 2.2,0 3.88,-0.406 5.15,-1.012 l 1.55,7.57 c -1.41,0.676 -3.96,1.344 -7.38,1.344 -9.58,0 -18.95,-6.84 -19.15,-23.242 -0.13,-7.77 1.94,-14.461 5.83,-18.211 3.01,-3.023 6.89,-4.492 12.06,-4.492 3.27,0 7.42,0.805 9.37,1.605 v 24.118 0"
             style="fill:#173e7d;fill-opacity:1;fill-rule:nonzero;stroke:none"
             id="path122"
             inkscape:connector-curvature="0" /><path
             d="m 2121.48,456.832 v -45.133 h 8.78 v 45.133 h -8.78 v 0"
             style="fill:#173e7d;fill-opacity:1;fill-rule:nonzero;stroke:none"
             id="path124"
             inkscape:connector-curvature="0" /><path
             d="m 2154.83,449.738 c 3.95,0 5.15,-7.16 5.15,-15.07 0,-9.172 -1.39,-15.871 -5.08,-15.871 -3.55,0 -5.5,5.223 -5.5,15.469 0,9.711 1.95,15.472 5.43,15.472 z m 0.34,7.633 c -9.98,0 -14.87,-10.641 -14.87,-22.961 0,-12.398 4.02,-23.246 14.27,-23.246 8.56,0 14.6,6.895 14.6,23.91 0,10.309 -3.09,22.297 -14,22.297 v 0"
             style="fill:#173e7d;fill-opacity:1;fill-rule:evenodd;stroke:none"
             id="path126"
             inkscape:connector-curvature="0" /><path
             d="m 2186.84,411.699 v 10.11 c 0,9.117 -0.33,16.082 -0.53,20.629 h 0.13 c 1,-4.083 3.08,-9.77 4.56,-13.586 l 6.89,-17.153 h 8.04 v 45.133 h -7.7 v -9.973 c 0,-8.3 0.61,-16.136 0.87,-20.894 h -0.14 c -1.26,3.949 -3.48,9.711 -4.82,13.195 l -6.96,17.672 h -8.04 v -45.133 h 7.7 v 0"
             style="fill:#173e7d;fill-opacity:1;fill-rule:evenodd;stroke:none"
             id="path128"
             inkscape:connector-curvature="0" /><path
             d="m 683.832,872.02 c -5.117,-1.606 0.145,0.886 -3.445,-2.778 -0.953,-0.972 1.683,-1.625 1.75,-2.777 0.586,-0.211 2.738,-0.863 3.074,-0.524 -0.141,0.832 0.469,4.809 0.281,4.938 -0.004,0.258 0.688,0.285 0.903,0.285 0.179,0.301 0.144,0.68 -0.207,0.891 -0.922,0.562 -1.747,0.152 -2.356,-0.035 z m -29.23,-270.079 c -2.801,-0.25 0.144,-2.171 -2.149,-2.058 -0.008,0.004 -1.027,-0.035 -1.086,-0.02 -0.297,-1.425 2.086,-1.129 2.461,-2.847 0.231,-1.036 2.524,-0.157 4.277,-1.551 0.372,-0.293 0.145,0.051 0.524,-0.34 1.293,0.133 -0.793,2.043 -1.316,4.465 -0.239,1.082 -1.325,2.473 -2.711,2.351 z M 377.777,470.734 c -3.64,-2.027 -4.601,-0.605 -6.199,-0.058 -1.801,0.617 -4.023,0.703 -4.496,4.539 -3.516,1.644 -3.359,1.961 -6.066,-1.086 0.297,-0.914 0.871,-1.297 1.047,-2.383 -1.161,-0.199 -1.68,-0.5 -2.485,-0.254 -1.238,-5.887 6.512,-4.113 8.469,-8.683 0.543,-1.266 3.476,-0.504 4.629,-0.36 1.277,-0.39 3.301,-1.234 4.519,-0.457 0.258,0.16 1.676,1.059 1.391,2.199 -0.656,2.649 -1.203,5.911 -0.906,6.372 0.511,0.804 2.64,-4.618 2.945,-5.04 0.953,-1.289 -0.836,-8.324 0.461,-8.593 1.051,3.508 -1.063,4.34 2.613,7.254 0.278,0.226 1.953,0.894 1.989,1.64 0.539,0.801 0.05,0.918 0.902,0.938 0.5,0.836 -0.11,1.398 0.289,3.289 -3.711,0.781 -7.262,4.047 -9.492,1.601 -0.914,-0.582 1.332,-0.98 0.39,-0.918 z m -22.015,30.114 c -0.324,-0.727 0.074,-0.977 -0.332,-1.375 -1.121,-1.102 -4.399,-0.832 -4.606,1.168 -0.07,0.726 2.414,3.332 2.156,4.242 -0.406,1.437 -3.128,1.426 -4.761,2.902 -3.071,-1.019 -6.559,-6.117 -10.305,-2.742 -7.172,-1.672 3.871,-2.148 0.359,-7.758 -1.14,-3.183 5.016,-11.898 11.821,-13.027 2.097,-0.344 0.59,-1.278 5.234,-0.848 3.035,4.926 5.098,13.274 3.418,18.285 -0.195,0.571 0.637,1.91 0.789,2.645 -1.351,1.715 -3.152,1.527 -3.047,-0.906 0.735,-0.161 -0.48,-2.051 -0.726,-2.586 z m 42.824,19.199 -2.324,-0.859 c -0.821,-0.301 -6.11,-3.192 -6.871,-2.973 -0.141,-0.668 -0.477,-1.637 -0.399,-2.281 0.633,-0.274 4.227,-2.797 4.25,-2.938 -4.16,-4.683 -5.535,1.699 -6.258,-6.039 -3.609,-2.379 -1.867,4.082 -4.949,5.941 1.297,0.415 1.899,0.461 2.66,1.586 -0.047,0.118 -1.199,0.961 -1.476,2.036 -0.555,2.144 -0.879,3.996 -2.633,-0.09 -3.641,-8.446 -2.121,1.758 -6.527,-7.231 -3.653,0.387 -2.856,1.356 -4.868,3.168 -2.031,-0.82 -0.171,-3.422 0.711,-6.637 0.485,-1.773 -0.418,-1.164 -1.019,-2.941 -0.59,-1.762 0.945,-3.187 1.285,-3.637 1.031,-1.3 2.25,-0.687 -2.531,-5.617 -3.938,-4.058 11.152,-5.859 11.082,-7.433 -0.024,-0.473 1.418,-2.61 2.254,-2.973 0.261,-2.106 -1.035,-1.899 -1.508,-2.539 0.726,-2.238 4.125,-2.344 5.035,-2.852 -0.426,-0.886 0.762,-1.062 -0.082,-1.375 -0.445,-2.125 2.93,0.246 4.844,0.09 0.422,1.723 -1.067,3.817 -3.168,4.789 -0.071,0.559 -0.028,0.766 0.261,1.25 l 1.434,0.274 c 1.695,0.847 1.5,0.117 2.516,2.332 2.781,-0.289 0.203,0.875 6.043,0.777 0.32,1.551 2.511,2.828 1.441,3.988 -3.262,3.52 -10.723,5.43 0.258,10.317 6.273,-0.18 3.687,-0.875 5.445,-1.102 2.137,10.184 -2.59,2.332 0.61,15.074 0.367,1.461 -0.149,0.266 -0.172,1.5 1.113,0.422 1.777,0.43 2.929,0.453 0.84,1.403 -0.226,1.247 -0.375,2.442 -1.687,0.996 -3.101,1.41 -4.238,2.211 -1.125,0.789 -1.973,1.957 -3.66,1.289 z m 12.402,-70.129 c -4.375,-4.055 0.555,-2.965 -0.082,-5.031 -1.558,-0.426 -4.297,-0.285 -4.636,-0.985 -0.61,-1.254 2.285,-3.472 3.48,-4.277 1.594,-1.062 3.285,-1.09 4.785,2.176 0.469,-0.098 1.707,0.558 3.375,0.027 2.153,-0.683 3.106,-2.074 4.301,-0.226 0.98,1.515 -4.328,0.859 -6.727,4.066 0.84,0.844 2.336,2.395 4.207,2.418 1.981,0.035 2.86,0.824 2.532,2.25 -1.063,0.727 -3.868,1.043 -4.426,0.578 -0.699,-0.594 -0.309,-2.293 -0.942,-3.012 -1.64,-1.859 -3.21,-2.738 -2.734,1.664 -0.617,0.825 -1.133,1.332 -1.808,1.629 -0.2,1.571 2.402,2.168 3.691,2.164 1.988,3.332 -3.563,2.379 -3.953,2.383 -2.098,-3.515 3.762,-1.351 -1.063,-5.824 z m 41.813,27.137 c -2.321,1.133 -1.543,-1.434 -1.86,-2.672 -0.332,-1.32 -1.753,-1.629 -0.933,-2.426 -0.16,-0.805 -0.457,-1.187 -0.711,-1.844 0.726,-1.5 1.937,-3.218 3.617,-4.547 1.586,-1.253 3.609,-2.156 5.102,-2.476 0.422,1.41 2.867,3.887 2.41,5.562 -0.473,1.739 -2.699,2.481 -4.008,3.836 -2.027,2.082 -3.285,4.403 -3.617,4.567 z m 136.215,201.211 c -1.828,0.093 -3.403,-0.59 -4.633,-1.969 0.226,-0.695 1.441,-1.285 3.039,-1.086 1.277,0.164 0.758,-1.969 -0.082,-3.375 -0.5,-0.012 -1.652,-1.356 -1.883,-1.481 0.504,-0.996 -1.227,-1.39 -1.992,-0.589 0.453,0.945 0.094,1.804 -0.223,2.019 -4.379,2.942 -0.113,-1.012 -1.203,-2.64 -0.019,-0.172 -0.062,-0.704 0.547,-1.879 0.215,-0.403 0.109,-1.239 0.656,-1.68 0.692,-0.566 1.332,0.348 2.262,0.305 1.266,-0.055 4.098,-1.399 4.066,-0.817 -0.363,7.34 -3.898,4.93 -1.183,6.399 0.32,0.168 1.004,-2.09 1.418,-1.727 1.883,-0.109 2.746,-1.273 3.582,-1.551 0.301,0.547 1.406,2.821 1.535,3.438 -0.344,0.363 -1.004,2.23 -2.332,2.957 -1.406,0.781 -4.266,0.094 -4.277,0.144 0.382,0.43 1.421,3.496 0.703,3.532 z m 51.332,-59.063 c -0.711,-2.512 -0.243,-1.562 -1.137,-3.031 -1.316,-2.184 -8.828,-2.067 -9.844,-1.774 -0.644,-0.507 -0.5,-0.257 -0.597,-0.722 3.363,-3.738 8.097,1.465 8.046,-5.293 -0.011,-2.07 4.086,-2.035 4.243,-5.504 6.015,-1.262 -1.024,5.891 7.05,5.586 1.473,-0.051 2.579,0.91 2.887,2.383 -8.766,5.281 -1.992,2.461 -4.273,4.57 -5.481,5.047 -4.059,-2.145 -4.965,5.125 l -1.02,0.539 c -1.976,1.059 -0.261,-1.418 -0.39,-1.879 z m 7.953,-20.043 c -8.723,1.828 0.222,-2 -10.313,0.692 -0.922,0.23 -1.258,-0.055 -2.367,-0.082 -0.383,-0.5 -1.098,-3.543 -1.937,-4.211 -0.704,-0.563 -1.536,1.281 -2.055,0.586 -1.059,-1.403 -1.504,-2.997 -2.121,-3.102 -1.418,-0.242 -0.879,4.172 -1.996,4.148 -1.489,-0.043 -2.649,-1.476 -3.274,-1.964 -0.718,-0.567 1.969,-1.559 2.797,-4.012 3.379,-4.656 -7.113,-3.008 -2.734,-5.098 0.738,-0.351 2.496,-1.804 4.097,-2.402 0.125,-0.039 3.106,-1.633 2.852,-3.629 -0.199,-1.586 -2.039,-2.641 -2.945,-4.262 -1.067,-1.906 -1.379,-3.375 -0.371,-3.031 1.546,-0.453 1.445,-0.039 2.109,1.215 0.656,1.246 0.203,2.457 0.621,4.031 0.152,0.57 1.07,1.262 1.277,1.91 0.75,2.348 2.157,4.61 4.633,4.442 1.117,-0.075 2.821,0.714 4.774,0.168 3.965,-1.094 2.3,2.632 2.3,2.652 1.543,0.828 3.559,0.234 4.317,0.332 0.285,0.617 0.555,3.687 0.594,3.754 2.332,0.25 3.418,-1.289 4.484,3.801 -0.328,1.004 -3.238,1.863 -3.309,3.179 -1.105,0.485 -0.711,0.727 -1.433,0.883 z M 515.914,556.461 c -0.066,-0.059 -1.699,-1.856 -2.25,-1.809 -1.601,-2.039 -1.101,-3.843 -1.422,-4.91 -1.051,-3.445 1.196,-2.801 -4.613,-7.844 -1.477,-1.277 -0.918,-3.382 -6.414,-8.902 -1.652,-1.664 -0.129,-5.258 -5.063,-10.211 -0.988,-1 -1.523,-10.39 -2.039,-12.851 0.465,-0.102 0.071,-1.977 0.535,-2.075 0.032,0.246 3.645,4.457 4.692,10.778 0.137,0.801 5.687,13.988 6.164,14.39 0.883,0.762 4.066,8.727 4.934,10.121 0.785,1.243 1.304,0.977 5.386,7.692 0.383,0.633 0.821,5.5 0.766,6.25 -0.652,0.355 -0.289,-0.274 -0.676,-0.629 z m 46.512,19.414 c -2.352,-2.633 -3.172,0.629 -3.754,-0.02 -0.863,0.168 -1.438,-3.921 -3.555,-2.472 0.02,0.789 0.418,1.234 0.321,2.035 -1.852,1.117 -3.231,-0.508 -4.395,-0.469 -5.516,-9.25 -3.688,-4.707 -6.336,-7.617 -1.559,-1.707 2.02,0.336 -3.508,-4.531 -1.172,-1.031 -2.89,-5.371 -2.676,-5.93 0.625,-1.644 1.844,-2.141 2.254,-3.418 -1.289,-1.457 -2.343,-2.105 -1.953,-5.265 1.551,-0.68 2.649,-3.36 2.43,-6.512 -0.113,-1.586 -2.051,-2.664 -2.359,-4.242 -0.395,-2.047 -1.77,-3.383 -1.579,-3.989 0.122,-0.382 0.711,0.504 1.629,0.993 0.45,0.242 1.028,-0.278 1.571,0.195 0.332,0.297 -0.446,3.933 3.699,8.199 0.512,0.527 1.445,2.031 2.351,2.395 1.18,0.468 2.504,0.89 3.582,2.043 0.93,1.015 0.7,2.863 1.356,3.972 3.332,0.016 2.617,3.52 2.168,4.571 -0.84,1.96 -0.758,2.828 0.582,4.082 4.5,4.191 0.871,5.265 3.41,8.152 1.789,2.031 2.547,5.308 2.609,6.07 1.832,1.504 -2.195,-1.34 5.762,2.719 0.758,0.387 0.629,0.316 0.731,1.187 -3.164,0.665 -2.606,-0.21 -4.34,-2.148 z M 679.902,546.93 c -0.25,0.445 -0.363,0.172 -0.004,1.23 0.547,1.801 -0.394,2.766 -0.531,3.668 -0.328,2.156 -0.894,2.715 -0.621,4.168 0.074,0.543 0.434,2.309 -0.187,5.68 -0.758,4.137 0.851,6.383 0.511,8.226 -0.847,4.618 3.575,7.055 2.364,11.274 -1.848,6.422 6.933,7.191 -1.508,9.711 -3.442,1.031 -3.66,-3.485 -3.363,-3.567 5.179,-1.468 -4.711,-3.257 -5.086,-2.941 0.425,5.562 -8.075,2.859 -7.254,5.082 1.757,4.793 1.902,1.355 -0.465,5.223 -3.438,3.867 -2.293,5.398 -2.899,6.269 -1.886,2.699 0.082,2.848 2.645,3.352 1.117,0.218 0.773,0.746 1.348,1.183 3.339,2.571 -2.485,1.133 -3.86,1.422 0.051,0.235 -0.043,0.379 -0.199,0.676 -0.266,0.488 -1.434,0.996 -1.395,1.496 0.102,1.145 -0.578,2.66 0.231,3.641 0.738,0.906 5.223,0.64 5.398,1.625 0.078,0.386 -2.054,3.402 -2.648,2.539 -2.656,-0.539 -3.188,0.109 -1.379,1.176 6.5,3.824 -6.395,4.089 0.695,6.777 l 0.618,0.234 c 4.429,1.68 3.164,-0.945 3.566,0.973 -0.316,0.121 -0.297,0.625 1.812,1.555 1.168,0.515 3.711,-0.641 4.426,-0.723 0.149,0.332 0.492,3.523 1.778,4.164 1.128,0.437 2.289,0.152 3.242,0.836 1.031,0.742 1.828,2.457 2.273,2.816 1.262,0.672 0.918,-0.273 2.301,0.629 3.609,2.371 3.848,-0.41 5.23,0.059 1.079,4.707 4.711,1.176 5.321,4.062 4.543,1.7 9.82,0.887 10.148,0.832 4.422,-0.785 2.629,0.184 3.457,1.215 0.645,0.809 3.696,1.738 3.625,0 -0.097,-2.418 6.762,-1.539 6.778,-1.527 5.793,3.144 6.46,-2.719 9.375,-2.34 1.605,-0.223 6.054,-1.262 9.484,-2.516 0.934,-0.468 15.422,-1.66 17.164,-1.574 -0.004,0.582 2.418,0.977 2.012,1.289 -0.016,0.328 0.058,0.696 0.332,0.91 5.711,4.504 -1.36,3.731 2.254,6.575 3.968,3.117 -0.75,3.796 -0.512,7.089 1.918,1.422 3.293,-3.621 4.668,-3.789 3.789,-1.273 4.93,1.289 4.375,3.18 -0.668,2.266 0.039,5.066 1.766,4.637 1.011,-0.297 -1.211,-1.274 4.019,-2.852 1.492,2.5 4.34,3.75 7.406,3.364 0.094,0.484 -2.859,2.109 -0.461,4.988 2.383,2.863 14.84,-3.871 21.543,-3.508 -0.254,5.605 2.164,0.984 3.348,6.617 -2.727,0.57 -4.355,0.422 -6.504,0.875 -0.004,0.574 0.109,1.117 0.227,1.664 0.672,3.211 -9.754,6.571 -10.852,4.024 -0.644,-1.5 -7.793,-2.801 -9.117,-1.633 -1.332,1.18 2.433,0.09 -2.285,3.996 -0.274,0.699 -2.313,2.902 -3.449,3.156 -0.606,-0.629 -0.04,-0.953 -1.016,-1.281 -0.285,0.254 -4.246,0.449 -5.684,0.746 0.133,1.016 1.282,0.328 1.989,1.055 -0.504,1.859 -0.981,1.117 -1.055,1.937 -0.359,3.676 -0.594,1.106 -1.192,2.942 0.809,0.91 2.157,-0.293 3.168,-0.059 -0.386,0.555 -0.289,0.125 -0.378,0.734 -0.082,0.563 0.531,3.055 0.281,3.52 -1.434,2.73 1.226,2.164 2.183,6.719 0.403,1.925 -1.386,1.383 -1.5,1.07 -1.043,-2.82 -13.355,-9.664 -14.675,-9.66 -3.168,-1.067 -2.461,1.953 -5.496,1.48 -1.458,-4.168 -7.805,-2.613 -7.848,-2.57 -3.512,3.621 -6.672,1.539 -6.09,-0.254 -0.582,-0.785 -1.246,0.375 -3.652,-1.867 -3.969,-3.766 -6.864,-0.563 -12.016,-2.281 -1.961,-0.102 -2.461,3.047 -7.062,3.914 -1.356,-0.078 -2.946,-2.035 -3.145,-3.766 -0.176,-1.488 0.941,-2.726 1.004,-3.242 2.121,-0.984 -2.356,-3.207 -3.668,-2.418 -0.566,3.676 1.211,2.191 -2.738,0.75 -1.34,-0.484 -0.93,-2.066 -1.043,-2.938 -1.864,0.395 -4.559,2.547 -4.973,0.063 -0.133,-0.789 -14.367,-5.559 -14.434,-5.527 0,0 1.168,-5.274 -1.125,-3.707 -1.898,1.464 -4.781,-0.719 -7.171,-1.106 -3.719,-0.613 -6.938,-0.207 -8.797,-0.734 -3.082,3.101 -1.875,0.59 -3.379,-0.051 -0.383,-0.145 0.812,2.387 0.777,3.562 -0.035,1.465 -1.285,1.567 -1.816,0.336 -1.809,-4.222 -4.438,-6.879 -6.422,-8.046 -1.352,0.664 -0.352,1.195 -0.313,1.292 1.727,1.5 2.383,4.086 1.95,4.165 -0.957,0.175 -0.926,-0.313 -1.637,0.121 -0.07,0.558 -0.535,2.464 -0.535,2.476 -0.418,0.254 -0.16,-0.054 -0.637,0.242 -4.523,2.774 -7.555,5.086 -1.711,8.942 l 0.422,0.269 c 1.457,0.969 1.066,0.176 1.394,1.735 -0.402,0.117 -0.664,-0.032 -1.183,-0.047 -0.574,-0.957 -1.531,-1.93 -2.692,-2.391 -1.777,-0.707 -2.703,-0.746 -3.148,-0.801 -0.07,-0.007 -1.816,-0.765 -1.738,-1.418 0.051,-0.398 1.875,-0.601 1.976,-1.031 0.289,-1.23 0.758,-2.347 0.434,-3.508 -0.613,-2.168 -3.188,-2.992 -3.52,-3.097 -0.015,-0.008 -0.711,0.699 -1.523,0.547 -0.824,-0.149 -1.305,-0.762 -2.024,-0.629 -2.843,0.504 -1.203,1.07 -1.578,1.586 -0.359,0.5 1.094,-0.469 1.739,0.394 0.164,0.219 -0.157,1.172 0.648,1.293 1.766,0.246 2.918,0.817 2.84,1.184 -0.141,0.617 -3.824,0.375 -3.531,1.41 0.156,0.566 1.855,0.34 2.718,0.598 1.352,0.41 1.907,1.222 0.911,2.097 -3.879,-1.062 -0.192,1.528 -0.192,1.528 -0.176,0.144 -2.875,-0.805 -3.523,-0.665 0.242,1.149 1.004,1.653 2.07,2.485 1.266,0.992 1.375,1.473 1.656,3.101 -0.425,0.352 -4.785,-1.003 -5.105,-1.441 -1.781,-0.105 -3.391,3.918 -5.75,4.848 -0.16,0.066 -4.02,3.855 -4.235,4.16 -0.519,0.746 0.157,2.422 -0.953,2.91 -1.996,0.07 -3.129,-1.77 -3.652,-3.016 -0.359,-0.847 0.141,-1.718 -1.227,-1.109 l -2.136,0.816 c -0.758,0.871 0.633,2.793 0.203,3.317 -1.094,3.539 -1.957,11.508 -1.996,11.336 0.281,1.34 2.968,7.304 2.949,7.41 -0.832,5.656 2.453,7.105 0.273,14.141 -0.031,3.355 -2.238,4.441 -1.785,6.972 -0.219,2.93 1.516,7.742 0.992,11.016 -0.804,1.84 -0.437,5.394 -0.418,7.09 0.075,5.472 0.266,7.629 -1.312,8.179 -0.578,1.594 -2.516,9.668 -2.383,10.192 -0.539,4.586 -0.328,13.617 1.199,14.297 l 3.125,1.093 0.157,3.071 c 0.437,8.57 -1.782,0.379 3.168,10.449 1.152,0.152 1.57,1.894 2.25,3.371 3.093,0.398 3.132,1.527 5.836,1.367 1.046,0.981 3.671,5.262 5.042,7.106 3.333,1.75 4.891,5.089 6.563,7.894 2.664,2.25 7.164,4.289 7.781,7.379 2.246,1.195 9.031,6.16 10.137,8.024 0.012,-0.004 7.418,9.714 7.277,11.691 3.153,2.344 4.164,2.125 3.887,6.332 1.855,2.301 2.316,5.941 4.258,8.25 3.683,4.394 6.359,8.359 6.426,8.672 2.257,-0.301 4.765,1.25 8.711,2.14 0.46,2.161 1.019,8.567 0.734,9.379 l 1.684,6.168 c -0.09,1.825 -1.817,7.34 -2.59,10.313 -0.008,0.015 -11.422,6.226 -12.606,6.16 l -17.199,5.719 -5.422,0.816 -2.836,-1.898 -9.125,2.078 -6.09,-9.098 -3.363,0.004 c 0.867,-0.59 -1.074,-0.312 2.195,-2.293 -0.156,-0.863 -0.254,-1.41 -0.343,-1.848 -2.696,-0.347 -3.567,-0.406 -5.922,-1.019 -4.52,-1.176 -2.297,-2.426 -1.977,-5 0.242,-2 -2.039,-9.641 -3.207,-10.578 -2.265,-1.828 -3.926,-4.246 -5.43,-5.403 -4.457,-3.437 1.911,0.45 -2.707,-9.218 -0.726,-1.52 4.274,-4.219 5.305,-4.672 0.707,-5.473 5.875,-9.957 -0.051,-10.059 -1.683,-0.027 -3.418,-1.332 -5.879,-2.949 -4.839,-3.191 -3.105,-12.016 -8.179,-17.832 -0.614,-3.996 -5.91,-0.035 -6.332,-6.902 l -0.246,-0.969 c -0.414,-1.649 -5.883,-2.324 -7.368,-3.652 -3.086,-2.75 -5.043,-6.274 -5.183,-6.297 -2.473,-0.371 -4.371,4.507 -5.625,4.449 -0.961,-2.434 -0.985,1.406 -3.11,-5.723 -1.355,-4.57 -5.621,-0.234 -11.996,-5.789 -1.472,-1.285 -5.504,-4.055 -5.011,-6.777 5.593,-2.371 -1.594,-5.641 -2.543,-7.313 -3.039,-0.07 -0.766,0.785 -3.274,2.075 -0.64,-0.516 -2.414,-0.868 -4.445,0.113 -3.887,1.879 -4.113,1.293 0.242,-2.973 5.344,-5.238 -4.312,-7.07 -7.734,-12.277 0.422,-1.09 -0.164,-1.11 0.191,-2.207 -2.551,-2.867 -2.504,4.519 -5.25,-0.086 -1.129,-4.422 4.305,-6.754 2.977,-10.957 -2.645,-8.356 -0.051,-0.531 -6.121,-10.238 -1.829,-5.2 -1.832,-5.274 -3.305,-9.278 -0.945,-0.547 -0.953,-5.808 -1.887,-6.746 -0.574,-3.855 -1.953,-6.176 -1.496,-9.289 1.246,-8.469 -0.656,-1.32 2.078,-10.035 0.071,-0.945 0.574,-5.399 -1.441,-8.547 0.941,-1.383 0.844,-0.562 2.293,-1.238 0.633,-2.801 2.57,-3.629 1.097,-3.657 -0.285,-0.48 -2.539,-1.941 -1.636,-2.964 -0.086,-0.598 3.566,-3.25 2.668,-4.844 -0.668,-0.379 4,-2.168 8.797,-1.406 0.773,0.73 2.125,-0.157 2.523,0.086 0.395,-12.903 -1.75,-3.75 4.961,-12.516 0.129,-0.172 4.934,-8.164 3.543,-9.731 0.492,-2.171 4.383,-0.578 6.707,-5.335 5.875,-12.032 -4.852,-2.485 -3.453,-7.969 0.637,-2.481 8.332,-1.629 8.133,-3.547 -5.071,-1.07 -8.282,-3.09 -11.27,-8.094 -8.43,-1.09 -7.367,3.637 -9.93,-3.887 -0.242,-0.703 -0.437,-0.218 -0.769,-1.347 3.016,-4.149 3.156,2.953 2.387,-7.055 5.023,-3.203 0.464,-0.433 -7.399,-10.484 -0.558,-0.711 -2.707,-2.125 -3.93,-3.055 -0.187,0.125 0.153,9.898 0.122,11.613 -0.844,0.371 -4.129,1.68 -4.266,2.368 -3.797,-3.27 -0.379,-8.868 -3.023,-12.965 -0.516,-2.438 -7.59,-3.297 -9.395,-6.321 -2.934,-0.379 -18.141,3.961 -19.121,0.989 1.41,-0.836 4.527,-1.559 7.504,-2.45 3.222,-0.961 6.281,-2.128 6.82,-3.863 0.25,-0.848 1.453,-1.668 0.406,-3.133 -2.066,0.129 -5.781,3.614 -6.566,-0.113 1.391,-0.641 4.809,-10.18 -0.004,-13.723 -6.043,-4.461 8.363,-2.164 -5.621,-8.257 -5.91,-2.586 6.469,-1.766 1.66,-12.93 -5.187,-12.063 -1.851,-11.66 -3.566,-17.43 -1.91,-6.406 2.816,-1.039 0.004,-5.66 -2.989,-2.871 -4.602,-10.453 -7.559,-15.094 -2.109,-3.316 -5.902,-3.664 -6.805,-6.461 -0.078,-0.242 -0.179,-0.484 -0.261,-0.726 -0.024,-0.071 0.898,-3.492 -0.196,-6.196 -1.488,-3.703 -5.121,-6.941 -5.508,-7.644 -0.734,0.25 -1.289,3.41 -3.527,4.434 -1.648,0.769 -4.703,-0.59 -7.551,-0.668 -1.488,-0.039 -2.773,1.839 -4.101,1.183 -2.348,-1.258 -10.676,2.485 -13.278,-0.687 2.293,-1.2 4.754,-5.7 -1.406,-4.403 -5.289,1.106 -3.429,-0.535 -7.918,-5.492 -6.433,-16.265 6.324,-9.723 -4.82,-18.926 -1.004,-0.832 -0.844,-0.929 -1.09,-2.093 -3.684,0.765 -6.523,4.195 -7.703,4.554 -3.102,-0.168 -19.301,-4.199 -17.84,2.321 0.07,0.308 0.184,0.648 0.082,0.707 -6.324,3.543 2.891,7.496 3.453,10.168 -2.656,0.339 -2.23,8.261 -5.422,11.765 -0.609,0.676 -0.203,1.629 -0.421,2.438 -1.157,4.218 -4.086,8.226 -3.286,11.918 -0.422,2.617 5.555,-2.254 6.196,-2.387 1.222,5.828 -0.641,3.312 -1.868,8.891 -1.074,4.882 6.907,-2.696 8.122,3.082 0.527,2.527 -2.426,1.691 -1.122,6.082 1.043,3.511 -2.667,-2.02 -4.324,4.625 -0.746,2.98 -3.363,7.859 -6.238,9.168 -1.063,0.246 -1.594,12.839 -3.375,16.761 -0.348,0.77 0.336,2.649 0.125,3.68 -1.52,0.547 -3.219,-0.352 -3.551,-0.172 3.703,6.844 -0.406,6.485 0.867,11.106 -1.379,0.031 -4.07,-0.875 -5.171,-1.825 0.289,3.547 3.21,3.622 1.179,7.497 -0.863,1.632 0.504,3.492 0.938,4.472 -2.446,1.363 -26.535,1.77 -26.063,-0.84 0.969,-5.25 -7.48,-5.113 -2.094,-11.25 1.418,-1.621 -1.261,-2.996 -1.171,-4.59 0.164,-2.718 -0.063,-6.746 -2.477,-8.195 -3.227,-1.945 -6.832,-2.73 -5.543,-10.265 0.371,-2.161 -2.223,-6.016 -2.059,-9.204 0.098,-1.836 -1.234,-4.601 1.25,-4.968 1.262,-0.2 4.606,0.23 6.036,0.297 3.183,0.152 3.464,-0.344 3.726,-1.485 0.215,-0.949 0.414,-2.34 2.25,-4.172 3.008,-3.008 -6.722,-6.363 -7.449,-8.886 -0.121,-0.422 -1.672,-1.051 -2.117,-1.2 -0.832,0.625 0.14,2.098 0.039,2.914 -1.168,0.704 -3.098,0.27 -3.805,0.45 0.344,2.808 -4.769,1.761 -5.211,-0.899 -0.14,-0.863 -1.469,-4.652 -1.379,-4.754 0.391,-0.156 0.961,-0.113 1.325,-0.336 1.218,-9.769 -5.782,-2.832 -3.391,-9.047 -2.25,-3.433 -5.172,0.149 -7.242,-0.203 -1.528,-1.672 3.09,-5.839 -3.262,-5.566 -1.332,0.059 -3.133,-0.965 -2.043,-3.113 -4.086,-1.746 -8.73,-12.86 -5.355,-8.375 -0.54,-2.578 2.511,0.832 -1.165,-3.473 -1.945,-2.273 -1.843,-3.375 0.524,-7.176 -0.797,-1.015 -1.582,0.074 -1.797,-1.594 15.039,-2.429 3.668,-5.621 8.242,-7.621 0.153,-1.207 -0.64,-0.66 -1.203,-1.035 l -0.105,-0.504 c -2.246,-0.136 -2.68,-1.359 -3.098,-3.332 4.844,-0.59 0.551,-4.285 3.996,-7.023 2.973,-2.352 -11.648,-5.988 -5.773,-7.731 7.656,-2.269 3.507,-0.851 12.675,-6.312 6.125,-3.645 0.93,-6.434 9.731,-2.399 3.379,1.516 0.043,-3.207 1.34,-7.335 0.347,-1.102 -9.465,-4.215 -8.344,-5.137 1.23,-1.004 1.305,-4.324 3.668,-4.883 1.863,-0.441 2.207,1.84 4.582,1.781 1.723,-0.035 1.133,-1.676 3.062,-1.594 1.563,0.067 -0.207,-2.527 1.567,-2.335 1.555,0.164 2.246,-3.079 4,-2.727 0.746,0.223 -0.301,1.695 0.109,2.695 0.481,1.157 2.387,1.93 2.824,3.18 0.489,1.395 1.067,2.617 2.024,3.031 0.754,0.149 3.211,-0.09 5,0.133 1.293,0.172 1.844,0.957 2.992,0.531 2.543,-0.933 0.649,-3.703 3.25,-2.625 -0.891,0.457 0.082,1.836 1.293,2.719 1.102,0.809 2.379,1.121 2.957,1.531 1.852,1.102 5.246,-0.57 5.27,0.024 0.047,0.383 3.004,2.789 4.902,3.304 1.656,0.454 1.75,0.852 3.727,-0.578 2.054,-1.48 3.636,1.641 5.496,1.703 2.093,-0.328 0.691,-2.441 0.183,-3.871 -0.746,1.414 -0.105,-2.375 0.258,-4.312 0.246,-1.278 2.27,0.242 4.043,-0.985 1.539,-1.066 3.168,-4.652 5.844,-5.761 3.426,-0.719 3.207,0.918 4.09,0.57 4.023,-3.277 0.242,-4.019 0.562,-6.605 1.512,-0.664 2.121,-1.641 2.379,-2.727 0.301,-1.266 -2.086,-1.711 -2.309,-3.125 -0.128,-0.828 1.395,-1.379 2.25,-2.371 0.836,-0.977 1,-2.391 2.039,-2.867 1.493,0.121 2.68,-1.227 3.887,-1.391 1.008,-0.133 2.082,0.953 2.91,0.672 1.477,-0.508 1.032,-2.102 1.996,-2.879 2.395,-1.941 5,-3.449 5.153,-4.312 0.847,0.953 -1.098,2.714 -0.789,4.418 0.215,1.187 0.742,2.769 2.031,2.945 1.637,0.23 1.082,2.48 1.977,3.34 1.164,1.972 1.863,-0.371 3.41,1.679 0.597,0.801 -0.688,2.219 0.133,3.598 5.953,0.777 6.765,3.106 13.945,4.379 3.633,0.648 8.082,1.891 13.418,1.449 13.539,-1.535 6.535,2.231 17.054,9.41 7.399,3.5 5.993,0.883 12.321,3.645 0.027,3.426 10.742,4.726 13.824,4.469 4.707,-0.399 2.824,1.754 6.23,1.125 0.875,-0.164 1.102,-0.61 5.461,0.671 4.895,1.352 7.664,-0.414 9.133,-2.375 0.906,-1.203 -0.586,-2.593 -0.39,-4.156 0.214,-1.699 2.066,-3.601 1.941,-5.511 -0.414,-4.817 2.207,-7.036 4.402,-8.45 4.075,-2.636 8.161,-0.883 12.512,-2.906 0.137,-1.125 0.574,-4.281 3.008,-4.59 0.562,0.84 1.414,-0.82 1.269,1.203 0.508,1.543 3.434,2.098 6.547,3.969 1.188,0.715 1.657,2.102 2.653,3.195 1.371,1.5 3.257,2.758 5.07,3.848 2.035,1.227 3.906,0.488 5.687,1.211 2.45,1 4.555,3.215 4.645,3.812 -12.105,2.543 -2.055,-1.277 -10.363,0.465 1.25,5.946 -0.957,3.457 -1.328,6.407 -0.207,1.644 -0.485,0.007 0.023,2.445 0.715,3.789 5.207,2.668 10.77,1.469 5.71,-1.239 12.562,-2.614 18.375,-2.641 3.589,0.004 3.378,4.039 2.625,7.52 -0.465,2.171 -1.836,3.668 -0.528,5.238 0.391,0.472 0.848,-0.422 1.543,-0.035 1.461,0.804 0.477,2.238 0.672,3.847 0.27,2.207 1.113,4.637 0.629,7.356 -0.473,2.64 -2.273,5.57 -2.773,7.441 -2,6.004 -0.79,3.645 -1.051,10.641 -3.371,11.676 1.136,16.769 0.078,19.508 -6.406,16.547 4.461,11.539 1.246,19.839 -2.336,6.02 15.43,15.079 14.082,24.454 -0.488,3.214 4.996,5.086 10.668,7.296 1.094,0.43 2.312,0.684 3.219,1.407 1.867,1.492 2.687,2.316 4.031,2.66 2.344,0.594 3.816,1.723 3.918,1.703 1.066,-0.336 -0.32,-2.398 -0.324,-3.316 -0.028,-4.121 3.57,-7.246 6.156,-8.86 4.516,-5.191 8.191,-7.07 7.023,-10.008 -1.496,-3.742 1.489,-7.039 6.59,-8.519 0.914,-0.074 0.864,-1.594 1.473,-2.258 0.625,-0.687 3.586,-1.25 4.535,-1.246 4.277,0.02 10.313,0.875 13.93,6.332 1.836,2.457 0.691,6.988 1.406,7.434 l -0.266,2.621 v 0"
             style="fill:#173e7d;fill-opacity:1;fill-rule:evenodd;stroke:none"
             id="path130"
             inkscape:connector-curvature="0" /></g></g></g></g></svg>