<?xml version="1.0" encoding="UTF-8" standalone="no"?>
<!-- Generator: Adobe Illustrator 15.1.0, SVG Export Plug-In . SVG Version: 6.00 Build 0)  -->

<svg
   xmlns:dc="http://purl.org/dc/elements/1.1/"
   xmlns:cc="http://creativecommons.org/ns#"
   xmlns:rdf="http://www.w3.org/1999/02/22-rdf-syntax-ns#"
   xmlns:svg="http://www.w3.org/2000/svg"
   xmlns="http://www.w3.org/2000/svg"
   xmlns:sodipodi="http://sodipodi.sourceforge.net/DTD/sodipodi-0.dtd"
   xmlns:inkscape="http://www.inkscape.org/namespaces/inkscape"
   version="1.1"
   x="0px"
   y="0px"
   width="725.12903"
   height="200.285"
   viewBox="0 0 725.12903 200.28501"
   enable-background="new 0 0 773 227.202"
   xml:space="preserve"
   id="svg239"
   sodipodi:docname="Logo_icon_balticexplorer4_RGB.svg"
   inkscape:version="0.92.3 (5aff6ba, 2018-11-25)"><metadata
   id="metadata245"><rdf:RDF><cc:Work
       rdf:about=""><dc:format>image/svg+xml</dc:format><dc:type
         rdf:resource="http://purl.org/dc/dcmitype/StillImage" /><dc:title></dc:title></cc:Work></rdf:RDF></metadata><defs
   id="defs243" /><sodipodi:namedview
   pagecolor="#ffffff"
   bordercolor="#666666"
   borderopacity="1"
   objecttolerance="10"
   gridtolerance="10"
   guidetolerance="10"
   inkscape:pageopacity="0"
   inkscape:pageshadow="2"
   inkscape:window-width="1853"
   inkscape:window-height="1025"
   id="namedview241"
   showgrid="false"
   fit-margin-top="0"
   fit-margin-left="0"
   fit-margin-right="0"
   fit-margin-bottom="0"
   inkscape:zoom="0.6604542"
   inkscape:cx="442.16831"
   inkscape:cy="98.35817"
   inkscape:window-x="67"
   inkscape:window-y="27"
   inkscape:window-maximized="1"
   inkscape:current-layer="svg239" />
<g
   id="Layer_1"
   transform="translate(-14.127,-12.163)">
	<g
   id="g48">
		<path
   d="m 136.08,118.463 c 32.387,10.632 63.392,27.134 89.048,49.576 -16.637,1.105 -35.536,17.879 -48.34,25.222 -2.636,1.512 -6.516,2.952 -7.205,3.188 -20.935,7.198 -35.965,5.83 -53.798,5.688 -16.325,-0.131 -29.4,0.226 -42.238,10.311 C 53.75,184.94 44.917,178.94 15.083,166.606 c 26.08,-20.414 64.903,-26.668 102.296,-41.421 7.138,-2.816 18.701,-6.722 18.701,-6.722"
   id="path2"
   inkscape:connector-curvature="0"
   style="fill:#e2c58b" />
		<path
   d="m 121.223,49.96 c -9.938,0 -18.023,-8.085 -18.023,-18.023 0,-9.939 8.085,-18.024 18.023,-18.024 9.938,0 18.023,8.085 18.023,18.024 0,9.938 -8.085,18.023 -18.023,18.023"
   id="path4"
   inkscape:connector-curvature="0"
   style="fill:#ffffff" />
		<path
   d="m 121.223,15.663 c 8.988,0 16.274,7.286 16.274,16.274 0,8.987 -7.286,16.273 -16.274,16.273 -8.988,0 -16.274,-7.286 -16.274,-16.273 0,-8.988 7.286,-16.274 16.274,-16.274 m 0,-3.5 c -10.903,0 -19.774,8.87 -19.774,19.774 0,10.903 8.871,19.773 19.774,19.773 10.903,0 19.774,-8.87 19.774,-19.773 0,-10.904 -8.871,-19.774 -19.774,-19.774"
   id="path6"
   inkscape:connector-curvature="0"
   style="fill:#ffffff" />
		<path
   d="m 81.108,60.63 c -9.938,0 -18.024,-8.085 -18.024,-18.023 0,-9.939 8.086,-18.024 18.024,-18.024 9.938,0 18.023,8.085 18.023,18.024 0,9.938 -8.085,18.023 -18.023,18.023"
   id="path8"
   inkscape:connector-curvature="0"
   style="fill:#ffffff" />
		<path
   d="m 81.108,26.333 c 8.988,0 16.274,7.286 16.274,16.274 0,8.987 -7.286,16.273 -16.274,16.273 -8.988,0 -16.274,-7.286 -16.274,-16.273 0,-8.988 7.286,-16.274 16.274,-16.274 m 0,-3.5 c -10.903,0 -19.774,8.87 -19.774,19.774 0,10.903 8.871,19.773 19.774,19.773 10.903,0 19.774,-8.87 19.774,-19.773 0,-10.904 -8.871,-19.774 -19.774,-19.774"
   id="path10"
   inkscape:connector-curvature="0"
   style="fill:#ffffff" />
		<path
   d="m 166.354,59.63 c -9.938,0 -18.023,-8.085 -18.023,-18.023 0,-9.939 8.085,-18.024 18.023,-18.024 9.938,0 18.024,8.085 18.024,18.024 0,9.938 -8.086,18.023 -18.024,18.023"
   id="path12"
   inkscape:connector-curvature="0"
   style="fill:#ffffff" />
		<path
   d="m 166.354,25.333 c 8.988,0 16.274,7.286 16.274,16.274 0,8.987 -7.286,16.273 -16.274,16.273 -8.988,0 -16.274,-7.286 -16.274,-16.273 10e-4,-8.988 7.287,-16.274 16.274,-16.274 m 0,-3.5 c -10.903,0 -19.774,8.87 -19.774,19.774 0,10.903 8.871,19.773 19.774,19.773 10.903,0 19.774,-8.87 19.774,-19.773 0,-10.904 -8.871,-19.774 -19.774,-19.774"
   id="path14"
   inkscape:connector-curvature="0"
   style="fill:#ffffff" />
		<path
   d="m 94.676,78.123 c 0,3.916 1.569,12.414 2.705,15.87 l 49.426,-3.674 c 1.373,-3.748 2.133,-7.87 2.133,-12.196 0,-17.305 -12.148,-31.333 -27.132,-31.333 -14.985,0 -27.132,14.028 -27.132,31.333"
   id="path16"
   inkscape:connector-curvature="0"
   style="fill:#9aaebe" />
		<path
   stroke-miterlimit="10"
   d="m 94.676,78.123 c 0,3.916 1.569,12.414 2.705,15.87 l 49.426,-3.674 c 1.373,-3.748 2.133,-7.87 2.133,-12.196 0,-17.305 -12.148,-31.333 -27.132,-31.333 -14.985,0 -27.132,14.028 -27.132,31.333 z"
   id="path18"
   inkscape:connector-curvature="0"
   style="fill:none;stroke:#ffffff;stroke-width:3;stroke-miterlimit:10" />
		<path
   d="m 104.949,31.937 c 0,8.988 7.286,16.274 16.274,16.274 8.987,0 16.273,-7.286 16.273,-16.274 0,-8.988 -7.286,-16.274 -16.273,-16.274 -8.988,0 -16.274,7.286 -16.274,16.274"
   id="path20"
   inkscape:connector-curvature="0"
   style="fill:#9aaebe" />
		<rect
   x="113.907"
   y="42.938"
   width="14.632"
   height="19.701"
   id="rect22"
   style="fill:#9aaebe" />
		<path
   d="m 55.227,102.391 -0.332,-1.009 c -1.216,-3.701 -1.834,-7.6 -1.834,-11.589 0,-18.105 12.845,-32.834 28.632,-32.834 15.788,0 28.632,14.729 28.632,32.834 0,4.407 -0.748,8.683 -2.223,12.712 l -0.37,1.007 z"
   id="path24"
   inkscape:connector-curvature="0"
   style="fill:#9aaebe" />
		<path
   d="m 81.693,58.46 c 14.984,0 27.132,14.028 27.132,31.333 0,4.327 -0.759,8.448 -2.132,12.197 L 56.32,100.914 C 55.183,97.458 54.561,93.71 54.561,89.793 54.561,72.488 66.709,58.46 81.693,58.46 m 0,-3 c -16.615,0 -30.132,15.402 -30.132,34.333 0,4.15 0.642,8.207 1.909,12.059 l 0.663,2.016 2.123,0.046 50.373,1.075 2.143,0.046 0.738,-2.014 c 1.536,-4.194 2.315,-8.645 2.315,-13.228 0,-18.931 -13.517,-34.333 -30.132,-34.333"
   id="path26"
   inkscape:connector-curvature="0"
   style="fill:#ffffff" />
		<rect
   x="73.792"
   y="53.609001"
   width="14.632"
   height="19.701"
   id="rect28"
   style="fill:#9aaebe" />
		<path
   d="m 140.473,101.391 -0.332,-1.009 c -1.216,-3.7 -1.833,-7.599 -1.833,-11.589 0,-18.105 12.844,-32.834 28.632,-32.834 15.787,0 28.631,14.729 28.631,32.834 0,4.408 -0.748,8.684 -2.223,12.712 l -0.369,1.007 z"
   id="path30"
   inkscape:connector-curvature="0"
   style="fill:#9aaebe" />
		<path
   d="m 166.939,57.46 c 14.984,0 27.132,14.028 27.132,31.333 0,4.327 -0.759,8.448 -2.132,12.197 l -50.373,-1.076 c -1.137,-3.456 -1.759,-7.204 -1.759,-11.121 0.001,-17.305 12.149,-31.333 27.132,-31.333 m 0,-3 c -16.615,0 -30.132,15.402 -30.132,34.333 0,4.15 0.642,8.207 1.909,12.059 l 0.663,2.016 2.123,0.046 50.373,1.075 2.143,0.046 0.738,-2.014 c 1.536,-4.194 2.315,-8.645 2.315,-13.228 C 197.072,69.862 183.555,54.46 166.939,54.46"
   id="path32"
   inkscape:connector-curvature="0"
   style="fill:#ffffff" />
		<rect
   x="159.039"
   y="52.609001"
   width="14.632"
   height="19.701"
   id="rect34"
   style="fill:#9aaebe" />
		<path
   d="m 64.834,42.607 c 0,8.988 7.286,16.274 16.274,16.274 8.987,0 16.273,-7.286 16.273,-16.274 0,-8.988 -7.286,-16.274 -16.273,-16.274 -8.988,0 -16.274,7.286 -16.274,16.274"
   id="path36"
   inkscape:connector-curvature="0"
   style="fill:#9aaebe" />
		<path
   d="m 150.081,41.607 c 0,8.988 7.286,16.274 16.274,16.274 8.987,0 16.273,-7.286 16.273,-16.274 0,-8.988 -7.286,-16.274 -16.273,-16.274 -8.988,0 -16.274,7.286 -16.274,16.274"
   id="path38"
   inkscape:connector-curvature="0"
   style="fill:#9aaebe" />
		<path
   d="m 124.984,189.199 c -4.21,0 -11.299,-0.389 -18.565,-1.481 -0.983,-0.149 -5.862,-1.073 -7.219,-1.395 l -1.226,-0.292 c -1.978,-0.474 -4.023,-0.964 -6.082,-1.308 -3.7,-0.624 -6.983,-0.927 -10.034,-0.927 -4.544,0 -8.515,0.666 -12.079,2.032 -7.533,-15.804 -21.986,-26.889 -32.962,-33.475 -13.769,-8.26 -18.627,-17.737 -20.334,-23.129 1.197,0.112 2.489,0.17 3.865,0.17 18.065,0 49.049,-9.55 73.945,-17.222 12.129,-3.738 22.604,-6.966 28.709,-8.167 8.73,-1.723 26.045,-1.987 28.336,-2.015 16.03,4.621 29.693,14.822 42.909,24.689 0.512,0.384 1.067,0.581 1.646,0.581 0.541,0 0.968,-0.175 1.255,-0.31 11.622,6.59 22.275,14.947 30.302,23.743 -12.429,3.218 -24.312,8.127 -35.362,14.614 -2.546,1.493 -5.092,3.066 -7.555,4.588 -5.269,3.257 -10.717,6.624 -16.361,9.312 -13.914,6.619 -22.959,8.512 -33.045,9.417 -2.956,0.267 -6.404,0.553 -9.904,0.573 h -0.239 z"
   id="path40"
   inkscape:connector-curvature="0"
   style="fill:#567795" />
		<path
   d="m 151.1,103.745 c 15.621,4.567 29.08,14.617 42.094,24.334 1.027,0.771 2.035,0.932 2.699,0.932 0.408,0 0.773,-0.058 1.088,-0.139 10.269,5.907 19.726,13.186 27.194,20.895 -11.558,3.251 -22.625,7.959 -32.971,14.033 -2.565,1.503 -5.12,3.083 -7.592,4.61 -5.229,3.23 -10.635,6.573 -16.192,9.218 -15.158,7.212 -24.342,8.527 -32.45,9.255 -2.924,0.263 -6.33,0.546 -9.749,0.566 h -0.247 c -4.143,0 -11.124,-0.384 -18.294,-1.463 -0.965,-0.146 -5.748,-1.052 -7.077,-1.365 l -1.223,-0.292 c -2.006,-0.48 -4.08,-0.978 -6.195,-1.331 -3.798,-0.64 -7.176,-0.951 -10.326,-0.951 -4.137,0 -7.833,0.531 -11.2,1.617 -4.723,-9.216 -14.156,-21.538 -32.942,-32.81 -11.398,-6.84 -16.441,-14.466 -18.668,-19.726 0.425,0.011 0.858,0.017 1.299,0.017 18.328,0 49.451,-9.592 74.46,-17.298 12.082,-3.724 22.516,-6.94 28.533,-8.124 8.307,-1.639 24.681,-1.936 27.759,-1.978 m 0.474,-3.506 c 0,0 -19.33,0.16 -28.91,2.05 -18.561,3.653 -75.597,25.356 -102.316,25.356 -2.316,0 -4.405,-0.163 -6.221,-0.516 1.21,5.92 5.956,17.226 21.79,26.726 13.678,8.207 26.567,19.634 32.977,34.243 4.059,-1.864 8.483,-2.552 12.965,-2.552 3.258,0 6.546,0.363 9.745,0.902 2.412,0.403 4.797,1.011 7.193,1.578 1.4,0.331 6.304,1.261 7.362,1.42 6.871,1.033 14.011,1.502 18.815,1.502 0.087,0 0.174,0 0.26,0 3.43,-0.021 6.83,-0.29 10.05,-0.58 9.46,-0.851 18.8,-2.521 33.64,-9.58 8.38,-3.99 16.05,-9.28 24.05,-13.97 11.72,-6.881 24.48,-11.99 37.7,-15.12 -9.1,-10.62 -21.23,-19.82 -32.93,-26.42 -0.213,-0.118 -0.398,-0.162 -0.565,-0.162 -0.498,0 -0.837,0.394 -1.286,0.394 -0.177,0 -0.371,-0.061 -0.599,-0.231 -13.541,-10.11 -27.47,-20.42 -43.72,-25.04"
   id="path42"
   inkscape:connector-curvature="0"
   style="fill:#ffffff" />
		<path
   d="m 124.436,169.136 c -24.768,0 -44.945,-5.95 -45.146,-6.01 l -0.952,-0.285 -0.243,-0.963 C 73.25,142.721 51.168,122.586 39.306,111.769 33.877,106.819 30.469,101.994 29.176,97.428 28.144,93.785 28.88,91.606 28.968,91.369 l 0.533,-1.443 1.5,0.344 c 0.123,0.029 12.472,2.812 30.905,2.812 16.468,0 32.528,-2.152 47.733,-6.395 11.844,-3.305 22.61,-5.381 32,-6.17 2.43,-0.204 4.836,-0.308 7.151,-0.308 8.931,0 14.828,1.523 17.548,2.43 1.056,0.353 2.406,0.875 2.894,1.077 3.19,1.313 6.627,2.951 10.508,5.008 24.663,13.076 49.951,35.619 50.203,35.846 l 3.006,2.691 -4.019,0.354 c -0.13,0.013 -13.675,1.433 -33.164,16.556 -22.874,17.75 -37.769,20.889 -39.076,21.138 -9.815,2.539 -20.665,3.826 -32.252,3.826 h -0.002 z"
   id="path44"
   inkscape:connector-curvature="0"
   style="fill:#769b49" />
		<path
   d="m 148.791,81.959 c 8.721,0 14.416,1.48 16.994,2.34 1.038,0.347 2.363,0.861 2.78,1.034 3.418,1.407 6.847,3.077 10.356,4.937 24.759,13.127 49.856,35.602 49.856,35.602 0,0 -13.859,1.224 -34.084,16.917 -23.382,18.145 -38.382,20.811 -38.382,20.811 -10.775,2.795 -21.738,3.786 -31.875,3.786 -24.798,0 -44.644,-5.937 -44.644,-5.937 -4.943,-19.548 -26.807,-39.577 -39.307,-50.974 -12.5,-11.397 -9.875,-18.5 -9.875,-18.5 0,0 12.413,2.857 31.298,2.857 13.49,0 30.284,-1.459 48.202,-6.46 13.129,-3.664 23.543,-5.428 31.676,-6.111 2.518,-0.212 4.854,-0.302 7.005,-0.302 m 0,-3.5 c -2.364,0 -4.819,0.106 -7.298,0.314 -9.5,0.798 -20.375,2.894 -32.324,6.228 -15.052,4.201 -30.953,6.331 -47.261,6.331 -18.206,0 -30.394,-2.74 -30.515,-2.768 l -2.998,-0.686 -1.068,2.884 c -0.352,0.953 -3.042,9.678 10.8,22.3 11.727,10.692 33.556,30.595 38.272,49.245 l 0.487,1.926 1.903,0.57 c 0.83,0.248 20.624,6.082 45.647,6.082 11.717,0 22.698,-1.302 32.643,-3.869 1.785,-0.354 16.952,-3.763 39.76,-21.462 15.194,-11.79 27.748,-15.75 32.263,-16.197 l 7.917,-0.783 -5.908,-5.309 c -1.037,-0.929 -25.7,-22.912 -50.551,-36.087 -3.93,-2.084 -7.417,-3.746 -10.662,-5.082 -0.458,-0.188 -1.85,-0.732 -3.005,-1.117 -2.821,-0.94 -8.922,-2.52 -18.102,-2.52"
   id="path46"
   inkscape:connector-curvature="0"
   style="fill:#ffffff" />
	</g>
</g>
<g
   id="bex"
   display="none"
   style="display:none"
   transform="translate(-14.127,-12.163)">
	
		<text
   transform="translate(256.0327,151.2803)"
   display="inline"
   font-size="36"
   id="text51"
   style="font-size:36px;font-family:DINEngschriftStd;display:inline;fill:#567795">Baltic Explorer</text>

</g>
<g
   id="bex_iso"
   transform="translate(-14.127,-12.163)">
	<g
   id="g82">
		<path
   d="m 255.961,60.524 h 13.41 c 11.879,0 16.289,7.83 16.289,16.199 v 2.34 c 0,6.84 -2.25,9.359 -6.3,11.879 4.32,2.07 6.3,5.94 6.3,12.6 v 3.6 c 0,11.16 -5.31,17.459 -17.189,17.459 H 255.962 V 60.524 Z m 9.18,26.279 h 4.14 c 6.12,0 7.74,-3.15 7.74,-9 0,-5.67 -2.07,-8.64 -8.1,-8.64 h -3.78 z m 0,28.619 h 3.96 c 7.379,0 7.919,-4.5 7.919,-10.799 0,-6.39 -1.17,-9.72 -7.83,-9.72 h -4.05 v 20.519 z"
   id="path54"
   inkscape:connector-curvature="0"
   style="fill:#567795" />
		<path
   d="m 303.391,60.524 h 7.65 l 14.31,64.077 h -9.18 l -2.7,-13.77 h -12.509 l -2.7,13.77 h -9.179 z m 3.87,18.45 h -0.18 l -4.5,23.219 h 9.179 z"
   id="path56"
   inkscape:connector-curvature="0"
   style="fill:#567795" />
		<path
   d="m 329.851,60.524 h 9.18 v 54.897 h 18.179 v 9.18 h -27.359 z"
   id="path58"
   inkscape:connector-curvature="0"
   style="fill:#567795" />
		<path
   d="m 362.521,69.164 h -10.619 v -8.64 h 30.418 v 8.64 h -10.619 v 55.438 h -9.18 z"
   id="path60"
   inkscape:connector-curvature="0"
   style="fill:#567795" />
		<path
   d="m 386.641,60.524 h 9.18 v 64.077 h -9.18 z"
   id="path62"
   inkscape:connector-curvature="0"
   style="fill:#567795" />
		<path
   d="m 433.889,110.292 c 0,7.92 -6.39,14.85 -14.579,14.85 -7.02,0 -15.119,-3.42 -15.119,-15.12 V 74.744 c 0,-8.37 6.029,-14.759 14.939,-14.759 8.459,0 14.759,6.39 14.759,15.299 v 3.6 h -9.18 v -3.06 c 0,-3.6 -2.16,-6.66 -5.67,-6.66 -4.59,0 -5.669,3.149 -5.669,7.469 v 32.759 c 0,3.69 1.439,6.57 5.579,6.57 2.521,0 5.76,-1.44 5.76,-6.479 v -3.15 h 9.18 z"
   id="path64"
   inkscape:connector-curvature="0"
   style="fill:#567795" />
		<path
   d="m 458.099,60.524 h 27.359 v 8.64 h -18.18 v 18.809 h 15.84 v 8.64 h -15.84 v 18.809 h 18.18 v 9.18 h -27.359 z"
   id="path66"
   inkscape:connector-curvature="0"
   style="fill:#567795" />
		<path
   d="m 499.858,91.033 -11.97,-30.508 h 9.72 l 6.93,18.989 7.02,-18.989 h 9.72 l -12.239,30.508 13.229,33.569 h -9.72 l -8.01,-21.599 -7.919,21.599 h -9.72 z"
   id="path68"
   inkscape:connector-curvature="0"
   style="fill:#567795" />
		<path
   d="m 526.409,60.524 h 13.769 c 5.04,0 8.73,1.17 11.88,4.5 3.15,3.33 4.14,7.38 4.14,15.029 0,5.58 -0.45,9.36 -2.609,12.87 -2.521,4.14 -6.57,6.66 -13.319,6.66 h -4.681 v 25.019 H 526.41 V 60.524 Z m 9.179,30.419 h 4.41 c 7.47,0 7.56,-4.41 7.56,-10.799 0,-6.03 0,-10.979 -7.199,-10.979 h -4.771 z"
   id="path70"
   inkscape:connector-curvature="0"
   style="fill:#567795" />
		<path
   d="m 563.038,60.524 h 9.18 v 54.897 h 18.18 v 9.18 H 563.039 V 60.524 Z"
   id="path72"
   inkscape:connector-curvature="0"
   style="fill:#567795" />
		<path
   d="m 595.799,75.644 c 0,-10.439 7.919,-15.659 15.389,-15.659 7.47,0 15.39,5.22 15.39,15.659 v 33.839 c 0,10.439 -7.92,15.659 -15.39,15.659 -7.47,0 -15.389,-5.22 -15.389,-15.659 z m 9.179,33.838 c 0,4.41 2.881,6.479 6.21,6.479 3.33,0 6.21,-2.07 6.21,-6.479 V 75.644 c 0,-4.41 -2.88,-6.479 -6.21,-6.479 -3.329,0 -6.21,2.07 -6.21,6.479 z"
   id="path74"
   inkscape:connector-curvature="0"
   style="fill:#567795" />
		<path
   d="m 634.679,60.524 h 14.759 c 10.89,0 16.199,6.39 16.199,18.809 0,7.379 -2.069,12.779 -7.919,16.019 l 9.899,29.249 h -9.72 l -8.55,-27.359 h -5.49 v 27.359 h -9.179 V 60.524 Z m 9.178,28.619 h 5.22 c 6.391,0 7.38,-3.6 7.38,-9.99 0,-6.479 -1.08,-9.989 -7.829,-9.989 h -4.771 z"
   id="path76"
   inkscape:connector-curvature="0"
   style="fill:#567795" />
		<path
   d="m 673.019,60.524 h 27.358 v 8.64 h -18.18 v 18.809 h 15.84 v 8.64 h -15.84 v 18.809 h 18.18 v 9.18 h -27.358 z"
   id="path78"
   inkscape:connector-curvature="0"
   style="fill:#567795" />
		<path
   d="m 706.317,60.524 h 14.76 c 10.89,0 16.199,6.39 16.199,18.809 0,7.379 -2.069,12.779 -7.92,16.019 l 9.9,29.249 h -9.72 l -8.55,-27.359 h -5.49 v 27.359 h -9.18 V 60.524 Z m 9.18,28.619 h 5.221 c 6.39,0 7.379,-3.6 7.379,-9.99 0,-6.479 -1.08,-9.989 -7.829,-9.989 h -4.771 z"
   id="path80"
   inkscape:connector-curvature="0"
   style="fill:#567795" />
	</g>
</g>
<g
   id="BONUS_BASMATI"
   transform="translate(-14.127,-12.163)">
	<g
   id="g109">
		<path
   d="m 256.108,140.516 h 7.507 c 6.652,0 9.12,4.384 9.12,9.068 v 1.312 c 0,3.83 -1.259,5.239 -3.526,6.651 2.418,1.159 3.526,3.326 3.526,7.054 v 2.016 c 0,6.248 -2.972,9.775 -9.624,9.775 h -7.003 z m 5.14,14.713 h 2.317 c 3.427,0 4.333,-1.764 4.333,-5.038 0,-3.176 -1.159,-4.839 -4.535,-4.839 h -2.116 v 9.877 z m 0,16.023 h 2.216 c 4.132,0 4.435,-2.52 4.435,-6.045 0,-3.578 -0.655,-5.443 -4.385,-5.443 h -2.266 z"
   id="path85"
   inkscape:connector-curvature="0"
   style="fill:#567795" />
		<path
   d="m 276.261,148.98 c 0,-5.845 4.435,-8.767 8.617,-8.767 4.182,0 8.616,2.922 8.616,8.767 v 18.947 c 0,5.845 -4.434,8.767 -8.616,8.767 -4.183,0 -8.617,-2.922 -8.617,-8.767 z m 5.139,18.948 c 0,2.468 1.613,3.627 3.478,3.627 1.864,0 3.475,-1.159 3.475,-3.627 V 148.98 c 0,-2.469 -1.611,-3.628 -3.475,-3.628 -1.865,0 -3.478,1.159 -3.478,3.628 z"
   id="path87"
   inkscape:connector-curvature="0"
   style="fill:#567795" />
		<polygon
   points="309.515,162.133 309.615,162.133 309.615,140.516 314.755,140.516 314.755,176.392 309.917,176.392 302.057,154.826 301.956,154.826 301.956,176.392 296.817,176.392 296.817,140.516 301.755,140.516 "
   id="polygon89"
   style="fill:#567795" />
		<path
   d="m 335.009,168.33 c 0,4.686 -3.73,8.364 -8.314,8.364 -4.585,0 -8.314,-3.679 -8.314,-8.364 v -27.814 h 5.139 v 27.311 c 0,2.52 1.361,3.729 3.175,3.729 1.814,0 3.174,-1.209 3.174,-3.729 v -27.311 h 5.14 z"
   id="path91"
   inkscape:connector-curvature="0"
   style="fill:#567795" />
		<path
   d="m 355.464,150.846 h -5.14 v -1.16 c 0,-2.367 -1.008,-4.333 -3.627,-4.333 -2.823,0 -3.478,2.268 -3.478,4.636 0,2.771 0.252,3.729 2.923,4.788 l 3.93,1.56 c 4.534,1.714 5.392,4.587 5.392,9.828 0,6.046 -2.218,10.53 -8.87,10.53 -4.988,0 -8.767,-3.679 -8.767,-8.516 v -1.915 h 5.139 v 1.612 c 0,1.865 1.008,3.679 3.627,3.679 3.478,0 3.73,-2.065 3.73,-5.341 0,-3.83 -0.453,-4.435 -2.973,-5.443 l -3.679,-1.51 c -4.434,-1.815 -5.593,-4.737 -5.593,-9.223 0,-5.44 2.922,-9.825 8.817,-9.825 5.14,0 8.567,4.132 8.567,8.113 v 2.52 z"
   id="path93"
   inkscape:connector-curvature="0"
   style="fill:#567795" />
		<path
   d="m 366.645,140.516 h 7.508 c 6.652,0 9.121,4.384 9.121,9.068 v 1.312 c 0,3.83 -1.259,5.239 -3.527,6.651 2.419,1.159 3.527,3.326 3.527,7.054 v 2.016 c 0,6.248 -2.973,9.775 -9.623,9.775 h -7.006 z m 5.14,14.713 h 2.317 c 3.427,0 4.334,-1.764 4.334,-5.038 0,-3.176 -1.159,-4.839 -4.535,-4.839 h -2.116 z m 0,16.023 h 2.217 c 4.132,0 4.435,-2.52 4.435,-6.045 0,-3.578 -0.655,-5.443 -4.384,-5.443 h -2.268 z"
   id="path95"
   inkscape:connector-curvature="0"
   style="fill:#567795" />
		<path
   d="m 392.19,140.516 h 4.283 l 8.012,35.876 h -5.139 l -1.513,-7.71 h -7.005 l -1.512,7.71 h -5.139 z m 2.167,10.33 h -0.102 l -2.52,12.999 h 5.141 z"
   id="path97"
   inkscape:connector-curvature="0"
   style="fill:#567795" />
		<path
   d="m 422.623,150.846 h -5.141 v -1.16 c 0,-2.367 -1.007,-4.333 -3.628,-4.333 -2.82,0 -3.477,2.268 -3.477,4.636 0,2.771 0.253,3.729 2.923,4.788 l 3.93,1.56 c 4.535,1.714 5.393,4.587 5.393,9.828 0,6.046 -2.218,10.53 -8.869,10.53 -4.988,0 -8.769,-3.679 -8.769,-8.516 v -1.915 h 5.141 v 1.612 c 0,1.865 1.008,3.679 3.628,3.679 3.477,0 3.729,-2.065 3.729,-5.341 0,-3.83 -0.452,-4.435 -2.973,-5.443 l -3.678,-1.51 c -4.435,-1.815 -5.593,-4.737 -5.593,-9.223 0,-5.44 2.922,-9.825 8.818,-9.825 5.139,0 8.565,4.132 8.565,8.113 v 2.52 z"
   id="path99"
   inkscape:connector-curvature="0"
   style="fill:#567795" />
		<polygon
   points="436.98,159.512 437.08,159.512 443.631,140.516 448.62,140.516 448.62,176.392 443.48,176.392 443.48,154.575 443.38,154.575 438.29,169.992 435.721,169.992 430.682,154.575 430.581,154.575 430.581,176.392 425.441,176.392 425.441,140.516 430.38,140.516 "
   id="polygon101"
   style="fill:#567795" />
		<path
   d="m 458.14,140.516 h 4.285 l 8.01,35.876 h -5.14 l -1.512,-7.71 h -7.004 l -1.511,7.71 h -5.14 z m 2.167,10.33 h -0.101 l -2.52,12.999 h 5.141 z"
   id="path103"
   inkscape:connector-curvature="0"
   style="fill:#567795" />
		<polygon
   points="466.604,140.516 483.636,140.516 483.636,145.353 477.689,145.353 477.689,176.392 472.551,176.392 472.551,145.353 466.604,145.353 "
   id="polygon105"
   style="fill:#567795" />
		<rect
   x="485.043"
   y="140.51601"
   width="5.1399999"
   height="35.875999"
   id="rect107"
   style="fill:#567795" />
	</g>
</g>
<g
   id="baltic_sea..."
   transform="translate(-14.127,-12.163)">
	<path
   d="m 503.196,140.67 h 3.134 c 2.775,0 3.806,1.83 3.806,3.786 v 0.546 c 0,1.599 -0.524,2.188 -1.471,2.777 1.009,0.482 1.471,1.388 1.471,2.944 v 0.84 c 0,2.607 -1.239,4.08 -4.017,4.08 h -2.923 z m 2.147,6.142 h 0.967 c 1.43,0 1.808,-0.737 1.808,-2.104 0,-1.324 -0.483,-2.02 -1.892,-2.02 h -0.883 z m 0,6.687 h 0.924 c 1.725,0 1.851,-1.052 1.851,-2.522 0,-1.494 -0.273,-2.271 -1.829,-2.271 h -0.945 v 4.793 z"
   id="path112"
   inkscape:connector-curvature="0"
   style="fill:#567795" />
	<path
   d="m 516.089,154.551 h -0.043 c -0.566,0.778 -1.029,1.22 -2.06,1.22 -0.988,0 -2.314,-0.483 -2.314,-2.839 0,-2.44 0.694,-3.617 3.386,-3.617 0.295,0 0.59,0.042 1.031,0.063 v -1.116 c 0,-0.715 -0.273,-1.261 -1.072,-1.261 -0.547,0 -1.095,0.378 -1.221,1.072 h -2.082 c 0.064,-0.946 0.4,-1.744 0.968,-2.314 0.568,-0.566 1.367,-0.903 2.335,-0.903 1.787,0 3.218,1.136 3.218,3.365 v 7.423 h -2.146 z m 0,-3.49 c -0.23,-0.043 -0.399,-0.064 -0.589,-0.064 -0.925,0 -1.682,0.379 -1.682,1.515 0,0.82 0.421,1.367 1.114,1.367 0.715,0 1.156,-0.505 1.156,-1.367 v -1.451 z"
   id="path114"
   inkscape:connector-curvature="0"
   style="fill:#567795" />
	<path
   d="m 519.686,140.67 h 2.145 v 11.967 c 0,0.8 0.232,1.031 1.053,1.115 v 2.019 c -1.977,0 -3.197,-0.505 -3.197,-2.986 V 140.67 Z"
   id="path116"
   inkscape:connector-curvature="0"
   style="fill:#567795" />
	<path
   d="m 523.724,141.742 h 2.146 v 3.24 h 1.324 v 1.682 h -1.324 v 5.91 c 0,0.988 0.378,1.051 1.324,1.051 v 2.02 h -0.883 c -1.936,0 -2.587,-1.366 -2.587,-2.503 v -6.478 h -1.071 v -1.682 h 1.071 z"
   id="path118"
   inkscape:connector-curvature="0"
   style="fill:#567795" />
	<path
   d="m 528.014,140.67 h 2.146 v 2.146 h -2.146 z m 0,4.312 h 2.146 v 10.661 h -2.146 z"
   id="path120"
   inkscape:connector-curvature="0"
   style="fill:#567795" />
	<path
   d="m 534.197,152.574 c 0,0.673 0.399,1.051 1.052,1.051 0.82,0 1.01,-0.608 1.051,-1.072 h 2.146 c 0,0.884 -0.316,1.703 -0.862,2.271 -0.568,0.589 -1.346,0.946 -2.335,0.946 -1.305,0 -2.292,-0.609 -2.797,-1.536 -0.294,-0.546 -0.4,-1.303 -0.4,-2.165 v -3.513 c 0,-0.862 0.106,-1.619 0.4,-2.166 0.505,-0.926 1.492,-1.535 2.797,-1.535 1.978,0 3.197,1.43 3.197,3.406 H 536.3 c 0,-0.862 -0.398,-1.261 -1.051,-1.261 -0.653,0 -1.052,0.42 -1.052,1.22 z"
   id="path122"
   inkscape:connector-curvature="0"
   style="fill:#567795" />
	<path
   d="m 550.687,144.982 h -2.145 v -0.485 c 0,-0.988 -0.422,-1.808 -1.515,-1.808 -1.178,0 -1.452,0.946 -1.452,1.935 0,1.156 0.105,1.557 1.221,1.998 l 1.641,0.652 c 1.893,0.715 2.25,1.913 2.25,4.1 0,2.524 -0.926,4.396 -3.701,4.396 -2.082,0 -3.661,-1.535 -3.661,-3.555 v -0.798 h 2.147 v 0.672 c 0,0.778 0.421,1.535 1.514,1.535 1.451,0 1.557,-0.862 1.557,-2.229 0,-1.599 -0.19,-1.852 -1.241,-2.272 l -1.536,-0.63 c -1.85,-0.756 -2.333,-1.978 -2.333,-3.849 0,-2.273 1.219,-4.101 3.68,-4.101 2.146,0 3.575,1.724 3.575,3.385 v 1.054 z"
   id="path124"
   inkscape:connector-curvature="0"
   style="fill:#567795" />
	<path
   d="m 554.115,151.122 v 1.452 c 0,0.673 0.399,1.051 1.052,1.051 0.819,0 1.009,-0.609 1.051,-1.072 h 2.146 c 0,0.884 -0.316,1.703 -0.862,2.271 -0.569,0.589 -1.347,0.946 -2.335,0.946 -1.305,0 -2.292,-0.609 -2.797,-1.535 -0.295,-0.547 -0.4,-1.304 -0.4,-2.166 v -3.513 c 0,-0.862 0.105,-1.619 0.4,-2.165 0.505,-0.927 1.492,-1.536 2.797,-1.536 1.977,0 3.197,1.451 3.197,3.323 v 2.943 h -4.249 z m 0,-1.683 h 2.103 v -1.219 c 0,-0.8 -0.399,-1.22 -1.051,-1.22 -0.652,0 -1.052,0.42 -1.052,1.22 z"
   id="path126"
   inkscape:connector-curvature="0"
   style="fill:#567795" />
	<path
   d="m 563.999,154.551 h -0.041 c -0.568,0.778 -1.03,1.22 -2.061,1.22 -0.989,0 -2.315,-0.483 -2.315,-2.839 0,-2.44 0.694,-3.617 3.386,-3.617 0.296,0 0.591,0.042 1.031,0.063 v -1.116 c 0,-0.715 -0.272,-1.261 -1.071,-1.261 -0.547,0 -1.095,0.378 -1.221,1.072 h -2.082 c 0.063,-0.946 0.399,-1.744 0.967,-2.314 0.569,-0.566 1.367,-0.903 2.336,-0.903 1.787,0 3.217,1.136 3.217,3.365 v 7.423 h -2.146 z m 0,-3.49 c -0.23,-0.043 -0.397,-0.064 -0.588,-0.064 -0.926,0 -1.683,0.379 -1.683,1.515 0,0.82 0.421,1.367 1.114,1.367 0.716,0 1.156,-0.505 1.156,-1.367 v -1.451 z"
   id="path128"
   inkscape:connector-curvature="0"
   style="fill:#567795" />
	<polygon
   points="576.577,148.6 576.619,148.6 579.353,140.67 581.436,140.67 581.436,155.644 579.291,155.644 579.291,146.537 579.248,146.537 577.123,152.973 576.051,152.973 573.948,146.537 573.905,146.537 573.905,155.644 571.762,155.644 571.762,140.67 573.822,140.67 "
   id="polygon130"
   style="fill:#567795" />
	<path
   d="m 587.388,154.551 h -0.042 c -0.566,0.778 -1.03,1.22 -2.06,1.22 -0.99,0 -2.315,-0.483 -2.315,-2.839 0,-2.44 0.694,-3.617 3.386,-3.617 0.296,0 0.59,0.042 1.031,0.063 v -1.116 c 0,-0.715 -0.274,-1.261 -1.072,-1.261 -0.547,0 -1.094,0.378 -1.22,1.072 h -2.082 c 0.063,-0.946 0.399,-1.744 0.966,-2.314 0.57,-0.566 1.368,-0.903 2.336,-0.903 1.788,0 3.218,1.136 3.218,3.365 v 7.423 h -2.146 z m 0,-3.49 c -0.23,-0.043 -0.4,-0.064 -0.588,-0.064 -0.926,0 -1.683,0.379 -1.683,1.515 0,0.82 0.42,1.367 1.113,1.367 0.716,0 1.157,-0.505 1.157,-1.367 v -1.451 z"
   id="path132"
   inkscape:connector-curvature="0"
   style="fill:#567795" />
	<path
   d="m 591.111,144.982 h 2.145 v 1.136 c 0.883,-0.779 1.599,-1.263 2.84,-1.263 v 2.271 c -0.211,-0.084 -0.422,-0.126 -0.652,-0.126 -0.904,0 -2.188,0.567 -2.188,2.313 v 6.329 h -2.145 z"
   id="path134"
   inkscape:connector-curvature="0"
   style="fill:#567795" />
	<path
   d="m 596.957,140.67 h 2.146 v 2.146 h -2.146 z m 0,4.312 h 2.146 v 10.661 h -2.146 z"
   id="path136"
   inkscape:connector-curvature="0"
   style="fill:#567795" />
	<path
   d="m 600.87,141.742 h 2.145 v 3.24 h 1.325 v 1.682 h -1.325 v 5.91 c 0,0.988 0.378,1.051 1.325,1.051 v 2.02 h -0.883 c -1.935,0 -2.587,-1.366 -2.587,-2.503 v -6.478 h -1.072 v -1.682 h 1.072 z"
   id="path138"
   inkscape:connector-curvature="0"
   style="fill:#567795" />
	<path
   d="m 605.16,140.67 h 2.146 v 2.146 h -2.146 z m 0,4.312 h 2.146 v 10.661 h -2.146 z"
   id="path140"
   inkscape:connector-curvature="0"
   style="fill:#567795" />
	<path
   d="m 609.071,144.982 h 2.145 v 1.03 h 0.044 c 0.441,-0.674 1.03,-1.157 2.018,-1.157 0.926,0 1.536,0.547 1.914,1.073 0.526,-0.59 1.094,-1.073 2.229,-1.073 1.072,0 2.336,0.694 2.336,2.608 v 8.18 h -2.146 v -7.382 c 0,-0.778 -0.379,-1.261 -1.051,-1.261 -0.801,0 -1.073,0.525 -1.073,1.472 v 7.171 h -2.146 v -7.382 c 0,-0.778 -0.379,-1.261 -1.051,-1.261 -0.8,0 -1.074,0.525 -1.074,1.472 v 7.171 h -2.145 z"
   id="path142"
   inkscape:connector-curvature="0"
   style="fill:#567795" />
	<path
   d="m 623.48,151.122 v 1.452 c 0,0.673 0.398,1.051 1.05,1.051 0.82,0 1.009,-0.609 1.052,-1.072 h 2.146 c 0,0.884 -0.315,1.703 -0.863,2.271 -0.566,0.589 -1.346,0.946 -2.334,0.946 -1.303,0 -2.292,-0.609 -2.797,-1.535 -0.294,-0.547 -0.399,-1.304 -0.399,-2.166 v -3.513 c 0,-0.862 0.105,-1.619 0.399,-2.165 0.505,-0.927 1.494,-1.536 2.797,-1.536 1.978,0 3.197,1.451 3.197,3.323 v 2.943 h -4.248 z m 0,-1.683 h 2.102 v -1.219 c 0,-0.8 -0.399,-1.22 -1.052,-1.22 -0.651,0 -1.05,0.42 -1.05,1.22 z"
   id="path144"
   inkscape:connector-curvature="0"
   style="fill:#567795" />
	<path
   d="m 640.283,144.982 h -2.145 v -0.485 c 0,-0.988 -0.421,-1.808 -1.516,-1.808 -1.177,0 -1.451,0.946 -1.451,1.935 0,1.156 0.104,1.557 1.221,1.998 l 1.641,0.652 c 1.894,0.715 2.25,1.913 2.25,4.1 0,2.524 -0.927,4.396 -3.702,4.396 -2.081,0 -3.659,-1.535 -3.659,-3.555 v -0.798 h 2.146 v 0.672 c 0,0.778 0.42,1.535 1.514,1.535 1.452,0 1.558,-0.862 1.558,-2.229 0,-1.599 -0.189,-1.852 -1.242,-2.272 l -1.535,-0.63 c -1.851,-0.756 -2.335,-1.978 -2.335,-3.849 0,-2.273 1.221,-4.101 3.682,-4.101 2.146,0 3.575,1.724 3.575,3.385 v 1.054 z"
   id="path146"
   inkscape:connector-curvature="0"
   style="fill:#567795" />
	<path
   d="m 641.756,144.982 h 2.146 v 0.967 c 0.547,-0.61 0.969,-1.094 2.041,-1.094 0.861,0 1.492,0.316 1.87,1.01 0.252,0.464 0.357,1.115 0.357,2.291 v 4.06 c 0,1.536 -0.062,2.146 -0.336,2.586 -0.356,0.569 -0.883,0.969 -1.914,0.969 -0.84,0 -1.514,-0.399 -1.977,-1.093 h -0.042 v 5.277 h -2.146 v -14.973 z m 4.269,3.469 c 0,-0.861 -0.314,-1.45 -1.051,-1.45 -0.652,0 -1.073,0.546 -1.073,1.324 v 4.144 c 0,0.672 0.464,1.156 1.073,1.156 0.818,0 1.051,-0.589 1.051,-1.261 z"
   id="path148"
   inkscape:connector-curvature="0"
   style="fill:#567795" />
	<path
   d="m 653.996,154.551 h -0.042 c -0.567,0.778 -1.029,1.22 -2.06,1.22 -0.989,0 -2.313,-0.483 -2.313,-2.839 0,-2.44 0.692,-3.617 3.384,-3.617 0.296,0 0.592,0.042 1.031,0.063 v -1.116 c 0,-0.715 -0.273,-1.261 -1.071,-1.261 -0.547,0 -1.095,0.378 -1.222,1.072 h -2.081 c 0.063,-0.946 0.4,-1.744 0.967,-2.314 0.568,-0.566 1.368,-0.903 2.336,-0.903 1.786,0 3.217,1.136 3.217,3.365 v 7.423 h -2.146 z m 0,-3.49 c -0.23,-0.043 -0.398,-0.064 -0.589,-0.064 -0.925,0 -1.682,0.379 -1.682,1.515 0,0.82 0.421,1.367 1.115,1.367 0.716,0 1.155,-0.505 1.155,-1.367 v -1.451 z"
   id="path150"
   inkscape:connector-curvature="0"
   style="fill:#567795" />
	<path
   d="m 657.719,141.742 h 2.145 v 3.24 h 1.327 v 1.682 h -1.327 v 5.91 c 0,0.988 0.381,1.051 1.327,1.051 v 2.02 h -0.884 c -1.935,0 -2.588,-1.366 -2.588,-2.503 v -6.478 h -1.072 v -1.682 h 1.072 z"
   id="path152"
   inkscape:connector-curvature="0"
   style="fill:#567795" />
	<path
   d="m 662.01,140.67 h 2.145 v 2.146 h -2.145 z m 0,4.312 h 2.145 v 10.661 h -2.145 z"
   id="path154"
   inkscape:connector-curvature="0"
   style="fill:#567795" />
	<path
   d="m 669.981,154.551 h -0.043 c -0.568,0.778 -1.03,1.22 -2.061,1.22 -0.989,0 -2.313,-0.483 -2.313,-2.839 0,-2.44 0.693,-3.617 3.386,-3.617 0.296,0 0.589,0.042 1.031,0.063 v -1.116 c 0,-0.715 -0.274,-1.261 -1.073,-1.261 -0.546,0 -1.094,0.378 -1.22,1.072 h -2.083 c 0.065,-0.946 0.4,-1.744 0.968,-2.314 0.568,-0.566 1.368,-0.903 2.335,-0.903 1.787,0 3.218,1.136 3.218,3.365 v 7.423 h -2.145 z m 0,-3.49 c -0.23,-0.043 -0.4,-0.064 -0.59,-0.064 -0.925,0 -1.684,0.379 -1.684,1.515 0,0.82 0.422,1.367 1.116,1.367 0.715,0 1.157,-0.505 1.157,-1.367 v -1.451 z"
   id="path156"
   inkscape:connector-curvature="0"
   style="fill:#567795" />
	<path
   d="m 673.578,140.67 h 2.145 v 11.967 c 0,0.8 0.231,1.031 1.053,1.115 v 2.019 c -1.978,0 -3.197,-0.505 -3.197,-2.986 V 140.67 Z"
   id="path158"
   inkscape:connector-curvature="0"
   style="fill:#567795" />
	<path
   d="m 681.653,140.67 h 3.218 c 1.177,0 2.039,0.273 2.776,1.051 0.735,0.779 0.966,1.727 0.966,3.514 0,1.303 -0.104,2.187 -0.609,3.006 -0.588,0.968 -1.534,1.558 -3.113,1.558 h -1.093 v 5.847 h -2.145 z m 2.145,7.108 h 1.031 c 1.745,0 1.766,-1.03 1.766,-2.523 0,-1.409 0,-2.565 -1.682,-2.565 h -1.115 z"
   id="path160"
   inkscape:connector-curvature="0"
   style="fill:#567795" />
	<path
   d="m 689.962,140.67 h 2.145 v 11.967 c 0,0.8 0.231,1.031 1.052,1.115 v 2.019 c -1.978,0 -3.196,-0.505 -3.196,-2.986 V 140.67 Z"
   id="path162"
   inkscape:connector-curvature="0"
   style="fill:#567795" />
	<path
   d="m 698.058,154.551 h -0.042 c -0.566,0.778 -1.029,1.22 -2.06,1.22 -0.987,0 -2.314,-0.483 -2.314,-2.839 0,-2.44 0.694,-3.617 3.387,-3.617 0.293,0 0.589,0.042 1.029,0.063 v -1.116 c 0,-0.715 -0.272,-1.261 -1.071,-1.261 -0.548,0 -1.094,0.378 -1.221,1.072 h -2.083 c 0.063,-0.946 0.4,-1.744 0.968,-2.314 0.568,-0.566 1.368,-0.903 2.336,-0.903 1.786,0 3.217,1.136 3.217,3.365 v 7.423 h -2.146 z m 0,-3.49 c -0.231,-0.043 -0.397,-0.064 -0.588,-0.064 -0.925,0 -1.683,0.379 -1.683,1.515 0,0.82 0.421,1.367 1.115,1.367 0.715,0 1.155,-0.505 1.155,-1.367 v -1.451 z"
   id="path164"
   inkscape:connector-curvature="0"
   style="fill:#567795" />
	<path
   d="m 701.782,144.982 h 2.145 v 1.03 h 0.042 c 0.443,-0.674 1.031,-1.157 2.02,-1.157 1.072,0 2.208,0.694 2.208,2.608 v 8.18 h -2.145 v -7.382 c 0,-0.778 -0.379,-1.261 -1.052,-1.261 -0.799,0 -1.073,0.525 -1.073,1.472 v 7.171 h -2.145 z"
   id="path166"
   inkscape:connector-curvature="0"
   style="fill:#567795" />
	<path
   d="m 709.962,144.982 h 2.146 v 1.03 h 0.043 c 0.441,-0.674 1.03,-1.157 2.018,-1.157 1.073,0 2.209,0.694 2.209,2.608 v 8.18 h -2.144 v -7.382 c 0,-0.778 -0.38,-1.261 -1.053,-1.261 -0.8,0 -1.073,0.525 -1.073,1.472 v 7.171 h -2.146 z"
   id="path168"
   inkscape:connector-curvature="0"
   style="fill:#567795" />
	<path
   d="m 718.144,140.67 h 2.146 v 2.146 h -2.146 z m 0,4.312 h 2.146 v 10.661 h -2.146 z"
   id="path170"
   inkscape:connector-curvature="0"
   style="fill:#567795" />
	<path
   d="m 722.057,144.982 h 2.145 v 1.03 h 0.042 c 0.442,-0.674 1.031,-1.157 2.02,-1.157 1.072,0 2.208,0.694 2.208,2.608 v 8.18 h -2.145 v -7.382 c 0,-0.778 -0.379,-1.261 -1.052,-1.261 -0.8,0 -1.073,0.525 -1.073,1.472 v 7.171 h -2.145 z"
   id="path172"
   inkscape:connector-curvature="0"
   style="fill:#567795" />
	<path
   d="m 732.383,156.886 c 0.021,0.504 0.4,1.05 1.136,1.05 0.695,0 0.989,-0.482 0.989,-1.154 v -2.104 h -0.043 c -0.462,0.695 -1.135,1.093 -1.997,1.093 -0.863,0 -1.494,-0.314 -1.873,-1.009 -0.252,-0.462 -0.356,-1.113 -0.356,-2.292 v -4.059 c 0,-1.535 0.063,-2.145 0.335,-2.587 0.359,-0.569 0.884,-0.968 1.915,-0.968 1.052,0 1.473,0.483 2.02,1.094 v -0.967 h 2.145 v 11.966 c 0,1.451 -0.946,3.135 -3.218,3.135 -1.304,0 -2.924,-0.757 -3.196,-3.197 h 2.143 z m 0,-4.522 c 0,0.673 0.231,1.261 1.052,1.261 0.61,0 1.073,-0.483 1.073,-1.156 v -4.144 c 0,-0.778 -0.42,-1.324 -1.073,-1.324 -0.735,0 -1.052,0.589 -1.052,1.45 z"
   id="path174"
   inkscape:connector-curvature="0"
   style="fill:#567795" />
	<path
   d="m 503.344,166.851 h -1.052 v -1.681 h 1.052 v -1.453 c 0,-2.061 1.367,-2.86 2.755,-2.86 h 0.988 v 2.02 h -0.968 c -0.399,0 -0.631,0.274 -0.631,0.736 v 1.558 h 1.599 v 1.681 h -1.599 v 8.98 h -2.145 v -8.981 z"
   id="path176"
   inkscape:connector-curvature="0"
   style="fill:#567795" />
	<path
   d="m 507.55,168.744 c 0,-0.862 0.105,-1.619 0.4,-2.165 0.505,-0.927 1.492,-1.535 2.797,-1.535 1.304,0 2.292,0.608 2.797,1.535 0.294,0.546 0.399,1.303 0.399,2.165 v 3.514 c 0,0.861 -0.105,1.618 -0.399,2.165 -0.505,0.925 -1.493,1.535 -2.797,1.535 -1.305,0 -2.292,-0.61 -2.797,-1.535 -0.295,-0.547 -0.4,-1.304 -0.4,-2.165 z m 2.145,3.849 c 0,0.799 0.399,1.22 1.052,1.22 0.653,0 1.051,-0.421 1.051,-1.22 v -4.185 c 0,-0.801 -0.398,-1.221 -1.051,-1.221 -0.653,0 -1.052,0.42 -1.052,1.221 z"
   id="path178"
   inkscape:connector-curvature="0"
   style="fill:#567795" />
	<path
   d="m 515.521,165.17 h 2.146 v 1.135 c 0.884,-0.778 1.599,-1.263 2.84,-1.263 v 2.272 c -0.211,-0.084 -0.42,-0.127 -0.652,-0.127 -0.905,0 -2.188,0.568 -2.188,2.314 v 6.329 h -2.146 z"
   id="path180"
   inkscape:connector-curvature="0"
   style="fill:#567795" />
	<path
   d="m 532.767,165.17 h -2.145 v -0.485 c 0,-0.988 -0.421,-1.809 -1.515,-1.809 -1.177,0 -1.451,0.947 -1.451,1.935 0,1.157 0.104,1.558 1.22,1.999 l 1.641,0.652 c 1.893,0.715 2.25,1.913 2.25,4.1 0,2.524 -0.926,4.396 -3.7,4.396 -2.083,0 -3.66,-1.535 -3.66,-3.555 v -0.798 h 2.145 v 0.672 c 0,0.778 0.421,1.535 1.516,1.535 1.45,0 1.556,-0.862 1.556,-2.229 0,-1.598 -0.19,-1.851 -1.241,-2.271 l -1.535,-0.631 c -1.851,-0.756 -2.334,-1.977 -2.334,-3.848 0,-2.273 1.219,-4.102 3.681,-4.102 2.145,0 3.574,1.724 3.574,3.386 v 1.053 z"
   id="path182"
   inkscape:connector-curvature="0"
   style="fill:#567795" />
	<path
   d="m 540.654,175.831 h -2.145 v -1.03 h -0.043 c -0.441,0.674 -1.03,1.157 -2.02,1.157 -1.072,0 -2.208,-0.694 -2.208,-2.608 v -8.18 h 2.146 v 7.381 c 0,0.777 0.378,1.262 1.052,1.262 0.799,0 1.073,-0.525 1.073,-1.473 v -7.17 h 2.145 z"
   id="path184"
   inkscape:connector-curvature="0"
   style="fill:#567795" />
	<path
   d="m 546.312,168.156 c -0.021,-0.716 -0.526,-1.095 -1.094,-1.095 -0.673,0 -1.052,0.525 -1.052,1.072 0,0.4 0.105,0.779 0.905,1.094 l 1.261,0.505 c 1.599,0.61 2.104,1.745 2.104,3.008 0,1.767 -1.346,3.218 -3.197,3.218 -1.682,0 -3.112,-1.114 -3.195,-3.218 h 2.019 c 0.084,0.589 0.357,1.198 1.156,1.198 0.61,0 1.198,-0.441 1.198,-1.156 0,-0.589 -0.252,-0.988 -1.071,-1.305 l -1.03,-0.378 c -1.347,-0.505 -2.168,-1.514 -2.168,-2.943 0,-1.81 1.431,-3.114 3.156,-3.114 1.745,0 3.007,1.347 3.028,3.114 z"
   id="path186"
   inkscape:connector-curvature="0"
   style="fill:#567795" />
	<path
   d="m 549.824,161.929 h 2.146 v 3.241 h 1.324 v 1.681 h -1.324 v 5.91 c 0,0.989 0.379,1.052 1.324,1.052 v 2.02 h -0.883 c -1.936,0 -2.587,-1.367 -2.587,-2.503 v -6.479 h -1.071 v -1.681 h 1.071 z"
   id="path188"
   inkscape:connector-curvature="0"
   style="fill:#567795" />
	<path
   d="m 558.174,174.738 h -0.043 c -0.567,0.778 -1.028,1.22 -2.06,1.22 -0.989,0 -2.314,-0.483 -2.314,-2.839 0,-2.44 0.694,-3.617 3.386,-3.617 0.295,0 0.591,0.041 1.031,0.063 v -1.116 c 0,-0.716 -0.273,-1.262 -1.071,-1.262 -0.548,0 -1.094,0.379 -1.222,1.072 h -2.082 c 0.063,-0.945 0.4,-1.744 0.968,-2.313 0.567,-0.566 1.367,-0.904 2.336,-0.904 1.785,0 3.217,1.137 3.217,3.366 v 7.423 h -2.146 z m 0,-3.491 c -0.231,-0.042 -0.399,-0.063 -0.589,-0.063 -0.925,0 -1.683,0.379 -1.683,1.515 0,0.819 0.422,1.367 1.115,1.367 0.716,0 1.156,-0.505 1.156,-1.367 v -1.452 z"
   id="path190"
   inkscape:connector-curvature="0"
   style="fill:#567795" />
	<path
   d="m 561.897,160.856 h 2.146 v 2.145 h -2.146 z m 0,4.314 h 2.146 v 10.661 h -2.146 z"
   id="path192"
   inkscape:connector-curvature="0"
   style="fill:#567795" />
	<path
   d="m 565.809,165.17 h 2.145 v 1.029 h 0.043 c 0.441,-0.673 1.03,-1.157 2.019,-1.157 1.072,0 2.208,0.695 2.208,2.609 v 8.18 h -2.145 v -7.382 c 0,-0.778 -0.379,-1.262 -1.052,-1.262 -0.8,0 -1.073,0.525 -1.073,1.473 v 7.171 h -2.145 z"
   id="path194"
   inkscape:connector-curvature="0"
   style="fill:#567795" />
	<path
   d="m 578.049,174.738 h -0.042 c -0.567,0.778 -1.03,1.22 -2.062,1.22 -0.988,0 -2.313,-0.483 -2.313,-2.839 0,-2.44 0.694,-3.617 3.386,-3.617 0.296,0 0.59,0.041 1.031,0.063 v -1.116 c 0,-0.716 -0.274,-1.262 -1.072,-1.262 -0.547,0 -1.094,0.379 -1.22,1.072 h -2.083 c 0.064,-0.945 0.4,-1.744 0.968,-2.313 0.569,-0.566 1.367,-0.904 2.335,-0.904 1.788,0 3.218,1.137 3.218,3.366 v 7.423 h -2.146 z m 0,-3.491 c -0.23,-0.042 -0.4,-0.063 -0.588,-0.063 -0.926,0 -1.683,0.379 -1.683,1.515 0,0.819 0.42,1.367 1.113,1.367 0.716,0 1.157,-0.505 1.157,-1.367 v -1.452 z"
   id="path196"
   inkscape:connector-curvature="0"
   style="fill:#567795" />
	<path
   d="m 581.772,160.856 h 2.146 v 5.28 h 0.042 c 0.464,-0.695 1.136,-1.093 1.978,-1.093 1.03,0 1.555,0.397 1.913,0.965 0.272,0.444 0.335,1.053 0.335,2.589 v 4.058 c 0,1.179 -0.104,1.83 -0.356,2.293 -0.378,0.694 -1.009,1.01 -1.871,1.01 -1.073,0 -1.493,-0.483 -2.04,-1.094 v 0.967 h -2.146 v -14.975 z m 4.269,7.593 c 0,-0.672 -0.23,-1.262 -1.051,-1.262 -0.61,0 -1.072,0.483 -1.072,1.157 v 4.144 c 0,0.778 0.421,1.324 1.072,1.324 0.736,0 1.051,-0.589 1.051,-1.451 z"
   id="path198"
   inkscape:connector-curvature="0"
   style="fill:#567795" />
	<path
   d="m 589.828,160.856 h 2.145 v 11.968 c 0,0.799 0.231,1.031 1.052,1.114 v 2.02 c -1.978,0 -3.196,-0.506 -3.196,-2.987 v -12.115 z"
   id="path200"
   inkscape:connector-curvature="0"
   style="fill:#567795" />
	<path
   d="m 595.822,171.31 v 1.451 c 0,0.674 0.397,1.052 1.05,1.052 0.82,0 1.01,-0.61 1.052,-1.072 h 2.146 c 0,0.883 -0.315,1.703 -0.863,2.271 -0.566,0.59 -1.345,0.947 -2.334,0.947 -1.304,0 -2.292,-0.61 -2.797,-1.535 -0.293,-0.547 -0.398,-1.304 -0.398,-2.166 v -3.513 c 0,-0.862 0.105,-1.619 0.398,-2.165 0.505,-0.927 1.493,-1.537 2.797,-1.537 1.978,0 3.197,1.452 3.197,3.323 v 2.944 z m 0,-1.683 h 2.102 v -1.219 c 0,-0.801 -0.398,-1.221 -1.052,-1.221 -0.652,0 -1.05,0.42 -1.05,1.221 z"
   id="path202"
   inkscape:connector-curvature="0"
   style="fill:#567795" />
	<polygon
   points="612.921,162.875 608.672,162.875 608.672,167.271 612.374,167.271 612.374,169.291 608.672,169.291 608.672,173.687 612.921,173.687 612.921,175.831 606.526,175.831 606.526,160.856 612.921,160.856 "
   id="polygon204"
   style="fill:#567795" />
	<path
   d="m 616.454,172.761 c 0,0.674 0.399,1.052 1.052,1.052 0.819,0 1.009,-0.608 1.05,-1.072 h 2.147 c 0,0.883 -0.317,1.703 -0.863,2.271 -0.568,0.59 -1.346,0.947 -2.334,0.947 -1.306,0 -2.293,-0.61 -2.797,-1.536 -0.295,-0.546 -0.4,-1.303 -0.4,-2.165 v -3.513 c 0,-0.862 0.105,-1.619 0.4,-2.166 0.504,-0.926 1.491,-1.536 2.797,-1.536 1.977,0 3.197,1.431 3.197,3.407 h -2.147 c 0,-0.862 -0.397,-1.262 -1.05,-1.262 -0.653,0 -1.052,0.42 -1.052,1.221 z"
   id="path206"
   inkscape:connector-curvature="0"
   style="fill:#567795" />
	<path
   d="m 621.774,168.744 c 0,-0.862 0.107,-1.619 0.4,-2.165 0.505,-0.927 1.493,-1.535 2.797,-1.535 1.306,0 2.293,0.608 2.797,1.535 0.294,0.546 0.4,1.303 0.4,2.165 v 3.514 c 0,0.861 -0.106,1.618 -0.4,2.165 -0.504,0.925 -1.491,1.535 -2.797,1.535 -1.304,0 -2.292,-0.61 -2.797,-1.535 -0.293,-0.547 -0.4,-1.304 -0.4,-2.165 z m 2.148,3.849 c 0,0.799 0.397,1.22 1.05,1.22 0.653,0 1.052,-0.421 1.052,-1.22 v -4.185 c 0,-0.801 -0.399,-1.221 -1.052,-1.221 -0.653,0 -1.05,0.42 -1.05,1.221 z"
   id="path208"
   inkscape:connector-curvature="0"
   style="fill:#567795" />
	<path
   d="m 633.638,168.156 c -0.021,-0.716 -0.526,-1.095 -1.095,-1.095 -0.674,0 -1.051,0.525 -1.051,1.072 0,0.4 0.104,0.779 0.904,1.094 l 1.262,0.505 c 1.599,0.61 2.104,1.745 2.104,3.008 0,1.767 -1.347,3.218 -3.197,3.218 -1.684,0 -3.113,-1.114 -3.196,-3.218 h 2.02 c 0.083,0.589 0.355,1.198 1.155,1.198 0.611,0 1.199,-0.441 1.199,-1.156 0,-0.589 -0.254,-0.988 -1.073,-1.305 l -1.031,-0.378 c -1.345,-0.505 -2.165,-1.514 -2.165,-2.943 0,-1.81 1.43,-3.114 3.155,-3.114 1.745,0 3.008,1.347 3.029,3.114 z"
   id="path210"
   inkscape:connector-curvature="0"
   style="fill:#567795" />
	<path
   d="m 638.518,165.17 1.472,6.644 h 0.042 l 1.451,-6.644 h 2.209 l -3.071,12.512 c -0.463,1.915 -1.684,2.461 -2.964,2.461 h -0.59 v -2.02 h 0.482 c 0.864,0 1.137,-0.293 1.619,-2.775 l -2.923,-10.178 z"
   id="path212"
   inkscape:connector-curvature="0"
   style="fill:#567795" />
	<path
   d="m 648.443,168.156 c -0.021,-0.716 -0.526,-1.095 -1.093,-1.095 -0.673,0 -1.052,0.525 -1.052,1.072 0,0.4 0.105,0.779 0.904,1.094 l 1.262,0.505 c 1.598,0.61 2.104,1.745 2.104,3.008 0,1.767 -1.347,3.218 -3.197,3.218 -1.682,0 -3.112,-1.114 -3.197,-3.218 h 2.02 c 0.084,0.589 0.357,1.198 1.157,1.198 0.61,0 1.199,-0.441 1.199,-1.156 0,-0.589 -0.253,-0.988 -1.072,-1.305 l -1.031,-0.378 c -1.346,-0.505 -2.168,-1.514 -2.168,-2.943 0,-1.81 1.431,-3.114 3.156,-3.114 1.746,0 3.008,1.347 3.027,3.114 z"
   id="path214"
   inkscape:connector-curvature="0"
   style="fill:#567795" />
	<path
   d="m 651.956,161.929 h 2.145 v 3.241 h 1.326 v 1.681 h -1.326 v 5.91 c 0,0.989 0.38,1.052 1.326,1.052 v 2.02 h -0.884 c -1.935,0 -2.587,-1.367 -2.587,-2.503 v -6.479 h -1.072 v -1.681 h 1.072 z"
   id="path216"
   inkscape:connector-curvature="0"
   style="fill:#567795" />
	<path
   d="m 658.202,171.31 v 1.451 c 0,0.674 0.4,1.052 1.053,1.052 0.819,0 1.009,-0.61 1.052,-1.072 h 2.146 c 0,0.883 -0.315,1.703 -0.862,2.271 -0.569,0.59 -1.347,0.947 -2.335,0.947 -1.306,0 -2.293,-0.61 -2.797,-1.535 -0.295,-0.547 -0.4,-1.304 -0.4,-2.166 v -3.513 c 0,-0.862 0.105,-1.619 0.4,-2.165 0.504,-0.927 1.491,-1.537 2.797,-1.537 1.977,0 3.197,1.452 3.197,3.323 v 2.944 z m 0,-1.683 h 2.104 v -1.219 c 0,-0.801 -0.399,-1.221 -1.052,-1.221 -0.653,0 -1.053,0.42 -1.053,1.221 v 1.219 z"
   id="path218"
   inkscape:connector-curvature="0"
   style="fill:#567795" />
	<path
   d="m 664.028,165.17 h 2.146 v 1.029 h 0.043 c 0.441,-0.673 1.03,-1.157 2.018,-1.157 0.925,0 1.536,0.548 1.914,1.074 0.526,-0.59 1.094,-1.074 2.229,-1.074 1.072,0 2.335,0.695 2.335,2.609 v 8.18 h -2.146 v -7.382 c 0,-0.778 -0.379,-1.262 -1.051,-1.262 -0.801,0 -1.073,0.525 -1.073,1.473 v 7.171 h -2.146 v -7.382 c 0,-0.778 -0.379,-1.262 -1.051,-1.262 -0.8,0 -1.073,0.525 -1.073,1.473 v 7.171 h -2.146 V 165.17 Z"
   id="path220"
   inkscape:connector-curvature="0"
   style="fill:#567795" />
	<path
   d="m 688.298,165.17 h -2.144 v -0.485 c 0,-0.988 -0.421,-1.809 -1.515,-1.809 -1.177,0 -1.45,0.947 -1.45,1.935 0,1.157 0.104,1.558 1.22,1.999 l 1.64,0.652 c 1.893,0.715 2.249,1.913 2.249,4.1 0,2.524 -0.924,4.396 -3.699,4.396 -2.083,0 -3.66,-1.535 -3.66,-3.555 v -0.798 h 2.145 v 0.672 c 0,0.778 0.422,1.535 1.516,1.535 1.45,0 1.556,-0.862 1.556,-2.229 0,-1.598 -0.189,-1.851 -1.24,-2.271 l -1.535,-0.631 c -1.852,-0.756 -2.335,-1.977 -2.335,-3.848 0,-2.273 1.219,-4.102 3.681,-4.102 2.146,0 3.573,1.724 3.573,3.386 v 1.053 z"
   id="path222"
   inkscape:connector-curvature="0"
   style="fill:#567795" />
	<path
   d="m 691.728,171.31 v 1.451 c 0,0.674 0.4,1.052 1.051,1.052 0.822,0 1.01,-0.61 1.053,-1.072 h 2.146 c 0,0.883 -0.315,1.703 -0.862,2.271 -0.567,0.59 -1.347,0.947 -2.336,0.947 -1.303,0 -2.292,-0.61 -2.797,-1.535 -0.294,-0.547 -0.399,-1.304 -0.399,-2.166 v -3.513 c 0,-0.862 0.105,-1.619 0.399,-2.165 0.505,-0.927 1.494,-1.537 2.797,-1.537 1.979,0 3.198,1.452 3.198,3.323 v 2.944 z m 0,-1.683 h 2.104 v -1.219 c 0,-0.801 -0.4,-1.221 -1.053,-1.221 -0.65,0 -1.051,0.42 -1.051,1.221 z"
   id="path224"
   inkscape:connector-curvature="0"
   style="fill:#567795" />
	<path
   d="m 697.553,165.17 h 2.146 v 1.135 c 0.884,-0.778 1.598,-1.263 2.84,-1.263 v 2.272 c -0.211,-0.084 -0.422,-0.127 -0.652,-0.127 -0.904,0 -2.188,0.568 -2.188,2.314 v 6.329 h -2.146 z"
   id="path226"
   inkscape:connector-curvature="0"
   style="fill:#567795" />
	<polygon
   points="702.874,165.17 705.146,165.17 706.578,171.982 706.619,171.982 708.049,165.17 710.32,165.17 707.544,175.831 705.651,175.831 "
   id="polygon228"
   style="fill:#567795" />
	<path
   d="m 711.182,160.856 h 2.145 v 2.145 h -2.145 z m 0,4.314 h 2.145 v 10.661 h -2.145 z"
   id="path230"
   inkscape:connector-curvature="0"
   style="fill:#567795" />
	<path
   d="m 717.365,172.761 c 0,0.674 0.4,1.052 1.053,1.052 0.82,0 1.009,-0.608 1.051,-1.072 h 2.146 c 0,0.883 -0.315,1.703 -0.862,2.271 -0.568,0.59 -1.347,0.947 -2.334,0.947 -1.305,0 -2.293,-0.61 -2.798,-1.536 -0.295,-0.546 -0.399,-1.303 -0.399,-2.165 v -3.513 c 0,-0.862 0.104,-1.619 0.399,-2.166 0.505,-0.926 1.493,-1.536 2.798,-1.536 1.977,0 3.196,1.431 3.196,3.407 h -2.146 c 0,-0.862 -0.399,-1.262 -1.051,-1.262 -0.652,0 -1.053,0.42 -1.053,1.221 z"
   id="path232"
   inkscape:connector-curvature="0"
   style="fill:#567795" />
	<path
   d="m 724.832,171.31 v 1.451 c 0,0.674 0.399,1.052 1.051,1.052 0.821,0 1.011,-0.61 1.053,-1.072 h 2.146 c 0,0.883 -0.315,1.703 -0.862,2.271 -0.568,0.59 -1.346,0.947 -2.336,0.947 -1.304,0 -2.291,-0.61 -2.795,-1.535 -0.295,-0.547 -0.4,-1.304 -0.4,-2.166 v -3.513 c 0,-0.862 0.105,-1.619 0.4,-2.165 0.504,-0.927 1.491,-1.537 2.795,-1.537 1.979,0 3.198,1.452 3.198,3.323 v 2.944 z m 0,-1.683 h 2.104 v -1.219 c 0,-0.801 -0.398,-1.221 -1.053,-1.221 -0.651,0 -1.051,0.42 -1.051,1.221 z"
   id="path234"
   inkscape:connector-curvature="0"
   style="fill:#567795" />
	<path
   d="m 734.549,168.156 c -0.021,-0.716 -0.526,-1.095 -1.094,-1.095 -0.673,0 -1.051,0.525 -1.051,1.072 0,0.4 0.104,0.779 0.904,1.094 l 1.261,0.505 c 1.599,0.61 2.104,1.745 2.104,3.008 0,1.767 -1.345,3.218 -3.196,3.218 -1.683,0 -3.114,-1.114 -3.197,-3.218 h 2.02 c 0.084,0.589 0.355,1.198 1.156,1.198 0.611,0 1.198,-0.441 1.198,-1.156 0,-0.589 -0.252,-0.988 -1.072,-1.305 l -1.03,-0.378 c -1.347,-0.505 -2.167,-1.514 -2.167,-2.943 0,-1.81 1.432,-3.114 3.156,-3.114 1.744,0 3.007,1.347 3.028,3.114 z"
   id="path236"
   inkscape:connector-curvature="0"
   style="fill:#567795" />
</g>
</svg>