<?xml version="1.0" encoding="UTF-8" standalone="no"?>
<svg
   xmlns:dc="http://purl.org/dc/elements/1.1/"
   xmlns:cc="http://creativecommons.org/ns#"
   xmlns:rdf="http://www.w3.org/1999/02/22-rdf-syntax-ns#"
   xmlns:svg="http://www.w3.org/2000/svg"
   xmlns="http://www.w3.org/2000/svg"
   xmlns:sodipodi="http://sodipodi.sourceforge.net/DTD/sodipodi-0.dtd"
   xmlns:inkscape="http://www.inkscape.org/namespaces/inkscape"
   id="svg8"
   version="1.1"
   viewBox="0 0 143.96564 63.590488"
   height="63.590488mm"
   width="143.96564mm"
   sodipodi:docname="logo_short.svg"
   inkscape:version="0.92.4 (33fec40, 2019-01-16)">
  <sodipodi:namedview
     pagecolor="#ffffff"
     bordercolor="#666666"
     borderopacity="1"
     objecttolerance="10"
     gridtolerance="10"
     guidetolerance="10"
     inkscape:pageopacity="0"
     inkscape:pageshadow="2"
     inkscape:window-width="1853"
     inkscape:window-height="1025"
     id="namedview77"
     showgrid="false"
     inkscape:zoom="0.88666448"
     inkscape:cx="219.08246"
     inkscape:cy="235.09575"
     inkscape:window-x="67"
     inkscape:window-y="27"
     inkscape:window-maximized="1"
     inkscape:current-layer="svg8" />
  <defs
     id="defs2">
    <filter
       id="filter269"
       style="color-interpolation-filters:sRGB">
      <feFlood
         id="feFlood259"
         result="flood"
         flood-color="rgb(0,0,0)"
         flood-opacity="0.498039" />
      <feComposite
         id="feComposite261"
         result="composite1"
         operator="in"
         in2="SourceGraphic"
         in="flood" />
      <feGaussianBlur
         id="feGaussianBlur263"
         result="blur"
         stdDeviation="1"
         in="composite1" />
      <feOffset
         id="feOffset265"
         result="offset"
         dy="-1"
         dx="-1" />
      <feComposite
         id="feComposite267"
         result="composite2"
         operator="over"
         in2="offset"
         in="SourceGraphic" />
    </filter>
    <filter
       id="filter297"
       style="color-interpolation-filters:sRGB">
      <feFlood
         id="feFlood287"
         result="flood"
         flood-color="rgb(0,0,0)"
         flood-opacity="0.498039" />
      <feComposite
         id="feComposite289"
         result="composite1"
         operator="in"
         in2="SourceGraphic"
         in="flood" />
      <feGaussianBlur
         id="feGaussianBlur291"
         result="blur"
         stdDeviation="1"
         in="composite1" />
      <feOffset
         id="feOffset293"
         result="offset"
         dy="-1"
         dx="-1" />
      <feComposite
         id="feComposite295"
         result="composite2"
         operator="over"
         in2="offset"
         in="SourceGraphic" />
    </filter>
    <filter
       id="filter350"
       style="color-interpolation-filters:sRGB">
      <feFlood
         id="feFlood340"
         result="flood"
         flood-color="rgb(0,0,0)"
         flood-opacity="0.498039" />
      <feComposite
         id="feComposite342"
         result="composite1"
         operator="in"
         in2="SourceGraphic"
         in="flood" />
      <feGaussianBlur
         id="feGaussianBlur344"
         result="blur"
         stdDeviation="0.5"
         in="composite1" />
      <feOffset
         id="feOffset346"
         result="offset"
         dy="-0.5"
         dx="-0.5" />
      <feComposite
         id="feComposite348"
         result="composite2"
         operator="over"
         in2="offset"
         in="SourceGraphic" />
    </filter>
    <filter
       style="color-interpolation-filters:sRGB;"
       inkscape:label="Drop Shadow"
       id="filter971">
      <feFlood
         flood-opacity="0.498039"
         flood-color="rgb(0,0,0)"
         result="flood"
         id="feFlood961" />
      <feComposite
         in="flood"
         in2="SourceGraphic"
         operator="in"
         result="composite1"
         id="feComposite963" />
      <feGaussianBlur
         in="composite1"
         stdDeviation="0.3"
         result="blur"
         id="feGaussianBlur965" />
      <feOffset
         dx="-0.3"
         dy="-0.3"
         result="offset"
         id="feOffset967" />
      <feComposite
         in="SourceGraphic"
         in2="offset"
         operator="over"
         result="composite2"
         id="feComposite969" />
    </filter>
  </defs>
  <metadata
     id="metadata5">
    <rdf:RDF>
      <cc:Work
         rdf:about="">
        <dc:format>image/svg+xml</dc:format>
        <dc:type
           rdf:resource="http://purl.org/dc/dcmitype/StillImage" />
        <dc:title />
      </cc:Work>
    </rdf:RDF>
  </metadata>
  <text
     display="inline"
     font-size="36"
     id="text342"
     style="font-size:9.52499962px;font-family:DINEngschriftStd;display:inline;fill:#567795;stroke-width:0.26458332"
     x="-3.3338873"
     y="1235.9257">Baltic Explorer</text>
  <flowRoot
     xml:space="preserve"
     id="flowRoot598"
     style="font-style:normal;font-weight:normal;font-size:40px;line-height:1.25;font-family:sans-serif;letter-spacing:0px;word-spacing:0px;fill:#000000;fill-opacity:1;stroke:none"
     transform="matrix(0.26458333,0,0,0.26458333,-10.128843,125.79499)"><flowRegion
       id="flowRegion600"><rect
         id="rect602"
         width="255.24644"
         height="41.878925"
         x="13.058549"
         y="-19.044924" /></flowRegion><flowPara
       id="flowPara604" /></flowRoot>  <g
     id="bex"
     display="none"
     style="display:none"
     transform="matrix(0.26458333,0,0,0.26458333,-61.769108,47.006054)">
    <text
       transform="translate(256.0327,151.2803)"
       display="inline"
       font-size="36"
       id="text51"
       style="font-size:36px;font-family:DINEngschriftStd;display:inline;fill:#567795">Baltic Explorer</text>
  </g>
  <g
     id="g1015">
    <g
       transform="translate(-12.226168,-120.43932)"
       style="filter:url(#filter269)"
       id="g257">
      <path
         inkscape:connector-curvature="0"
         id="path293"
         d="m 50.390248,153.86374 c 8.56906,2.81305 16.772466,7.1792 23.560616,13.11698 -4.401873,0.29237 -9.402233,4.73049 -12.789958,6.67332 -0.697442,0.40005 -1.724025,0.78105 -1.906323,0.84349 -5.539052,1.90447 -9.515739,1.54252 -14.234054,1.50495 -4.319323,-0.0347 -7.77875,0.0598 -11.175471,2.72812 -5.237956,-7.27816 -7.57502,-8.86566 -15.468599,-12.12903 6.900333,-5.4012 17.172252,-7.05591 27.065816,-10.9593 1.888596,-0.74507 4.947973,-1.77853 4.947973,-1.77853"
         style="fill:#e2c58b;stroke:#fffffb;stroke-width:1.05833328;stroke-miterlimit:4;stroke-dasharray:none;stroke-opacity:1" />
      <path
         inkscape:connector-curvature="0"
         id="path295"
         d="m 46.459333,135.73899 c -2.629429,0 -4.768585,-2.13916 -4.768585,-4.76859 0,-2.62969 2.139156,-4.76885 4.768585,-4.76885 2.629429,0 4.768586,2.13916 4.768586,4.76885 0,2.62943 -2.139157,4.76859 -4.768586,4.76859"
         style="fill:#ffffff;stroke-width:0.26458332" />
      <path
         inkscape:connector-curvature="0"
         id="path297"
         d="m 46.459333,126.66457 c 2.378075,0 4.305829,1.92776 4.305829,4.30583 0,2.37781 -1.927754,4.30557 -4.305829,4.30557 -2.378075,0 -4.305829,-1.92776 -4.305829,-4.30557 0,-2.37807 1.927754,-4.30583 4.305829,-4.30583 m 0,-0.92604 c -2.884752,0 -5.23187,2.34685 -5.23187,5.23187 0,2.88475 2.347118,5.23161 5.23187,5.23161 2.884752,0 5.231871,-2.34686 5.231871,-5.23161 0,-2.88502 -2.347119,-5.23187 -5.231871,-5.23187"
         style="fill:#ffffff;stroke-width:0.26458332" />
      <path
         inkscape:connector-curvature="0"
         id="path299"
         d="m 35.845573,138.56209 c -2.629429,0 -4.76885,-2.13916 -4.76885,-4.76859 0,-2.62969 2.139421,-4.76885 4.76885,-4.76885 2.629429,0 4.768585,2.13916 4.768585,4.76885 0,2.62943 -2.139156,4.76859 -4.768585,4.76859"
         style="fill:#ffffff;stroke-width:0.26458332" />
      <path
         inkscape:connector-curvature="0"
         id="path301"
         d="m 35.845573,129.48768 c 2.378075,0 4.305829,1.92775 4.305829,4.30582 0,2.37782 -1.927754,4.30557 -4.305829,4.30557 -2.378075,0 -4.305829,-1.92775 -4.305829,-4.30557 0,-2.37807 1.927754,-4.30582 4.305829,-4.30582 m 0,-0.92605 c -2.884752,0 -5.231871,2.34686 -5.231871,5.23187 0,2.88476 2.347119,5.23161 5.231871,5.23161 2.884752,0 5.231871,-2.34685 5.231871,-5.23161 0,-2.88501 -2.347119,-5.23187 -5.231871,-5.23187"
         style="fill:#ffffff;stroke-width:0.26458332" />
      <path
         inkscape:connector-curvature="0"
         id="path303"
         d="m 58.400244,138.29751 c -2.62943,0 -4.768586,-2.13916 -4.768586,-4.76859 0,-2.62969 2.139156,-4.76885 4.768586,-4.76885 2.629429,0 4.76885,2.13916 4.76885,4.76885 0,2.62943 -2.139421,4.76859 -4.76885,4.76859"
         style="fill:#ffffff;stroke-width:0.26458332" />
      <path
         inkscape:connector-curvature="0"
         id="path305"
         d="m 58.400244,129.22309 c 2.378075,0 4.305829,1.92776 4.305829,4.30583 0,2.37781 -1.927754,4.30557 -4.305829,4.30557 -2.378075,0 -4.30583,-1.92776 -4.30583,-4.30557 2.65e-4,-2.37807 1.928019,-4.30583 4.30583,-4.30583 m 0,-0.92604 c -2.884752,0 -5.231871,2.34685 -5.231871,5.23187 0,2.88475 2.347119,5.23161 5.231871,5.23161 2.884752,0 5.23187,-2.34686 5.23187,-5.23161 0,-2.88502 -2.347118,-5.23187 -5.23187,-5.23187"
         style="fill:#ffffff;stroke-width:0.26458332" />
      <path
         inkscape:connector-curvature="0"
         id="path307"
         d="m 39.43544,143.19045 c 0,1.0361 0.415131,3.28453 0.715698,4.19893 l 13.077295,-0.97208 c 0.363273,-0.99165 0.564356,-2.08227 0.564356,-3.22685 0,-4.57862 -3.214158,-8.29019 -7.178674,-8.29019 -3.964782,0 -7.178675,3.71157 -7.178675,8.29019"
         style="fill:#9aaebe;stroke-width:0.26458332" />
      <path
         inkscape:connector-curvature="0"
         id="path309"
         d="m 39.43544,143.19045 c 0,1.0361 0.415131,3.28453 0.715698,4.19893 l 13.077295,-0.97208 c 0.363273,-0.99165 0.564356,-2.08227 0.564356,-3.22685 0,-4.57862 -3.214158,-8.29019 -7.178674,-8.29019 -3.964782,0 -7.178675,3.71157 -7.178675,8.29019 z"
         stroke-miterlimit="10"
         style="fill:none;stroke:#ffffff;stroke-width:0.79374999;stroke-miterlimit:10" />
      <path
         inkscape:connector-curvature="0"
         id="path311"
         d="m 42.153504,130.9704 c 0,2.37808 1.927754,4.30583 4.305829,4.30583 2.377811,0 4.305565,-1.92775 4.305565,-4.30583 0,-2.37807 -1.927754,-4.30583 -4.305565,-4.30583 -2.378075,0 -4.305829,1.92776 -4.305829,4.30583"
         style="fill:#9aaebe;stroke-width:0.26458332" />
      <rect
         id="rect313"
         height="5.2125564"
         width="3.8713832"
         y="133.88109"
         x="44.52364"
         style="fill:#9aaebe;stroke-width:0.26458332" />
      <path
         inkscape:connector-curvature="0"
         id="path315"
         d="m 28.997892,149.61135 -0.08784,-0.26696 c -0.321733,-0.97922 -0.485246,-2.01083 -0.485246,-3.06626 0,-4.79028 3.398573,-8.68733 7.57555,-8.68733 4.177242,0 7.57555,3.89705 7.57555,8.68733 0,1.16602 -0.197908,2.29738 -0.588169,3.36339 l -0.0979,0.26643 z"
         style="fill:#9aaebe;stroke-width:0.26458332" />
      <path
         inkscape:connector-curvature="0"
         id="path317"
         d="m 36.000354,137.98794 c 3.964517,0 7.178675,3.71158 7.178675,8.29019 0,1.14486 -0.200819,2.2352 -0.564091,3.22713 l -13.327857,-0.28469 c -0.300831,-0.9144 -0.465402,-1.90606 -0.465402,-2.94244 0,-4.57861 3.214159,-8.29019 7.178675,-8.29019 m 0,-0.79375 c -4.396052,0 -7.972425,4.07512 -7.972425,9.08394 0,1.09802 0.169863,2.17144 0.50509,3.19061 l 0.175419,0.5334 0.56171,0.0122 13.327856,0.28442 0.567002,0.0122 0.195263,-0.53287 c 0.4064,-1.10966 0.61251,-2.28732 0.61251,-3.49991 0,-5.00882 -3.576373,-9.08394 -7.972425,-9.08394"
         style="fill:#ffffff;stroke-width:0.26458332" />
      <rect
         id="rect319"
         height="5.2125564"
         width="3.8713832"
         y="136.70445"
         x="33.909882"
         style="fill:#9aaebe;stroke-width:0.26458332" />
      <path
         inkscape:connector-curvature="0"
         id="path321"
         d="m 51.552562,149.34677 -0.08784,-0.26696 c -0.321734,-0.97896 -0.484981,-2.01057 -0.484981,-3.06626 0,-4.79028 3.398308,-8.68733 7.575549,-8.68733 4.176977,0 7.575286,3.89705 7.575286,8.68733 0,1.16628 -0.197909,2.29764 -0.588169,3.36338 l -0.09763,0.26644 z"
         style="fill:#9aaebe;stroke-width:0.26458332" />
      <path
         inkscape:connector-curvature="0"
         id="path323"
         d="m 58.555025,137.72336 c 3.964516,0 7.178675,3.71158 7.178675,8.29019 0,1.14485 -0.200819,2.2352 -0.564092,3.22712 l -13.327856,-0.28469 c -0.300831,-0.9144 -0.465402,-1.90606 -0.465402,-2.94243 2.64e-4,-4.57861 3.214423,-8.29019 7.178675,-8.29019 m 0,-0.79375 c -4.396052,0 -7.972425,4.07511 -7.972425,9.08394 0,1.09802 0.169862,2.17144 0.50509,3.19061 l 0.175418,0.5334 0.561711,0.0122 13.327856,0.28443 0.567002,0.0122 0.195262,-0.53287 c 0.4064,-1.10966 0.612511,-2.28732 0.612511,-3.49991 2.64e-4,-5.00883 -3.576109,-9.08394 -7.972425,-9.08394"
         style="fill:#ffffff;stroke-width:0.26458332" />
      <rect
         id="rect325"
         height="5.2125564"
         width="3.8713832"
         y="136.43987"
         x="56.464817"
         style="fill:#9aaebe;stroke-width:0.26458332" />
      <path
         inkscape:connector-curvature="0"
         id="path327"
         d="m 31.539744,133.7935 c 0,2.37808 1.927754,4.30583 4.305829,4.30583 2.37781,0 4.305565,-1.92775 4.305565,-4.30583 0,-2.37807 -1.927755,-4.30582 -4.305565,-4.30582 -2.378075,0 -4.305829,1.92775 -4.305829,4.30582"
         style="fill:#9aaebe;stroke-width:0.26458332" />
      <path
         inkscape:connector-curvature="0"
         id="path329"
         d="m 54.094679,133.52892 c 0,2.37808 1.927754,4.30583 4.305829,4.30583 2.377811,0 4.305565,-1.92775 4.305565,-4.30583 0,-2.37807 -1.927754,-4.30583 -4.305565,-4.30583 -2.378075,0 -4.305829,1.92776 -4.305829,4.30583"
         style="fill:#9aaebe;stroke-width:0.26458332" />
      <path
         inkscape:connector-curvature="0"
         id="path331"
         d="m 47.454431,172.5793 c -1.113896,0 -2.989527,-0.10292 -4.911989,-0.39184 -0.260086,-0.0394 -1.550988,-0.2839 -1.910027,-0.3691 l -0.32438,-0.0773 c -0.523345,-0.12541 -1.064418,-0.25505 -1.609195,-0.34607 -0.978959,-0.1651 -1.847586,-0.24527 -2.654829,-0.24527 -1.202267,0 -2.252928,0.17621 -3.195903,0.53763 -1.993106,-4.18147 -5.817129,-7.11438 -8.721195,-8.85692 -3.643048,-2.18546 -4.928394,-4.69292 -5.380038,-6.11955 0.316707,0.0296 0.658548,0.045 1.022615,0.045 4.779698,0 12.977548,-2.52677 19.564614,-4.55666 3.209131,-0.98901 5.980642,-1.84308 7.595923,-2.16085 2.309813,-0.45587 6.891073,-0.52572 7.497233,-0.53313 4.241271,1.22264 7.856273,3.92165 11.353006,6.53229 0.135467,0.1016 0.282311,0.15373 0.435505,0.15373 0.143139,0 0.256116,-0.0463 0.332052,-0.082 3.074987,1.7436 5.893593,3.95472 8.017404,6.282 -3.288507,0.85143 -6.43255,2.15027 -9.356196,3.86662 -0.673629,0.39502 -1.347258,0.81121 -1.998927,1.21391 -1.39409,0.86175 -2.83554,1.7526 -4.328848,2.4638 -3.681412,1.75127 -6.074569,2.25213 -8.743156,2.49158 -0.782108,0.0706 -1.694392,0.14631 -2.620433,0.15161 h -0.06324 z"
         style="fill:#567795;stroke-width:0.26458332" />
      <path
         inkscape:connector-curvature="0"
         id="path333"
         d="m 54.364289,149.9696 c 4.133057,1.20835 7.694084,3.86742 11.137371,6.43837 0.271727,0.204 0.538427,0.24659 0.714111,0.24659 0.10795,0 0.204522,-0.0153 0.287866,-0.0368 2.717006,1.56289 5.219171,3.48879 7.195079,5.52846 -3.058054,0.86016 -5.986198,2.10582 -8.723577,3.7129 -0.678656,0.39767 -1.354666,0.81571 -2.008716,1.21973 -1.383507,0.85461 -2.813844,1.73911 -4.284134,2.43893 -4.010554,1.90818 -6.440487,2.2561 -8.585729,2.44872 -0.773641,0.0696 -1.674812,0.14446 -2.579423,0.14975 h -0.06535 c -1.096168,0 -2.943225,-0.1016 -4.840287,-0.38708 -0.255323,-0.0386 -1.520825,-0.27834 -1.872456,-0.36116 l -0.323586,-0.0773 c -0.530754,-0.127 -1.0795,-0.25876 -1.639093,-0.35216 -1.004888,-0.16933 -1.89865,-0.25162 -2.732088,-0.25162 -1.094581,0 -2.072481,0.1405 -2.963333,0.42784 -1.249627,-2.4384 -3.745442,-5.6986 -8.715904,-8.68098 -3.015721,-1.80975 -4.350015,-3.82747 -4.939242,-5.21917 0.112448,0.003 0.227013,0.004 0.343694,0.004 4.849283,0 13.08391,-2.53788 19.700875,-4.57676 3.196695,-0.98531 5.957358,-1.83621 7.549356,-2.14947 2.197894,-0.43366 6.530181,-0.51224 7.344568,-0.52335 m 0.125413,-0.92763 c 0,0 -5.114396,0.0423 -7.649104,0.5424 -4.910931,0.96652 -20.001706,6.70877 -27.071108,6.70877 -0.612775,0 -1.16549,-0.0431 -1.645973,-0.13652 0.320146,1.56633 1.575858,4.55771 5.765271,7.07125 3.618971,2.17144 7.029185,5.19483 8.725164,9.06013 1.073944,-0.49319 2.244461,-0.67522 3.430323,-0.67522 0.862013,0 1.731963,0.0961 2.578365,0.23866 0.638175,0.10662 1.269206,0.26749 1.903148,0.41751 0.370416,0.0876 1.667933,0.33364 1.947862,0.37571 1.817952,0.27331 3.707077,0.3974 4.978135,0.3974 0.02302,0 0.04604,0 0.06879,0 0.907521,-0.006 1.807104,-0.0767 2.659063,-0.15346 2.502958,-0.22516 4.974166,-0.66701 8.900583,-2.53471 2.217208,-1.05568 4.246562,-2.45533 6.363229,-3.69623 3.100916,-1.82059 6.477,-3.17235 9.974791,-4.0005 -2.407708,-2.80987 -5.617104,-5.24404 -8.712729,-6.99029 -0.05636,-0.0312 -0.105304,-0.0429 -0.149489,-0.0429 -0.131763,0 -0.221457,0.10425 -0.340254,0.10425 -0.04683,0 -0.09816,-0.0161 -0.158486,-0.0611 -3.582723,-2.67494 -7.268104,-5.40279 -11.567583,-6.62517"
         style="fill:#ffffff;stroke-width:0.26458332" />
      <path
         inkscape:connector-curvature="0"
         id="path335"
         d="m 47.30944,167.27097 c -6.5532,0 -11.891698,-1.57427 -11.944879,-1.59015 l -0.251884,-0.0754 -0.06429,-0.2548 c -1.281906,-5.06862 -7.124435,-10.396 -10.262922,-13.258 -1.436423,-1.30969 -2.338123,-2.5863 -2.680229,-3.79439 -0.27305,-0.96388 -0.07832,-1.54041 -0.05503,-1.60311 l 0.141023,-0.3818 0.396875,0.091 c 0.03254,0.008 3.299883,0.74401 8.176948,0.74401 4.357158,0 8.606366,-0.56938 12.629356,-1.69201 3.133725,-0.87445 5.982229,-1.42372 8.466667,-1.63248 0.642937,-0.054 1.279525,-0.0815 1.892035,-0.0815 2.362994,0 3.923242,0.40296 4.642908,0.64293 0.2794,0.0934 0.636588,0.23152 0.765704,0.28496 0.844021,0.3474 1.753394,0.78079 2.780242,1.32503 6.525419,3.4597 13.216202,9.4242 13.282877,9.48426 l 0.795337,0.71199 -1.06336,0.0937 c -0.0344,0.003 -3.618177,0.37915 -8.774642,4.38045 -6.052079,4.69635 -9.993047,5.52688 -10.338858,5.59276 -2.596885,0.67178 -5.467614,1.01229 -8.533341,1.01229 h -5.29e-4 z"
         style="fill:#769b49;stroke-width:0.26458332" />
      <path
         inkscape:connector-curvature="0"
         id="path337"
         d="m 53.753367,144.20539 c 2.307431,0 3.814233,0.39158 4.496329,0.61912 0.274637,0.0918 0.62521,0.22781 0.735541,0.27358 0.904346,0.37227 1.811602,0.81413 2.740025,1.30625 6.550819,3.47319 13.191067,9.4197 13.191067,9.4197 0,0 -3.666861,0.32385 -9.018058,4.47595 -6.186488,4.80087 -10.155238,5.50625 -10.155238,5.50625 -2.850885,0.73951 -5.751512,1.00171 -8.433593,1.00171 -6.561138,0 -11.812059,-1.57083 -11.812059,-1.57083 -1.307835,-5.17208 -7.092685,-10.47142 -10.399977,-13.48687 -3.307291,-3.01546 -2.61276,-4.8948 -2.61276,-4.8948 0,0 3.284273,0.75592 8.280929,0.75592 3.569229,0 8.012642,-0.38603 12.753446,-1.70921 3.473714,-0.96943 6.229085,-1.43616 8.380941,-1.61687 0.666221,-0.0561 1.284288,-0.0799 1.853407,-0.0799 m 0,-0.92604 c -0.625475,0 -1.275028,0.028 -1.93093,0.0831 -2.513541,0.21113 -5.390885,0.7657 -8.552391,1.64782 -3.982508,1.11152 -8.189648,1.67508 -12.504473,1.67508 -4.817004,0 -8.041746,-0.72496 -8.07376,-0.73237 l -0.793221,-0.1815 -0.282575,0.76306 c -0.09313,0.25214 -0.804863,2.56063 2.8575,5.9002 3.102769,2.82893 8.878358,8.09493 10.126133,13.02941 l 0.128852,0.50959 0.503502,0.15081 c 0.219604,0.0656 5.456767,1.6092 12.077436,1.6092 3.100122,0 6.005512,-0.34449 8.636793,-1.02368 0.472281,-0.0937 4.485217,-0.99562 10.519833,-5.67849 4.02008,-3.11943 7.341659,-4.16718 8.536252,-4.28545 l 2.094707,-0.20717 -1.563159,-1.40467 c -0.274373,-0.2458 -6.799791,-6.06214 -13.374952,-9.54802 -1.039812,-0.55139 -1.962414,-0.99113 -2.820987,-1.34461 -0.121179,-0.0497 -0.489479,-0.19368 -0.795073,-0.29554 -0.74639,-0.24871 -2.360612,-0.66675 -4.789487,-0.66675"
         style="fill:#ffffff;stroke-width:0.26458332" />
    </g>
    <g
       style="filter:url(#filter971)"
       id="g1309">
      <g
         id="g1290"
         transform="translate(0,-0.11121859)">
        <g
           transform="translate(-0.534363,4.2200525)"
           id="g1272">
          <path
             d="m 70.110545,7.8151451 h 3.548062 c 3.142986,0 4.309798,2.0716874 4.309798,4.2859849 v 0.619125 c 0,1.80975 -0.595312,2.476236 -1.666875,3.142986 1.143,0.547687 1.666875,1.571625 1.666875,3.33375 v 0.9525 c 0,2.95275 -1.404937,4.61936 -4.547923,4.61936 H 70.11081 V 7.8151451 Z M 72.53942,14.76813 h 1.095375 c 1.61925,0 2.047875,-0.833437 2.047875,-2.38125 0,-1.500187 -0.547688,-2.286 -2.143125,-2.286 H 72.53942 Z m 0,7.572111 h 1.04775 c 1.95236,0 2.095235,-1.190625 2.095235,-2.857236 0,-1.690687 -0.309562,-2.57175 -2.071687,-2.57175 h -1.071563 v 5.428986 z"
             id="path54"
             inkscape:connector-curvature="0"
             style="fill:#567795;stroke-width:0.26458332" />
          <path
             d="m 82.659732,7.8151451 h 2.024063 l 3.786187,16.9537059 h -2.428875 l -0.714375,-3.643312 h -3.309673 l -0.714375,3.643312 h -2.42861 z m 1.023938,4.8815629 h -0.04763 l -1.190625,6.14336 h 2.42861 z"
             id="path56"
             inkscape:connector-curvature="0"
             style="fill:#567795;stroke-width:0.26458332" />
          <path
             d="m 89.660607,7.8151451 h 2.428875 V 22.339976 h 4.809861 v 2.428875 h -7.238736 z"
             id="path58"
             inkscape:connector-curvature="0"
             style="fill:#567795;stroke-width:0.26458332" />
          <path
             d="M 98.304545,10.101145 H 95.494934 V 7.8151451 h 8.048096 v 2.2859999 h -2.80961 v 14.667971 h -2.428875 z"
             id="path60"
             inkscape:connector-curvature="0"
             style="fill:#567795;stroke-width:0.26458332" />
          <path
             d="m 104.68629,7.8151451 h 2.42888 V 24.768851 h -2.42888 z"
             id="path62"
             inkscape:connector-curvature="0"
             style="fill:#567795;stroke-width:0.26458332" />
          <path
             d="m 117.18733,20.982928 c 0,2.0955 -1.69069,3.929063 -3.85736,3.929063 -1.85738,0 -4.00024,-0.904875 -4.00024,-4.0005 V 11.57752 c 0,-2.2145625 1.59517,-3.9049853 3.95261,-3.9049853 2.23811,0 3.90499,1.6906874 3.90499,4.0478603 v 0.9525 h -2.42888 V 11.86327 c 0,-0.9525 -0.5715,-1.762125 -1.50018,-1.762125 -1.21444,0 -1.49993,0.833173 -1.49993,1.976173 v 8.667485 c 0,0.976313 0.38074,1.738313 1.47611,1.738313 0.66702,0 1.524,-0.381 1.524,-1.714236 v -0.833437 h 2.42888 z"
             id="path64"
             inkscape:connector-curvature="0"
             style="fill:#567795;stroke-width:0.26458332" />
        </g>
        <g
           transform="translate(-54.016708,27.008353)"
           id="g1264">
          <path
             d="m 123.59289,7.8151451 h 7.23874 v 2.2859999 h -4.81013 v 4.976548 h 4.191 v 2.286 h -4.191 v 4.976548 h 4.81013 v 2.428875 h -7.23874 z"
             id="path66"
             inkscape:connector-curvature="0"
             style="fill:#567795;stroke-width:0.26458332" />
          <path
             d="m 134.64163,15.887318 -3.16707,-8.0719084 h 2.57175 l 1.83357,5.0241734 1.85737,-5.0241734 h 2.57175 l -3.23824,8.0719084 3.50018,8.881798 h -2.57175 l -2.11931,-5.714736 -2.09524,5.714736 h -2.57175 z"
             id="path68"
             inkscape:connector-curvature="0"
             style="fill:#567795;stroke-width:0.26458332" />
          <path
             d="m 141.66658,7.8151451 h 3.64305 c 1.3335,0 2.30981,0.3095625 3.14325,1.1906249 0.83343,0.8810625 1.09537,1.952625 1.09537,3.976423 0,1.476375 -0.11906,2.4765 -0.6903,3.405187 -0.66701,1.095375 -1.73831,1.762125 -3.52398,1.762125 h -1.23852 v 6.619611 h -2.42861 V 7.8151451 Z m 2.42861,8.0483599 h 1.16681 c 1.97644,0 2.00025,-1.166812 2.00025,-2.857235 0,-1.595437 0,-2.90486 -1.90474,-2.90486 h -1.26232 z"
             id="path70"
             inkscape:connector-curvature="0"
             style="fill:#567795;stroke-width:0.26458332" />
          <path
             d="m 151.358,7.8151451 h 2.42888 V 22.339976 h 4.81012 v 2.428875 h -7.23874 V 7.8151451 Z"
             id="path72"
             inkscape:connector-curvature="0"
             style="fill:#567795;stroke-width:0.26458332" />
          <path
             d="m 160.02601,11.815645 c 0,-2.7619854 2.09524,-4.1431103 4.07168,-4.1431103 1.97643,0 4.07193,1.3811249 4.07193,4.1431103 v 8.953235 c 0,2.761986 -2.0955,4.143111 -4.07193,4.143111 -1.97644,0 -4.07168,-1.381125 -4.07168,-4.143111 z m 2.42862,8.952971 c 0,1.166812 0.76226,1.714235 1.64306,1.714235 0.88106,0 1.64306,-0.547687 1.64306,-1.714235 v -8.952971 c 0,-1.166812 -0.762,-1.714235 -1.64306,-1.714235 -0.8808,0 -1.64306,0.547687 -1.64306,1.714235 z"
             id="path74"
             inkscape:connector-curvature="0"
             style="fill:#567795;stroke-width:0.26458332" />
          <path
             d="m 170.31301,7.8151451 h 3.90499 c 2.88131,0 4.28599,1.6906874 4.28599,4.9765479 0,1.95236 -0.54743,3.38111 -2.09524,4.23836 l 2.61911,7.738798 h -2.57175 l -2.26219,-7.238735 h -1.45256 v 7.238735 h -2.42861 V 7.8151451 Z m 2.42835,7.5721099 h 1.38113 c 1.69095,0 1.95262,-0.9525 1.95262,-2.643187 0,-1.714235 -0.28575,-2.642923 -2.07142,-2.642923 h -1.26233 z"
             id="path76"
             inkscape:connector-curvature="0"
             style="fill:#567795;stroke-width:0.26458332" />
          <path
             d="m 180.45714,7.8151451 h 7.23847 v 2.2859999 h -4.81012 v 4.976548 h 4.191 v 2.286 h -4.191 v 4.976548 h 4.81012 v 2.428875 h -7.23847 z"
             id="path78"
             inkscape:connector-curvature="0"
             style="fill:#567795;stroke-width:0.26458332" />
          <path
             d="m 189.26724,7.8151451 h 3.90525 c 2.88131,0 4.28598,1.6906874 4.28598,4.9765479 0,1.95236 -0.54742,3.38111 -2.0955,4.23836 l 2.61938,7.738798 h -2.57175 l -2.26219,-7.238735 h -1.45256 v 7.238735 h -2.42888 V 7.8151451 Z m 2.42887,7.5721099 h 1.38139 c 1.69069,0 1.95236,-0.9525 1.95236,-2.643187 0,-1.714235 -0.28575,-2.642923 -2.07142,-2.642923 h -1.26233 z"
             id="path80"
             inkscape:connector-curvature="0"
             style="fill:#567795;stroke-width:0.26458332" />
        </g>
      </g>
    </g>
  </g>
</svg>
